%TF.GenerationSoftware,KiCad,Pcbnew,10.0.3*%
%TF.CreationDate,2026-06-06T09:21:17-06:00*%
%TF.ProjectId,ZED-F9P GNSS FeatherWing,5a45442d-4639-4502-9047-4e5353204665,rev?*%
%TF.SameCoordinates,Original*%
%TF.FileFunction,Legend,Top*%
%TF.FilePolarity,Positive*%
%FSLAX46Y46*%
G04 Gerber Fmt 4.6, Leading zero omitted, Abs format (unit mm)*
G04 Created by KiCad (PCBNEW 10.0.3) date 2026-06-06 09:21:17*
%MOMM*%
%LPD*%
G01*
G04 APERTURE LIST*
%ADD10C,0.406400*%
%ADD11C,0.119969*%
%ADD12C,0.097536*%
%ADD13C,0.150000*%
%ADD14C,0.105664*%
%ADD15C,0.119075*%
%ADD16C,0.120000*%
%ADD17C,0.203200*%
%ADD18C,0.177800*%
%ADD19C,0.141418*%
%ADD20C,0.000000*%
G04 APERTURE END LIST*
D10*
X167410337Y-96605725D02*
G75*
G02*
X167069563Y-96605725I-170387J0D01*
G01*
X167069563Y-96605725D02*
G75*
G02*
X167410337Y-96605725I170387J0D01*
G01*
D11*
X139508471Y-107411602D02*
X139508471Y-107972466D01*
X139508471Y-107972466D02*
X139541463Y-108038450D01*
X139541463Y-108038450D02*
X139574455Y-108071442D01*
X139574455Y-108071442D02*
X139640439Y-108104433D01*
X139640439Y-108104433D02*
X139772407Y-108104433D01*
X139772407Y-108104433D02*
X139838391Y-108071442D01*
X139838391Y-108071442D02*
X139871383Y-108038450D01*
X139871383Y-108038450D02*
X139904375Y-107972466D01*
X139904375Y-107972466D02*
X139904375Y-107411602D01*
X140201302Y-107477586D02*
X140234294Y-107444594D01*
X140234294Y-107444594D02*
X140300278Y-107411602D01*
X140300278Y-107411602D02*
X140465238Y-107411602D01*
X140465238Y-107411602D02*
X140531222Y-107444594D01*
X140531222Y-107444594D02*
X140564214Y-107477586D01*
X140564214Y-107477586D02*
X140597206Y-107543570D01*
X140597206Y-107543570D02*
X140597206Y-107609554D01*
X140597206Y-107609554D02*
X140564214Y-107708530D01*
X140564214Y-107708530D02*
X140168310Y-108104433D01*
X140168310Y-108104433D02*
X140597206Y-108104433D01*
X140457011Y-109619789D02*
X140424020Y-109586797D01*
X140424020Y-109586797D02*
X140391028Y-109487821D01*
X140391028Y-109487821D02*
X140391028Y-109421837D01*
X140391028Y-109421837D02*
X140424020Y-109322861D01*
X140424020Y-109322861D02*
X140490003Y-109256877D01*
X140490003Y-109256877D02*
X140555987Y-109223885D01*
X140555987Y-109223885D02*
X140687955Y-109190893D01*
X140687955Y-109190893D02*
X140786931Y-109190893D01*
X140786931Y-109190893D02*
X140918899Y-109223885D01*
X140918899Y-109223885D02*
X140984883Y-109256877D01*
X140984883Y-109256877D02*
X141050867Y-109322861D01*
X141050867Y-109322861D02*
X141083859Y-109421837D01*
X141083859Y-109421837D02*
X141083859Y-109487821D01*
X141083859Y-109487821D02*
X141050867Y-109586797D01*
X141050867Y-109586797D02*
X141017875Y-109619789D01*
X140391028Y-110279628D02*
X140391028Y-109883724D01*
X140391028Y-110081676D02*
X141083859Y-110081676D01*
X141083859Y-110081676D02*
X140984883Y-110015692D01*
X140984883Y-110015692D02*
X140918899Y-109949708D01*
X140918899Y-109949708D02*
X140885907Y-109883724D01*
D12*
X128708397Y-112440908D02*
X128673913Y-112440908D01*
X128673913Y-112440908D02*
X128604944Y-112406423D01*
X128604944Y-112406423D02*
X128570460Y-112371939D01*
X128570460Y-112371939D02*
X128535976Y-112302971D01*
X128535976Y-112302971D02*
X128535976Y-112234002D01*
X128535976Y-112234002D02*
X128553218Y-112182276D01*
X128553218Y-112182276D02*
X128604944Y-112096066D01*
X128604944Y-112096066D02*
X128656671Y-112044339D01*
X128656671Y-112044339D02*
X128742881Y-111992613D01*
X128742881Y-111992613D02*
X128794607Y-111975371D01*
X128794607Y-111975371D02*
X128863576Y-111975371D01*
X128863576Y-111975371D02*
X128932544Y-112009855D01*
X128932544Y-112009855D02*
X128967028Y-112044339D01*
X128967028Y-112044339D02*
X129001512Y-112113308D01*
X129001512Y-112113308D02*
X129001512Y-112147792D01*
X129225660Y-112544360D02*
X128984270Y-112785749D01*
X129277386Y-112320213D02*
X128932544Y-112492634D01*
X128932544Y-112492634D02*
X129156691Y-112716781D01*
D13*
X170606666Y-98134819D02*
X170606666Y-98849104D01*
X170606666Y-98849104D02*
X170559047Y-98991961D01*
X170559047Y-98991961D02*
X170463809Y-99087200D01*
X170463809Y-99087200D02*
X170320952Y-99134819D01*
X170320952Y-99134819D02*
X170225714Y-99134819D01*
X171606666Y-99134819D02*
X171035238Y-99134819D01*
X171320952Y-99134819D02*
X171320952Y-98134819D01*
X171320952Y-98134819D02*
X171225714Y-98277676D01*
X171225714Y-98277676D02*
X171130476Y-98372914D01*
X171130476Y-98372914D02*
X171035238Y-98420533D01*
D14*
X136653644Y-100185049D02*
X136935415Y-100185049D01*
X136935415Y-100185049D02*
X136653644Y-100607705D01*
X136653644Y-100607705D02*
X136935415Y-100607705D01*
X137076300Y-100225302D02*
X137096427Y-100205175D01*
X137096427Y-100205175D02*
X137136680Y-100185049D01*
X137136680Y-100185049D02*
X137237312Y-100185049D01*
X137237312Y-100185049D02*
X137277565Y-100205175D01*
X137277565Y-100205175D02*
X137297692Y-100225302D01*
X137297692Y-100225302D02*
X137317818Y-100265555D01*
X137317818Y-100265555D02*
X137317818Y-100305808D01*
X137317818Y-100305808D02*
X137297692Y-100366187D01*
X137297692Y-100366187D02*
X137056174Y-100607705D01*
X137056174Y-100607705D02*
X137317818Y-100607705D01*
D12*
X136371376Y-112137952D02*
X135859312Y-112137952D01*
X135859312Y-112137952D02*
X135859312Y-112016032D01*
X135859312Y-112016032D02*
X135883696Y-111942880D01*
X135883696Y-111942880D02*
X135932464Y-111894112D01*
X135932464Y-111894112D02*
X135981232Y-111869728D01*
X135981232Y-111869728D02*
X136078768Y-111845344D01*
X136078768Y-111845344D02*
X136151920Y-111845344D01*
X136151920Y-111845344D02*
X136249456Y-111869728D01*
X136249456Y-111869728D02*
X136298224Y-111894112D01*
X136298224Y-111894112D02*
X136346992Y-111942880D01*
X136346992Y-111942880D02*
X136371376Y-112016032D01*
X136371376Y-112016032D02*
X136371376Y-112137952D01*
X136371376Y-111357664D02*
X136371376Y-111650272D01*
X136371376Y-111503968D02*
X135859312Y-111503968D01*
X135859312Y-111503968D02*
X135932464Y-111552736D01*
X135932464Y-111552736D02*
X135981232Y-111601504D01*
X135981232Y-111601504D02*
X136005616Y-111650272D01*
D15*
X141892790Y-104822682D02*
X141665980Y-104981449D01*
X141892790Y-105094854D02*
X141416489Y-105094854D01*
X141416489Y-105094854D02*
X141416489Y-104913406D01*
X141416489Y-104913406D02*
X141439170Y-104868044D01*
X141439170Y-104868044D02*
X141461851Y-104845363D01*
X141461851Y-104845363D02*
X141507213Y-104822682D01*
X141507213Y-104822682D02*
X141575256Y-104822682D01*
X141575256Y-104822682D02*
X141620618Y-104845363D01*
X141620618Y-104845363D02*
X141643299Y-104868044D01*
X141643299Y-104868044D02*
X141665980Y-104913406D01*
X141665980Y-104913406D02*
X141665980Y-105094854D01*
X141416489Y-104414424D02*
X141416489Y-104505148D01*
X141416489Y-104505148D02*
X141439170Y-104550510D01*
X141439170Y-104550510D02*
X141461851Y-104573191D01*
X141461851Y-104573191D02*
X141529894Y-104618553D01*
X141529894Y-104618553D02*
X141620618Y-104641234D01*
X141620618Y-104641234D02*
X141802066Y-104641234D01*
X141802066Y-104641234D02*
X141847428Y-104618553D01*
X141847428Y-104618553D02*
X141870109Y-104595872D01*
X141870109Y-104595872D02*
X141892790Y-104550510D01*
X141892790Y-104550510D02*
X141892790Y-104459786D01*
X141892790Y-104459786D02*
X141870109Y-104414424D01*
X141870109Y-104414424D02*
X141847428Y-104391743D01*
X141847428Y-104391743D02*
X141802066Y-104369062D01*
X141802066Y-104369062D02*
X141688661Y-104369062D01*
X141688661Y-104369062D02*
X141643299Y-104391743D01*
X141643299Y-104391743D02*
X141620618Y-104414424D01*
X141620618Y-104414424D02*
X141597937Y-104459786D01*
X141597937Y-104459786D02*
X141597937Y-104550510D01*
X141597937Y-104550510D02*
X141620618Y-104595872D01*
X141620618Y-104595872D02*
X141643299Y-104618553D01*
X141643299Y-104618553D02*
X141688661Y-104641234D01*
D14*
X136415804Y-101794631D02*
X136697575Y-101794631D01*
X136697575Y-101794631D02*
X136415804Y-102217287D01*
X136415804Y-102217287D02*
X136697575Y-102217287D01*
X137039725Y-101935516D02*
X137039725Y-102217287D01*
X136939093Y-101774505D02*
X136838460Y-102076402D01*
X136838460Y-102076402D02*
X137100105Y-102076402D01*
X128819894Y-102390124D02*
X129101665Y-102390124D01*
X129101665Y-102390124D02*
X128819894Y-102812780D01*
X128819894Y-102812780D02*
X129101665Y-102812780D01*
X129222424Y-102390124D02*
X129484068Y-102390124D01*
X129484068Y-102390124D02*
X129343183Y-102551136D01*
X129343183Y-102551136D02*
X129403562Y-102551136D01*
X129403562Y-102551136D02*
X129443815Y-102571262D01*
X129443815Y-102571262D02*
X129463942Y-102591389D01*
X129463942Y-102591389D02*
X129484068Y-102631642D01*
X129484068Y-102631642D02*
X129484068Y-102732274D01*
X129484068Y-102732274D02*
X129463942Y-102772527D01*
X129463942Y-102772527D02*
X129443815Y-102792654D01*
X129443815Y-102792654D02*
X129403562Y-102812780D01*
X129403562Y-102812780D02*
X129282803Y-102812780D01*
X129282803Y-102812780D02*
X129242550Y-102792654D01*
X129242550Y-102792654D02*
X129222424Y-102772527D01*
D12*
X134177615Y-112708948D02*
X133933775Y-112879636D01*
X134177615Y-113001556D02*
X133665551Y-113001556D01*
X133665551Y-113001556D02*
X133665551Y-112806484D01*
X133665551Y-112806484D02*
X133689935Y-112757716D01*
X133689935Y-112757716D02*
X133714319Y-112733332D01*
X133714319Y-112733332D02*
X133763087Y-112708948D01*
X133763087Y-112708948D02*
X133836239Y-112708948D01*
X133836239Y-112708948D02*
X133885007Y-112733332D01*
X133885007Y-112733332D02*
X133909391Y-112757716D01*
X133909391Y-112757716D02*
X133933775Y-112806484D01*
X133933775Y-112806484D02*
X133933775Y-113001556D01*
X133665551Y-112245652D02*
X133665551Y-112489492D01*
X133665551Y-112489492D02*
X133909391Y-112513876D01*
X133909391Y-112513876D02*
X133885007Y-112489492D01*
X133885007Y-112489492D02*
X133860623Y-112440724D01*
X133860623Y-112440724D02*
X133860623Y-112318804D01*
X133860623Y-112318804D02*
X133885007Y-112270036D01*
X133885007Y-112270036D02*
X133909391Y-112245652D01*
X133909391Y-112245652D02*
X133958159Y-112221268D01*
X133958159Y-112221268D02*
X134080079Y-112221268D01*
X134080079Y-112221268D02*
X134128847Y-112245652D01*
X134128847Y-112245652D02*
X134153231Y-112270036D01*
X134153231Y-112270036D02*
X134177615Y-112318804D01*
X134177615Y-112318804D02*
X134177615Y-112440724D01*
X134177615Y-112440724D02*
X134153231Y-112489492D01*
X134153231Y-112489492D02*
X134128847Y-112513876D01*
D11*
X140435773Y-103474955D02*
X140369789Y-103441963D01*
X140369789Y-103441963D02*
X140303805Y-103375980D01*
X140303805Y-103375980D02*
X140204829Y-103277004D01*
X140204829Y-103277004D02*
X140138845Y-103244012D01*
X140138845Y-103244012D02*
X140072861Y-103244012D01*
X140105853Y-103408971D02*
X140039869Y-103375980D01*
X140039869Y-103375980D02*
X139973885Y-103309996D01*
X139973885Y-103309996D02*
X139940893Y-103178028D01*
X139940893Y-103178028D02*
X139940893Y-102947084D01*
X139940893Y-102947084D02*
X139973885Y-102815116D01*
X139973885Y-102815116D02*
X140039869Y-102749132D01*
X140039869Y-102749132D02*
X140105853Y-102716140D01*
X140105853Y-102716140D02*
X140237821Y-102716140D01*
X140237821Y-102716140D02*
X140303805Y-102749132D01*
X140303805Y-102749132D02*
X140369789Y-102815116D01*
X140369789Y-102815116D02*
X140402781Y-102947084D01*
X140402781Y-102947084D02*
X140402781Y-103178028D01*
X140402781Y-103178028D02*
X140369789Y-103309996D01*
X140369789Y-103309996D02*
X140303805Y-103375980D01*
X140303805Y-103375980D02*
X140237821Y-103408971D01*
X140237821Y-103408971D02*
X140105853Y-103408971D01*
X141062620Y-103408971D02*
X140666716Y-103408971D01*
X140864668Y-103408971D02*
X140864668Y-102716140D01*
X140864668Y-102716140D02*
X140798684Y-102815116D01*
X140798684Y-102815116D02*
X140732700Y-102881100D01*
X140732700Y-102881100D02*
X140666716Y-102914092D01*
D13*
X169284819Y-106396666D02*
X169284819Y-106872856D01*
X169284819Y-106872856D02*
X168284819Y-106872856D01*
X169284819Y-105539523D02*
X169284819Y-106110951D01*
X169284819Y-105825237D02*
X168284819Y-105825237D01*
X168284819Y-105825237D02*
X168427676Y-105920475D01*
X168427676Y-105920475D02*
X168522914Y-106015713D01*
X168522914Y-106015713D02*
X168570533Y-106110951D01*
D14*
X128805804Y-99804631D02*
X129087575Y-99804631D01*
X129087575Y-99804631D02*
X128805804Y-100227287D01*
X128805804Y-100227287D02*
X129087575Y-100227287D01*
X129469978Y-100227287D02*
X129228460Y-100227287D01*
X129349219Y-100227287D02*
X129349219Y-99804631D01*
X129349219Y-99804631D02*
X129308966Y-99865010D01*
X129308966Y-99865010D02*
X129268713Y-99905263D01*
X129268713Y-99905263D02*
X129228460Y-99925390D01*
D12*
X127093226Y-98396552D02*
X126581162Y-98396552D01*
X126581162Y-98396552D02*
X126581162Y-98274632D01*
X126581162Y-98274632D02*
X126605546Y-98201480D01*
X126605546Y-98201480D02*
X126654314Y-98152712D01*
X126654314Y-98152712D02*
X126703082Y-98128328D01*
X126703082Y-98128328D02*
X126800618Y-98103944D01*
X126800618Y-98103944D02*
X126873770Y-98103944D01*
X126873770Y-98103944D02*
X126971306Y-98128328D01*
X126971306Y-98128328D02*
X127020074Y-98152712D01*
X127020074Y-98152712D02*
X127068842Y-98201480D01*
X127068842Y-98201480D02*
X127093226Y-98274632D01*
X127093226Y-98274632D02*
X127093226Y-98396552D01*
X126629930Y-97908872D02*
X126605546Y-97884488D01*
X126605546Y-97884488D02*
X126581162Y-97835720D01*
X126581162Y-97835720D02*
X126581162Y-97713800D01*
X126581162Y-97713800D02*
X126605546Y-97665032D01*
X126605546Y-97665032D02*
X126629930Y-97640648D01*
X126629930Y-97640648D02*
X126678698Y-97616264D01*
X126678698Y-97616264D02*
X126727466Y-97616264D01*
X126727466Y-97616264D02*
X126800618Y-97640648D01*
X126800618Y-97640648D02*
X127093226Y-97933256D01*
X127093226Y-97933256D02*
X127093226Y-97616264D01*
D13*
X167633333Y-99014819D02*
X167300000Y-98538628D01*
X167061905Y-99014819D02*
X167061905Y-98014819D01*
X167061905Y-98014819D02*
X167442857Y-98014819D01*
X167442857Y-98014819D02*
X167538095Y-98062438D01*
X167538095Y-98062438D02*
X167585714Y-98110057D01*
X167585714Y-98110057D02*
X167633333Y-98205295D01*
X167633333Y-98205295D02*
X167633333Y-98348152D01*
X167633333Y-98348152D02*
X167585714Y-98443390D01*
X167585714Y-98443390D02*
X167538095Y-98491009D01*
X167538095Y-98491009D02*
X167442857Y-98538628D01*
X167442857Y-98538628D02*
X167061905Y-98538628D01*
X168014286Y-98110057D02*
X168061905Y-98062438D01*
X168061905Y-98062438D02*
X168157143Y-98014819D01*
X168157143Y-98014819D02*
X168395238Y-98014819D01*
X168395238Y-98014819D02*
X168490476Y-98062438D01*
X168490476Y-98062438D02*
X168538095Y-98110057D01*
X168538095Y-98110057D02*
X168585714Y-98205295D01*
X168585714Y-98205295D02*
X168585714Y-98300533D01*
X168585714Y-98300533D02*
X168538095Y-98443390D01*
X168538095Y-98443390D02*
X167966667Y-99014819D01*
X167966667Y-99014819D02*
X168585714Y-99014819D01*
D11*
X168623108Y-110995607D02*
X168293189Y-111226551D01*
X168623108Y-111391511D02*
X167930277Y-111391511D01*
X167930277Y-111391511D02*
X167930277Y-111127575D01*
X167930277Y-111127575D02*
X167963269Y-111061591D01*
X167963269Y-111061591D02*
X167996261Y-111028599D01*
X167996261Y-111028599D02*
X168062245Y-110995607D01*
X168062245Y-110995607D02*
X168161221Y-110995607D01*
X168161221Y-110995607D02*
X168227205Y-111028599D01*
X168227205Y-111028599D02*
X168260197Y-111061591D01*
X168260197Y-111061591D02*
X168293189Y-111127575D01*
X168293189Y-111127575D02*
X168293189Y-111391511D01*
X168623108Y-110335768D02*
X168623108Y-110731672D01*
X168623108Y-110533720D02*
X167930277Y-110533720D01*
X167930277Y-110533720D02*
X168029253Y-110599704D01*
X168029253Y-110599704D02*
X168095237Y-110665688D01*
X168095237Y-110665688D02*
X168128229Y-110731672D01*
X138997011Y-109529789D02*
X138964020Y-109496797D01*
X138964020Y-109496797D02*
X138931028Y-109397821D01*
X138931028Y-109397821D02*
X138931028Y-109331837D01*
X138931028Y-109331837D02*
X138964020Y-109232861D01*
X138964020Y-109232861D02*
X139030003Y-109166877D01*
X139030003Y-109166877D02*
X139095987Y-109133885D01*
X139095987Y-109133885D02*
X139227955Y-109100893D01*
X139227955Y-109100893D02*
X139326931Y-109100893D01*
X139326931Y-109100893D02*
X139458899Y-109133885D01*
X139458899Y-109133885D02*
X139524883Y-109166877D01*
X139524883Y-109166877D02*
X139590867Y-109232861D01*
X139590867Y-109232861D02*
X139623859Y-109331837D01*
X139623859Y-109331837D02*
X139623859Y-109397821D01*
X139623859Y-109397821D02*
X139590867Y-109496797D01*
X139590867Y-109496797D02*
X139557875Y-109529789D01*
X139557875Y-109793724D02*
X139590867Y-109826716D01*
X139590867Y-109826716D02*
X139623859Y-109892700D01*
X139623859Y-109892700D02*
X139623859Y-110057660D01*
X139623859Y-110057660D02*
X139590867Y-110123644D01*
X139590867Y-110123644D02*
X139557875Y-110156636D01*
X139557875Y-110156636D02*
X139491891Y-110189628D01*
X139491891Y-110189628D02*
X139425907Y-110189628D01*
X139425907Y-110189628D02*
X139326931Y-110156636D01*
X139326931Y-110156636D02*
X138931028Y-109760732D01*
X138931028Y-109760732D02*
X138931028Y-110189628D01*
D13*
X167753333Y-102749580D02*
X167705714Y-102797200D01*
X167705714Y-102797200D02*
X167562857Y-102844819D01*
X167562857Y-102844819D02*
X167467619Y-102844819D01*
X167467619Y-102844819D02*
X167324762Y-102797200D01*
X167324762Y-102797200D02*
X167229524Y-102701961D01*
X167229524Y-102701961D02*
X167181905Y-102606723D01*
X167181905Y-102606723D02*
X167134286Y-102416247D01*
X167134286Y-102416247D02*
X167134286Y-102273390D01*
X167134286Y-102273390D02*
X167181905Y-102082914D01*
X167181905Y-102082914D02*
X167229524Y-101987676D01*
X167229524Y-101987676D02*
X167324762Y-101892438D01*
X167324762Y-101892438D02*
X167467619Y-101844819D01*
X167467619Y-101844819D02*
X167562857Y-101844819D01*
X167562857Y-101844819D02*
X167705714Y-101892438D01*
X167705714Y-101892438D02*
X167753333Y-101940057D01*
X168086667Y-101844819D02*
X168705714Y-101844819D01*
X168705714Y-101844819D02*
X168372381Y-102225771D01*
X168372381Y-102225771D02*
X168515238Y-102225771D01*
X168515238Y-102225771D02*
X168610476Y-102273390D01*
X168610476Y-102273390D02*
X168658095Y-102321009D01*
X168658095Y-102321009D02*
X168705714Y-102416247D01*
X168705714Y-102416247D02*
X168705714Y-102654342D01*
X168705714Y-102654342D02*
X168658095Y-102749580D01*
X168658095Y-102749580D02*
X168610476Y-102797200D01*
X168610476Y-102797200D02*
X168515238Y-102844819D01*
X168515238Y-102844819D02*
X168229524Y-102844819D01*
X168229524Y-102844819D02*
X168134286Y-102797200D01*
X168134286Y-102797200D02*
X168086667Y-102749580D01*
D12*
X131840194Y-106473174D02*
X131771225Y-106507658D01*
X131771225Y-106507658D02*
X131736741Y-106507658D01*
X131736741Y-106507658D02*
X131685015Y-106490416D01*
X131685015Y-106490416D02*
X131633289Y-106438690D01*
X131633289Y-106438690D02*
X131616047Y-106386964D01*
X131616047Y-106386964D02*
X131616047Y-106352480D01*
X131616047Y-106352480D02*
X131633289Y-106300753D01*
X131633289Y-106300753D02*
X131771225Y-106162817D01*
X131771225Y-106162817D02*
X132133309Y-106524901D01*
X132133309Y-106524901D02*
X132012615Y-106645595D01*
X132012615Y-106645595D02*
X131960888Y-106662837D01*
X131960888Y-106662837D02*
X131926404Y-106662837D01*
X131926404Y-106662837D02*
X131874678Y-106645595D01*
X131874678Y-106645595D02*
X131840194Y-106611111D01*
X131840194Y-106611111D02*
X131822952Y-106559385D01*
X131822952Y-106559385D02*
X131822952Y-106524901D01*
X131822952Y-106524901D02*
X131840194Y-106473174D01*
X131840194Y-106473174D02*
X131960888Y-106352480D01*
X131219478Y-106714564D02*
X131426384Y-106507658D01*
X131322931Y-106611111D02*
X131685015Y-106973195D01*
X131685015Y-106973195D02*
X131667773Y-106886984D01*
X131667773Y-106886984D02*
X131667773Y-106818016D01*
X131667773Y-106818016D02*
X131685015Y-106766290D01*
D11*
X143866214Y-98290751D02*
X143536295Y-98521695D01*
X143866214Y-98686655D02*
X143173383Y-98686655D01*
X143173383Y-98686655D02*
X143173383Y-98422719D01*
X143173383Y-98422719D02*
X143206375Y-98356735D01*
X143206375Y-98356735D02*
X143239367Y-98323743D01*
X143239367Y-98323743D02*
X143305351Y-98290751D01*
X143305351Y-98290751D02*
X143404327Y-98290751D01*
X143404327Y-98290751D02*
X143470311Y-98323743D01*
X143470311Y-98323743D02*
X143503303Y-98356735D01*
X143503303Y-98356735D02*
X143536295Y-98422719D01*
X143536295Y-98422719D02*
X143536295Y-98686655D01*
X143173383Y-98059808D02*
X143173383Y-97630912D01*
X143173383Y-97630912D02*
X143437319Y-97861856D01*
X143437319Y-97861856D02*
X143437319Y-97762880D01*
X143437319Y-97762880D02*
X143470311Y-97696896D01*
X143470311Y-97696896D02*
X143503303Y-97663904D01*
X143503303Y-97663904D02*
X143569287Y-97630912D01*
X143569287Y-97630912D02*
X143734247Y-97630912D01*
X143734247Y-97630912D02*
X143800231Y-97663904D01*
X143800231Y-97663904D02*
X143833223Y-97696896D01*
X143833223Y-97696896D02*
X143866214Y-97762880D01*
X143866214Y-97762880D02*
X143866214Y-97960832D01*
X143866214Y-97960832D02*
X143833223Y-98026816D01*
X143833223Y-98026816D02*
X143800231Y-98059808D01*
X141473683Y-98444832D02*
X141143764Y-98675776D01*
X141473683Y-98840736D02*
X140780852Y-98840736D01*
X140780852Y-98840736D02*
X140780852Y-98576800D01*
X140780852Y-98576800D02*
X140813844Y-98510816D01*
X140813844Y-98510816D02*
X140846836Y-98477824D01*
X140846836Y-98477824D02*
X140912820Y-98444832D01*
X140912820Y-98444832D02*
X141011796Y-98444832D01*
X141011796Y-98444832D02*
X141077780Y-98477824D01*
X141077780Y-98477824D02*
X141110772Y-98510816D01*
X141110772Y-98510816D02*
X141143764Y-98576800D01*
X141143764Y-98576800D02*
X141143764Y-98840736D01*
X141011796Y-97850977D02*
X141473683Y-97850977D01*
X140747861Y-98015937D02*
X141242740Y-98180897D01*
X141242740Y-98180897D02*
X141242740Y-97752001D01*
X127264571Y-106395810D02*
X126934652Y-106626754D01*
X127264571Y-106791714D02*
X126571740Y-106791714D01*
X126571740Y-106791714D02*
X126571740Y-106527778D01*
X126571740Y-106527778D02*
X126604732Y-106461794D01*
X126604732Y-106461794D02*
X126637724Y-106428802D01*
X126637724Y-106428802D02*
X126703708Y-106395810D01*
X126703708Y-106395810D02*
X126802684Y-106395810D01*
X126802684Y-106395810D02*
X126868668Y-106428802D01*
X126868668Y-106428802D02*
X126901660Y-106461794D01*
X126901660Y-106461794D02*
X126934652Y-106527778D01*
X126934652Y-106527778D02*
X126934652Y-106791714D01*
X126571740Y-106164867D02*
X126571740Y-105702979D01*
X126571740Y-105702979D02*
X127264571Y-105999907D01*
X167543885Y-113198971D02*
X167543885Y-112506140D01*
X167543885Y-112506140D02*
X167807821Y-112506140D01*
X167807821Y-112506140D02*
X167873805Y-112539132D01*
X167873805Y-112539132D02*
X167906797Y-112572124D01*
X167906797Y-112572124D02*
X167939789Y-112638108D01*
X167939789Y-112638108D02*
X167939789Y-112737084D01*
X167939789Y-112737084D02*
X167906797Y-112803068D01*
X167906797Y-112803068D02*
X167873805Y-112836060D01*
X167873805Y-112836060D02*
X167807821Y-112869052D01*
X167807821Y-112869052D02*
X167543885Y-112869052D01*
X168236716Y-113198971D02*
X168236716Y-112506140D01*
X168236716Y-112506140D02*
X168500652Y-112506140D01*
X168500652Y-112506140D02*
X168566636Y-112539132D01*
X168566636Y-112539132D02*
X168599628Y-112572124D01*
X168599628Y-112572124D02*
X168632620Y-112638108D01*
X168632620Y-112638108D02*
X168632620Y-112737084D01*
X168632620Y-112737084D02*
X168599628Y-112803068D01*
X168599628Y-112803068D02*
X168566636Y-112836060D01*
X168566636Y-112836060D02*
X168500652Y-112869052D01*
X168500652Y-112869052D02*
X168236716Y-112869052D01*
X168896555Y-113165980D02*
X168995531Y-113198971D01*
X168995531Y-113198971D02*
X169160491Y-113198971D01*
X169160491Y-113198971D02*
X169226475Y-113165980D01*
X169226475Y-113165980D02*
X169259467Y-113132988D01*
X169259467Y-113132988D02*
X169292459Y-113067004D01*
X169292459Y-113067004D02*
X169292459Y-113001020D01*
X169292459Y-113001020D02*
X169259467Y-112935036D01*
X169259467Y-112935036D02*
X169226475Y-112902044D01*
X169226475Y-112902044D02*
X169160491Y-112869052D01*
X169160491Y-112869052D02*
X169028523Y-112836060D01*
X169028523Y-112836060D02*
X168962539Y-112803068D01*
X168962539Y-112803068D02*
X168929547Y-112770076D01*
X168929547Y-112770076D02*
X168896555Y-112704092D01*
X168896555Y-112704092D02*
X168896555Y-112638108D01*
X168896555Y-112638108D02*
X168929547Y-112572124D01*
X168929547Y-112572124D02*
X168962539Y-112539132D01*
X168962539Y-112539132D02*
X169028523Y-112506140D01*
X169028523Y-112506140D02*
X169193483Y-112506140D01*
X169193483Y-112506140D02*
X169292459Y-112539132D01*
X169721354Y-112506140D02*
X169787338Y-112506140D01*
X169787338Y-112506140D02*
X169853322Y-112539132D01*
X169853322Y-112539132D02*
X169886314Y-112572124D01*
X169886314Y-112572124D02*
X169919306Y-112638108D01*
X169919306Y-112638108D02*
X169952298Y-112770076D01*
X169952298Y-112770076D02*
X169952298Y-112935036D01*
X169952298Y-112935036D02*
X169919306Y-113067004D01*
X169919306Y-113067004D02*
X169886314Y-113132988D01*
X169886314Y-113132988D02*
X169853322Y-113165980D01*
X169853322Y-113165980D02*
X169787338Y-113198971D01*
X169787338Y-113198971D02*
X169721354Y-113198971D01*
X169721354Y-113198971D02*
X169655370Y-113165980D01*
X169655370Y-113165980D02*
X169622378Y-113132988D01*
X169622378Y-113132988D02*
X169589386Y-113067004D01*
X169589386Y-113067004D02*
X169556394Y-112935036D01*
X169556394Y-112935036D02*
X169556394Y-112770076D01*
X169556394Y-112770076D02*
X169589386Y-112638108D01*
X169589386Y-112638108D02*
X169622378Y-112572124D01*
X169622378Y-112572124D02*
X169655370Y-112539132D01*
X169655370Y-112539132D02*
X169721354Y-112506140D01*
%TO.C,C5*%
D16*
X158337836Y-113470000D02*
X158122164Y-113470000D01*
X158337836Y-114190000D02*
X158122164Y-114190000D01*
%TO.C,U2*%
D17*
X135579850Y-108661100D02*
X135579850Y-107061100D01*
X137629850Y-108911100D02*
X136829850Y-108911100D01*
X138879850Y-108661100D02*
X138879850Y-107061100D01*
%TO.C,D1*%
X136604850Y-111088600D02*
X136604850Y-112888600D01*
X137854850Y-110218600D02*
X136604850Y-110218600D01*
X137854850Y-111088600D02*
X137854850Y-112888600D01*
%TO.C,U1*%
D18*
X144236100Y-96253600D02*
X146686100Y-96253600D01*
X144236100Y-98203600D02*
X144236100Y-96253600D01*
X144236100Y-113753600D02*
X144236100Y-111803600D01*
X146686100Y-113753600D02*
X144236100Y-113753600D01*
X164286100Y-96253600D02*
X166736100Y-96253600D01*
X166736100Y-96253600D02*
X166736100Y-98203600D01*
X166736100Y-111803600D02*
X166736100Y-113753600D01*
X166736100Y-113753600D02*
X164286100Y-113753600D01*
D19*
X167156809Y-96503600D02*
G75*
G02*
X167015391Y-96503600I-70709J0D01*
G01*
X167015391Y-96503600D02*
G75*
G02*
X167156809Y-96503600I70709J0D01*
G01*
%TO.C,Q1*%
D17*
X136127600Y-102639600D02*
X137136400Y-102639600D01*
X136127600Y-103952400D02*
X136127600Y-102639600D01*
X138072400Y-103960400D02*
X137313600Y-103960400D01*
X138263600Y-102639600D02*
X139272400Y-102639600D01*
X139272400Y-102639600D02*
X139272400Y-103952400D01*
%TO.C,L1*%
D16*
X168130000Y-104087221D02*
X168130000Y-104412779D01*
X169150000Y-104087221D02*
X169150000Y-104412779D01*
%TO.C,C6*%
X152567836Y-113420000D02*
X152352164Y-113420000D01*
X152567836Y-114140000D02*
X152352164Y-114140000D01*
%TO.C,D2*%
D17*
X126127350Y-99817350D02*
X126127350Y-101617350D01*
X127377350Y-98947350D02*
X126127350Y-98947350D01*
X127377350Y-99817350D02*
X127377350Y-101617350D01*
%TO.C,R2*%
D16*
X167953641Y-97010000D02*
X167646359Y-97010000D01*
X167953641Y-97770000D02*
X167646359Y-97770000D01*
%TO.C,C3*%
X168027836Y-100870000D02*
X167812164Y-100870000D01*
X168027836Y-101590000D02*
X167812164Y-101590000D01*
%TO.C,B1*%
D17*
X134756100Y-106591100D02*
G75*
G02*
X127956100Y-106591100I-3400000J0D01*
G01*
X127956100Y-106591100D02*
G75*
G02*
X134756100Y-106591100I3400000J0D01*
G01*
D20*
%TO.C,PPS0*%
G36*
X171791000Y-111550000D02*
G01*
X171079800Y-112083400D01*
X171079800Y-111016600D01*
X171791000Y-111550000D01*
G37*
G36*
X171741000Y-111994500D02*
G01*
X171550500Y-111994500D01*
X171550500Y-111105500D01*
X171741000Y-111105500D01*
X171741000Y-111994500D01*
G37*
%TD*%
M02*
