%TF.GenerationSoftware,KiCad,Pcbnew,10.0.3*%
%TF.CreationDate,2026-06-06T09:21:17-06:00*%
%TF.ProjectId,ZED-F9P GNSS FeatherWing,5a45442d-4639-4502-9047-4e5353204665,rev?*%
%TF.SameCoordinates,Original*%
%TF.FileFunction,Soldermask,Top*%
%TF.FilePolarity,Negative*%
%FSLAX46Y46*%
G04 Gerber Fmt 4.6, Leading zero omitted, Abs format (unit mm)*
G04 Created by KiCad (PCBNEW 10.0.3) date 2026-06-06 09:21:17*
%MOMM*%
%LPD*%
G01*
G04 APERTURE LIST*
G04 Aperture macros list*
%AMRoundRect*
0 Rectangle with rounded corners*
0 $1 Rounding radius*
0 $2 $3 $4 $5 $6 $7 $8 $9 X,Y pos of 4 corners*
0 Add a 4 corners polygon primitive as box body*
4,1,4,$2,$3,$4,$5,$6,$7,$8,$9,$2,$3,0*
0 Add four circle primitives for the rounded corners*
1,1,$1+$1,$2,$3*
1,1,$1+$1,$4,$5*
1,1,$1+$1,$6,$7*
1,1,$1+$1,$8,$9*
0 Add four rect primitives between the rounded corners*
20,1,$1+$1,$2,$3,$4,$5,0*
20,1,$1+$1,$4,$5,$6,$7,0*
20,1,$1+$1,$6,$7,$8,$9,0*
20,1,$1+$1,$8,$9,$2,$3,0*%
%AMFreePoly0*
4,1,17,0.435720,1.001121,1.001121,0.435720,1.016000,0.399799,1.016000,-0.399799,1.001121,-0.435720,0.435720,-1.001121,0.399799,-1.016000,-0.399799,-1.016000,-0.435720,-1.001121,-1.001121,-0.435720,-1.016000,-0.399799,-1.016000,0.399799,-1.001121,0.435720,-0.435720,1.001121,-0.399799,1.016000,0.399799,1.016000,0.435720,1.001121,0.435720,1.001121,$1*%
G04 Aperture macros list end*
%ADD10C,0.000000*%
%ADD11RoundRect,0.140000X0.140000X0.170000X-0.140000X0.170000X-0.140000X-0.170000X0.140000X-0.170000X0*%
%ADD12RoundRect,0.050800X0.275000X0.600000X-0.275000X0.600000X-0.275000X-0.600000X0.275000X-0.600000X0*%
%ADD13RoundRect,0.050800X-0.750000X0.620000X-0.750000X-0.620000X0.750000X-0.620000X0.750000X0.620000X0*%
%ADD14RoundRect,0.050800X-0.712470X1.249996X-0.712470X-1.249996X0.712470X-1.249996X0.712470X1.249996X0*%
%ADD15RoundRect,0.050800X0.200000X0.875000X-0.200000X0.875000X-0.200000X-0.875000X0.200000X-0.875000X0*%
%ADD16RoundRect,0.050800X0.742462X-0.035355X-0.035355X0.742462X-0.742462X0.035355X0.035355X-0.742462X0*%
%ADD17R,4.191000X1.778000*%
%ADD18RoundRect,0.050800X-0.500000X-0.500000X0.500000X-0.500000X0.500000X0.500000X-0.500000X0.500000X0*%
%ADD19RoundRect,0.050800X-0.415000X0.315000X-0.415000X-0.315000X0.415000X-0.315000X0.415000X0.315000X0*%
%ADD20RoundRect,0.050800X-0.425000X0.760000X-0.425000X-0.760000X0.425000X-0.760000X0.425000X0.760000X0*%
%ADD21RoundRect,0.050800X0.760000X0.425000X-0.760000X0.425000X-0.760000X-0.425000X0.760000X-0.425000X0*%
%ADD22RoundRect,0.050800X0.425000X-0.760000X0.425000X0.760000X-0.425000X0.760000X-0.425000X-0.760000X0*%
%ADD23RoundRect,0.050800X-0.760000X-0.425000X0.760000X-0.425000X0.760000X0.425000X-0.760000X0.425000X0*%
%ADD24RoundRect,0.050800X0.550000X0.550000X-0.550000X0.550000X-0.550000X-0.550000X0.550000X-0.550000X0*%
%ADD25RoundRect,0.050800X-0.550000X-0.550000X0.550000X-0.550000X0.550000X0.550000X-0.550000X0.550000X0*%
%ADD26RoundRect,0.050800X-0.500000X0.537500X-0.500000X-0.537500X0.500000X-0.537500X0.500000X0.537500X0*%
%ADD27C,1.000000*%
%ADD28RoundRect,0.050800X0.500000X0.500000X-0.500000X0.500000X-0.500000X-0.500000X0.500000X-0.500000X0*%
%ADD29C,2.540000*%
%ADD30C,1.879600*%
%ADD31RoundRect,0.050800X0.500000X-0.550000X0.500000X0.550000X-0.500000X0.550000X-0.500000X-0.550000X0*%
%ADD32RoundRect,0.050800X-0.317500X-0.508000X0.317500X-0.508000X0.317500X0.508000X-0.317500X0.508000X0*%
%ADD33RoundRect,0.218750X-0.256250X0.218750X-0.256250X-0.218750X0.256250X-0.218750X0.256250X0.218750X0*%
%ADD34RoundRect,0.135000X0.135000X0.185000X-0.135000X0.185000X-0.135000X-0.185000X0.135000X-0.185000X0*%
%ADD35RoundRect,0.050800X-0.494975X-1.096016X1.096016X0.494975X0.494975X1.096016X-1.096016X-0.494975X0*%
%ADD36RoundRect,0.050800X0.500000X-0.537500X0.500000X0.537500X-0.500000X0.537500X-0.500000X-0.537500X0*%
%ADD37RoundRect,0.050800X-0.600000X0.600000X-0.600000X-0.600000X0.600000X-0.600000X0.600000X0.600000X0*%
%ADD38FreePoly0,180.000000*%
G04 APERTURE END LIST*
D10*
%TO.C,CON1*%
G36*
X130822700Y-99136200D02*
G01*
X128625600Y-99136200D01*
X128625600Y-97472500D01*
X130822700Y-97472500D01*
X130822700Y-99136200D01*
G37*
G36*
X136626600Y-99136200D02*
G01*
X134429500Y-99136200D01*
X134429500Y-97472500D01*
X136626600Y-97472500D01*
X136626600Y-99136200D01*
G37*
G36*
X130464885Y-94059474D02*
G01*
X130579289Y-94180064D01*
X130649492Y-94327296D01*
X130670300Y-94485505D01*
X130670300Y-97421700D01*
X128625600Y-97421700D01*
X128625600Y-96520000D01*
X129159000Y-96520000D01*
X129159000Y-94482744D01*
X129242658Y-94185308D01*
X129354102Y-94064576D01*
X129494686Y-93985715D01*
X129650534Y-93954600D01*
X130168849Y-93954600D01*
X130464885Y-94059474D01*
G37*
G36*
X135757514Y-93985715D02*
G01*
X135898098Y-94064576D01*
X136007431Y-94183021D01*
X136074811Y-94329454D01*
X136093200Y-94485767D01*
X136093200Y-96520000D01*
X136626600Y-96520000D01*
X136626600Y-97421700D01*
X134581900Y-97421700D01*
X134581900Y-94485505D01*
X134602708Y-94327296D01*
X134672911Y-94180064D01*
X134787315Y-94059474D01*
X135083351Y-93954600D01*
X135601666Y-93954600D01*
X135757514Y-93985715D01*
G37*
%TD*%
D11*
%TO.C,C5*%
X158710000Y-113830000D03*
X157750000Y-113830000D03*
%TD*%
D12*
%TO.C,U2*%
X138179850Y-106561000D03*
X137229850Y-106561000D03*
X136279850Y-106561000D03*
X136279850Y-109161200D03*
X138179850Y-109161200D03*
%TD*%
D13*
%TO.C,C1*%
X141020000Y-111090000D03*
X141020000Y-112990000D03*
%TD*%
D14*
%TO.C,CON1*%
X133588600Y-95023600D03*
X131663600Y-95023600D03*
D15*
X132626100Y-98098600D03*
X133276112Y-98098600D03*
X131326100Y-98098600D03*
X131976088Y-98098600D03*
X133926100Y-98098600D03*
%TD*%
D16*
%TO.C,C4*%
X127741041Y-112821041D03*
X126538959Y-111618959D03*
%TD*%
D17*
%TO.C,J1*%
X171780000Y-105000000D03*
X171780000Y-108048000D03*
X171780000Y-101952000D03*
%TD*%
D18*
%TO.C,Z2*%
X133690000Y-100394925D03*
X135690000Y-100394925D03*
%TD*%
D19*
%TO.C,D1*%
X137229850Y-113138600D03*
X137229850Y-110838600D03*
%TD*%
D20*
%TO.C,U1*%
X162636100Y-97553600D03*
X161536100Y-97553600D03*
X160436100Y-97553600D03*
X159336100Y-97553600D03*
X158236100Y-97553600D03*
X157136100Y-97553600D03*
X156036100Y-97553600D03*
X154936100Y-97553600D03*
X153836100Y-97553600D03*
X152736100Y-97553600D03*
X151636100Y-97553600D03*
X150536100Y-97553600D03*
X149436100Y-97553600D03*
X148336100Y-97553600D03*
D21*
X145536100Y-98403600D03*
X145536100Y-99503600D03*
X145536100Y-100603600D03*
X145536100Y-101703600D03*
X145536100Y-102803600D03*
X145536100Y-103903600D03*
X145536100Y-105003600D03*
X145536100Y-106103600D03*
X145536100Y-107203600D03*
X145536100Y-108303600D03*
X145536100Y-109403600D03*
X145536100Y-110503600D03*
X145536100Y-111603600D03*
D22*
X148336100Y-112453600D03*
X149436100Y-112453600D03*
X150536100Y-112453600D03*
X151636100Y-112453600D03*
X152736100Y-112453600D03*
X153836100Y-112453600D03*
X154936100Y-112453600D03*
X156036100Y-112453600D03*
X157136100Y-112453600D03*
X158236100Y-112453600D03*
X159336100Y-112453600D03*
X160436100Y-112453600D03*
X161536100Y-112453600D03*
X162636100Y-112453600D03*
D23*
X165436100Y-111603600D03*
X165436100Y-110503600D03*
X165436100Y-109403600D03*
X165436100Y-108303600D03*
X165436100Y-107203600D03*
X165436100Y-106103600D03*
X165436100Y-105003600D03*
X165436100Y-103903600D03*
X165436100Y-102803600D03*
X165436100Y-101703600D03*
X165436100Y-100603600D03*
X165436100Y-99503600D03*
X165436100Y-98403600D03*
D24*
X156536100Y-103953600D03*
X158636100Y-103953600D03*
X160736100Y-103953600D03*
X162836100Y-103953600D03*
X156536100Y-101903600D03*
X158636100Y-101903600D03*
X160736100Y-101903600D03*
X162836100Y-101903600D03*
X156536100Y-99853600D03*
X158636100Y-99853600D03*
X160736100Y-99853600D03*
X162836100Y-99853600D03*
X156536100Y-110153600D03*
X158636100Y-110153600D03*
X160736100Y-110153600D03*
X162836100Y-110153600D03*
X156536100Y-108103600D03*
X158636100Y-108103600D03*
X160736100Y-108103600D03*
X162836100Y-108103600D03*
X156536100Y-106053600D03*
X158636100Y-106053600D03*
X160736100Y-106053600D03*
X162836100Y-106053600D03*
D25*
X154436100Y-106053600D03*
X152336100Y-106053600D03*
X150236100Y-106053600D03*
X148136100Y-106053600D03*
X154436100Y-108103600D03*
X152336100Y-108103600D03*
X150236100Y-108103600D03*
X148136100Y-108103600D03*
X154436100Y-110153600D03*
X152336100Y-110153600D03*
X150236100Y-110153600D03*
X148136100Y-110153600D03*
X154436100Y-99853600D03*
X152336100Y-99853600D03*
X150236100Y-99853600D03*
X148136100Y-99853600D03*
X154436100Y-101903600D03*
X152336100Y-101903600D03*
X150236100Y-101903600D03*
X148136100Y-101903600D03*
X154436100Y-103953600D03*
X152336100Y-103953600D03*
X150236100Y-103953600D03*
X148136100Y-103953600D03*
%TD*%
D26*
%TO.C,R6*%
X140404850Y-104312350D03*
X140404850Y-106012350D03*
%TD*%
D27*
%TO.C,FID2*%
X169606100Y-115372600D03*
%TD*%
D28*
%TO.C,Z4*%
X135690000Y-101725075D03*
X133690000Y-101725075D03*
%TD*%
D18*
%TO.C,Z3*%
X130273900Y-101725075D03*
X132273900Y-101725075D03*
%TD*%
D29*
%TO.C,MS1*%
X125641100Y-96113600D03*
X125641100Y-113893600D03*
X171361100Y-96113600D03*
X171361100Y-113893600D03*
D30*
X129451100Y-115163600D03*
X131991100Y-115163600D03*
X134531100Y-115163600D03*
X137071100Y-115163600D03*
X139611100Y-115163600D03*
X142151100Y-115163600D03*
X144691100Y-115163600D03*
X147231100Y-115163600D03*
X149771100Y-115163600D03*
X152311100Y-115163600D03*
X154851100Y-115163600D03*
X157391100Y-115163600D03*
X159931100Y-115163600D03*
X162471100Y-115163600D03*
X165011100Y-115163600D03*
X167551100Y-115163600D03*
X167551100Y-94843600D03*
X165011100Y-94843600D03*
X162471100Y-94843600D03*
X159931100Y-94843600D03*
X157391100Y-94843600D03*
X154851100Y-94843600D03*
X152311100Y-94843600D03*
X149771100Y-94843600D03*
X147231100Y-94843600D03*
X144691100Y-94843600D03*
X142151100Y-94843600D03*
X139611100Y-94843600D03*
%TD*%
D31*
%TO.C,R5*%
X135166100Y-112679850D03*
X135166100Y-110979850D03*
%TD*%
D32*
%TO.C,Q1*%
X136750000Y-104300000D03*
X138650000Y-104300000D03*
X137700000Y-102300000D03*
%TD*%
D33*
%TO.C,L1*%
X168640000Y-103462500D03*
X168640000Y-105037500D03*
%TD*%
D27*
%TO.C,FID1*%
X127768350Y-94780100D03*
%TD*%
%TO.C,FID3*%
X172880000Y-97810000D03*
%TD*%
D11*
%TO.C,C6*%
X152940000Y-113780000D03*
X151980000Y-113780000D03*
%TD*%
D30*
%TO.C,JP5*%
X139611100Y-101193600D03*
X142151100Y-101193600D03*
%TD*%
D28*
%TO.C,Z1*%
X132273900Y-100394925D03*
X130273900Y-100394925D03*
%TD*%
D19*
%TO.C,D2*%
X126752350Y-101867350D03*
X126752350Y-99567350D03*
%TD*%
D34*
%TO.C,R2*%
X168310000Y-97390000D03*
X167290000Y-97390000D03*
%TD*%
D26*
%TO.C,R1*%
X168341675Y-107652450D03*
X168341675Y-109352450D03*
%TD*%
D13*
%TO.C,C2*%
X138970000Y-111040000D03*
X138970000Y-112940000D03*
%TD*%
D11*
%TO.C,C3*%
X168400000Y-101230000D03*
X167440000Y-101230000D03*
%TD*%
D35*
%TO.C,B1*%
X128442820Y-110565040D03*
X127382160Y-109504380D03*
%TD*%
D26*
%TO.C,R3*%
X142468600Y-97486100D03*
X142468600Y-99186100D03*
%TD*%
%TO.C,R4*%
X139928600Y-97486100D03*
X139928600Y-99186100D03*
%TD*%
D36*
%TO.C,R7*%
X126911100Y-104901100D03*
X126911100Y-103201100D03*
%TD*%
D37*
%TO.C,PPS0*%
X170360000Y-111550000D03*
X172460000Y-111550000D03*
%TD*%
D38*
%TO.C,UNK3V3*%
X124371100Y-103733600D03*
%TD*%
%TO.C,TX2*%
X124371100Y-108813600D03*
%TD*%
%TO.C,CTS0*%
X124371100Y-101174550D03*
%TD*%
%TO.C,RTS0*%
X124371100Y-111353600D03*
%TD*%
%TO.C,RX2*%
X124371100Y-106273600D03*
%TD*%
%TO.C,GND0*%
X124371100Y-98653600D03*
%TD*%
M02*
