%TF.GenerationSoftware,KiCad,Pcbnew,10.0.3*%
%TF.CreationDate,2026-06-06T09:21:17-06:00*%
%TF.ProjectId,ZED-F9P GNSS FeatherWing,5a45442d-4639-4502-9047-4e5353204665,rev?*%
%TF.SameCoordinates,Original*%
%TF.FileFunction,Copper,L3,Inr*%
%TF.FilePolarity,Positive*%
%FSLAX46Y46*%
G04 Gerber Fmt 4.6, Leading zero omitted, Abs format (unit mm)*
G04 Created by KiCad (PCBNEW 10.0.3) date 2026-06-06 09:21:17*
%MOMM*%
%LPD*%
G01*
G04 APERTURE LIST*
G04 Aperture macros list*
%AMOutline5P*
0 Free polygon, 5 corners , with rotation*
0 The origin of the aperture is its center*
0 number of corners: always 5*
0 $1 to $10 corner X, Y*
0 $11 Rotation angle, in degrees counterclockwise*
0 create outline with 5 corners*
4,1,5,$1,$2,$3,$4,$5,$6,$7,$8,$9,$10,$1,$2,$11*%
%AMOutline6P*
0 Free polygon, 6 corners , with rotation*
0 The origin of the aperture is its center*
0 number of corners: always 6*
0 $1 to $12 corner X, Y*
0 $13 Rotation angle, in degrees counterclockwise*
0 create outline with 6 corners*
4,1,6,$1,$2,$3,$4,$5,$6,$7,$8,$9,$10,$11,$12,$1,$2,$13*%
%AMOutline7P*
0 Free polygon, 7 corners , with rotation*
0 The origin of the aperture is its center*
0 number of corners: always 7*
0 $1 to $14 corner X, Y*
0 $15 Rotation angle, in degrees counterclockwise*
0 create outline with 7 corners*
4,1,7,$1,$2,$3,$4,$5,$6,$7,$8,$9,$10,$11,$12,$13,$14,$1,$2,$15*%
%AMOutline8P*
0 Free polygon, 8 corners , with rotation*
0 The origin of the aperture is its center*
0 number of corners: always 8*
0 $1 to $16 corner X, Y*
0 $17 Rotation angle, in degrees counterclockwise*
0 create outline with 8 corners*
4,1,8,$1,$2,$3,$4,$5,$6,$7,$8,$9,$10,$11,$12,$13,$14,$15,$16,$1,$2,$17*%
G04 Aperture macros list end*
%TA.AperFunction,ComponentPad*%
%ADD10R,1.250009X1.250009*%
%TD*%
%TA.AperFunction,ComponentPad*%
%ADD11R,1.016000X1.016000*%
%TD*%
%TA.AperFunction,ComponentPad*%
%ADD12C,1.778000*%
%TD*%
%TA.AperFunction,ComponentPad*%
%ADD13Outline8P,-0.965200X0.399799X-0.399799X0.965200X0.399799X0.965200X0.965200X0.399799X0.965200X-0.399799X0.399799X-0.965200X-0.399799X-0.965200X-0.965200X-0.399799X180.000000*%
%TD*%
%TA.AperFunction,ViaPad*%
%ADD14C,0.508000*%
%TD*%
%TA.AperFunction,ViaPad*%
%ADD15C,0.600000*%
%TD*%
%TA.AperFunction,ViaPad*%
%ADD16C,0.650000*%
%TD*%
%TA.AperFunction,ViaPad*%
%ADD17C,0.550000*%
%TD*%
G04 APERTURE END LIST*
D10*
%TO.N,GND*%
%TO.C,CON1*%
X135361681Y-95252540D03*
X129890519Y-95252540D03*
D11*
X135051800Y-98320859D03*
X130200400Y-98320859D03*
%TD*%
D12*
%TO.N,/~{RESET}*%
%TO.C,MS1*%
X129451100Y-115163600D03*
%TO.N,Net-(MS1-3V)*%
X131991100Y-115163600D03*
%TO.N,unconnected-(MS1-AREF-Pad3)*%
X134531100Y-115163600D03*
%TO.N,GND*%
X137071100Y-115163600D03*
%TO.N,unconnected-(MS1-GPIOA0-Pad5)*%
X139611100Y-115163600D03*
%TO.N,unconnected-(MS1-GPIOA1-Pad6)*%
X142151100Y-115163600D03*
%TO.N,Net-(MS1-GPIOA2)*%
X144691100Y-115163600D03*
%TO.N,unconnected-(MS1-GPIOA3-Pad8)*%
X147231100Y-115163600D03*
%TO.N,unconnected-(MS1-GPIOA4-Pad9)*%
X149771100Y-115163600D03*
%TO.N,unconnected-(MS1-GPIOA5-Pad10)*%
X152311100Y-115163600D03*
%TO.N,unconnected-(MS1-GPIOSCK-Pad11)*%
X154851100Y-115163600D03*
%TO.N,unconnected-(MS1-GPIOMOSI-Pad12)*%
X157391100Y-115163600D03*
%TO.N,unconnected-(MS1-GPIOMISO-Pad13)*%
X159931100Y-115163600D03*
%TO.N,Net-(MS1-GPIORX)*%
X162471100Y-115163600D03*
%TO.N,Net-(MS1-GPIOTX)*%
X165011100Y-115163600D03*
%TO.N,unconnected-(MS1-NC-Pad16)*%
X167551100Y-115163600D03*
%TO.N,Net-(MS1-GPIOSDA)*%
X167551100Y-94843600D03*
%TO.N,Net-(MS1-GPIOSCL)*%
X165011100Y-94843600D03*
%TO.N,unconnected-(MS1-GPIO5-Pad19)*%
X162471100Y-94843600D03*
%TO.N,unconnected-(MS1-GPIO6-Pad20)*%
X159931100Y-94843600D03*
%TO.N,unconnected-(MS1-GPIO9-Pad21)*%
X157391100Y-94843600D03*
%TO.N,unconnected-(MS1-GPIO10-Pad22)*%
X154851100Y-94843600D03*
%TO.N,unconnected-(MS1-GPIO11-Pad23)*%
X152311100Y-94843600D03*
%TO.N,unconnected-(MS1-GPIO12-Pad24)*%
X149771100Y-94843600D03*
%TO.N,unconnected-(MS1-GPIO13-Pad25)*%
X147231100Y-94843600D03*
%TO.N,VBUS*%
X144691100Y-94843600D03*
%TO.N,/EN*%
X142151100Y-94843600D03*
%TO.N,VBAT*%
X139611100Y-94843600D03*
%TD*%
%TO.N,/SCL*%
%TO.C,JP5*%
X139611100Y-101193600D03*
%TO.N,/SDA*%
X142151100Y-101193600D03*
%TD*%
D13*
%TO.N,3.3V*%
%TO.C,UNK3V3*%
X124371100Y-103733600D03*
%TD*%
%TO.N,/TX2*%
%TO.C,TX2*%
X124371100Y-108813600D03*
%TD*%
%TO.N,unconnected-(CTS0-Pad1)*%
%TO.C,CTS0*%
X124371100Y-101174550D03*
%TD*%
%TO.N,unconnected-(RTS0-Pad1)*%
%TO.C,RTS0*%
X124371100Y-111353600D03*
%TD*%
%TO.N,/RX2*%
%TO.C,RX2*%
X124371100Y-106273600D03*
%TD*%
%TO.N,GND*%
%TO.C,GND0*%
X124371100Y-98653600D03*
%TD*%
D14*
%TO.N,3.3V*%
X153840000Y-113850000D03*
D15*
X133200000Y-112300000D03*
X130380000Y-112170000D03*
D14*
X136340000Y-113790000D03*
X142320000Y-110140000D03*
X159336100Y-113533900D03*
X139140000Y-109470000D03*
X141240000Y-97490000D03*
X154940000Y-113750000D03*
%TO.N,GND*%
X172980000Y-95020000D03*
X123650000Y-112840000D03*
X127130000Y-107850000D03*
X125050000Y-94280000D03*
X173310000Y-96810000D03*
X158690000Y-94100000D03*
D16*
X149136100Y-105013125D03*
D14*
X168700000Y-115900000D03*
X151300000Y-107060000D03*
X130690000Y-115840000D03*
X155460000Y-98880000D03*
X147110000Y-108370000D03*
X152740000Y-111210000D03*
X153400000Y-107060000D03*
X153590000Y-115810000D03*
X170950000Y-99960000D03*
X169010000Y-98430000D03*
X123790000Y-95530000D03*
X157480000Y-100850000D03*
X167340000Y-110010000D03*
X132640000Y-96590000D03*
X142880000Y-106940000D03*
D16*
X155486100Y-109124750D03*
D14*
X141450000Y-100000000D03*
X137140000Y-94180000D03*
X145980000Y-115900000D03*
X158230000Y-111270000D03*
X123630000Y-110100000D03*
X157590000Y-107050000D03*
X133340000Y-113750000D03*
X126560000Y-115890000D03*
X171810000Y-99960000D03*
X159670000Y-100860000D03*
X142800000Y-103470000D03*
X164010000Y-108810000D03*
X129263900Y-100574925D03*
X159750000Y-107020000D03*
X148160000Y-109110000D03*
X161200000Y-115870000D03*
X130770000Y-99440000D03*
X131960000Y-102880000D03*
X170490000Y-115840000D03*
D16*
X161832928Y-100964747D03*
D14*
X166940000Y-105790000D03*
X143440000Y-115880000D03*
X128130000Y-115870000D03*
X135570000Y-104590000D03*
X125880000Y-110750000D03*
D16*
X169107231Y-95835600D03*
D14*
X144280000Y-108560000D03*
X126730000Y-94180000D03*
X172670000Y-99950000D03*
X146680000Y-96690000D03*
X161850000Y-107100000D03*
D16*
X155473400Y-102955725D03*
D14*
X151050000Y-115920000D03*
X157620000Y-104970000D03*
X166910000Y-104000000D03*
X169100000Y-99280000D03*
X173330000Y-98590000D03*
X163740000Y-115880000D03*
X173300000Y-99510000D03*
X151260000Y-104940000D03*
X161790000Y-99660000D03*
X150950000Y-109100000D03*
X143350000Y-101950000D03*
X140070000Y-108480000D03*
X133240000Y-115890000D03*
X159910000Y-113840000D03*
X169140000Y-100170000D03*
X166300000Y-115900000D03*
X123890000Y-114710000D03*
X141490000Y-106400000D03*
X144250000Y-104950000D03*
X166850000Y-98070000D03*
X167420000Y-101830000D03*
X141410000Y-102450000D03*
X168430000Y-96340000D03*
X156130000Y-94120000D03*
X169480000Y-109460000D03*
X151320000Y-98870000D03*
D16*
X143421100Y-112153700D03*
D14*
X161190000Y-94110000D03*
X128760000Y-95220000D03*
X171300000Y-94210000D03*
X153390000Y-102910000D03*
X134000000Y-102900000D03*
X170150000Y-110070000D03*
X149180000Y-110440000D03*
X140880000Y-115870000D03*
D16*
X159750125Y-102955725D03*
D14*
X153400000Y-98870000D03*
D16*
X168821100Y-113512600D03*
D14*
X167770000Y-104230000D03*
X153390000Y-104930000D03*
X162050000Y-113870000D03*
X142290000Y-108400000D03*
X123610000Y-102450000D03*
X164060000Y-95850000D03*
X158660000Y-115860000D03*
X123620000Y-107510000D03*
X138400000Y-115880000D03*
X144290000Y-103210000D03*
X148480000Y-94120000D03*
D16*
X149136100Y-107076875D03*
D14*
X128530000Y-113800000D03*
X166260000Y-94130000D03*
D16*
X155495625Y-105003600D03*
X164135821Y-97443929D03*
D14*
X169480000Y-94190000D03*
D16*
X162630000Y-96300000D03*
D14*
X142280000Y-113230000D03*
X123620000Y-99840000D03*
D16*
X161823400Y-109137450D03*
D14*
X126000000Y-109010000D03*
X159630000Y-109180000D03*
X134190000Y-96670000D03*
X159750000Y-111150000D03*
X131310000Y-99350000D03*
X169210000Y-110320000D03*
X171080000Y-110060000D03*
X167750000Y-112510000D03*
X138530000Y-114050000D03*
X170910000Y-98750000D03*
X171900000Y-110060000D03*
X169080000Y-97250000D03*
X167590000Y-99320000D03*
X167470000Y-98500000D03*
X131220000Y-96720000D03*
X166690000Y-113940000D03*
D16*
X149225512Y-103004619D03*
X155486100Y-100882450D03*
D14*
X144290000Y-106890000D03*
X172720000Y-110070000D03*
X173040000Y-114860000D03*
X151050000Y-94150000D03*
X169160000Y-101020000D03*
X161890000Y-111060000D03*
X166530000Y-95770000D03*
X163740000Y-94120000D03*
X136520000Y-95240000D03*
X140930000Y-114210000D03*
X169340000Y-108040000D03*
X167540000Y-102940000D03*
X153390000Y-109110000D03*
X167060000Y-107590000D03*
X167612336Y-100562293D03*
D15*
X137750000Y-105340000D03*
D16*
X155486100Y-107076875D03*
D14*
X135750000Y-115900000D03*
X159590000Y-98980000D03*
X124930000Y-115660000D03*
X153610000Y-94110000D03*
D16*
X149136100Y-109137450D03*
D14*
X157580000Y-98840000D03*
X123640000Y-97210000D03*
D16*
X149184996Y-100882832D03*
D14*
X157590000Y-109100000D03*
X126910000Y-105830000D03*
X171790000Y-115750000D03*
X134730000Y-106240000D03*
X157660000Y-102930000D03*
D16*
X160430000Y-96320000D03*
D14*
X135530000Y-102710000D03*
X169980000Y-99960000D03*
X169390000Y-101920000D03*
D16*
X128816100Y-103739950D03*
D14*
X133950000Y-104420000D03*
X135680000Y-107830000D03*
D16*
X159781875Y-105003600D03*
D14*
X167880000Y-105810000D03*
X173370000Y-110570000D03*
X161200000Y-95510000D03*
X151290000Y-102900000D03*
X147010000Y-106910000D03*
X136610000Y-100010000D03*
X148520000Y-115880000D03*
X149190000Y-98860000D03*
X169040000Y-105890000D03*
X173310000Y-112730000D03*
%TO.N,Net-(Q1-S)*%
X127810000Y-99570000D03*
X139150000Y-105470000D03*
D17*
%TO.N,/EN*%
X140210000Y-106970820D03*
D14*
%TO.N,/D+*%
X132667850Y-102916122D03*
X161330200Y-113900000D03*
%TO.N,/D-*%
X160669800Y-113900000D03*
X133328250Y-102916122D03*
%TO.N,VBUS*%
X127630000Y-101860000D03*
X133930000Y-99410000D03*
X136721000Y-101201461D03*
X128000000Y-102990000D03*
D15*
X136700000Y-105300000D03*
D14*
X134460000Y-99420000D03*
X129290000Y-101720000D03*
D16*
%TO.N,/VBACKUP*%
X134054850Y-111829850D03*
X156051250Y-114001550D03*
D15*
%TO.N,/ANT*%
X166920000Y-104900000D03*
X161540000Y-96290000D03*
%TO.N,/VCC_RF*%
X156140000Y-96230000D03*
X166140000Y-97400000D03*
D17*
%TO.N,/RX2*%
X147072350Y-109131100D03*
%TO.N,/TX2*%
X147072350Y-111194850D03*
%TO.N,/TX*%
X167751125Y-111769525D03*
%TO.N,/RX*%
X167128825Y-111147225D03*
%TO.N,/SDA*%
X142151100Y-105956100D03*
X167128825Y-109277150D03*
%TO.N,/SCL*%
X167128825Y-108343700D03*
%TO.N,/~{RESET}*%
X142786100Y-104368600D03*
X141253250Y-109842250D03*
X164017325Y-104921050D03*
D14*
%TO.N,/SAFEBOOT*%
X166660000Y-102690000D03*
D17*
%TO.N,/EXTINT*%
X143738600Y-111353600D03*
D14*
X166710000Y-101070000D03*
D17*
X143421100Y-102781100D03*
%TO.N,/TP*%
X166670000Y-99480000D03*
X167128825Y-106778425D03*
D14*
%TO.N,Net-(MS1-GPIOSDA)*%
X145710000Y-96690000D03*
%TO.N,Net-(MS1-GPIOSCL)*%
X159020000Y-96050000D03*
%TD*%
%TA.AperFunction,Conductor*%
%TO.N,GND*%
G36*
X138899319Y-93847313D02*
G01*
X138935864Y-93897613D01*
X138935864Y-93959787D01*
X138901661Y-94006866D01*
X138902260Y-94007567D01*
X138899341Y-94010059D01*
X138899324Y-94010084D01*
X138899254Y-94010134D01*
X138777633Y-94131755D01*
X138676539Y-94270899D01*
X138598454Y-94424148D01*
X138545308Y-94587715D01*
X138545304Y-94587731D01*
X138518400Y-94757596D01*
X138518400Y-94929603D01*
X138545304Y-95099468D01*
X138545308Y-95099484D01*
X138598454Y-95263051D01*
X138676539Y-95416300D01*
X138777633Y-95555444D01*
X138899255Y-95677066D01*
X138967020Y-95726300D01*
X139037563Y-95777553D01*
X139038399Y-95778160D01*
X139038398Y-95778160D01*
X139191648Y-95856245D01*
X139355215Y-95909391D01*
X139355218Y-95909391D01*
X139355225Y-95909394D01*
X139355230Y-95909394D01*
X139355231Y-95909395D01*
X139525096Y-95936299D01*
X139525101Y-95936300D01*
X139525103Y-95936300D01*
X139697099Y-95936300D01*
X139697103Y-95936299D01*
X139866975Y-95909394D01*
X140030551Y-95856245D01*
X140183800Y-95778161D01*
X140322946Y-95677065D01*
X140444565Y-95555446D01*
X140545661Y-95416300D01*
X140623745Y-95263051D01*
X140676894Y-95099475D01*
X140703800Y-94929597D01*
X140703800Y-94757603D01*
X140676894Y-94587725D01*
X140675274Y-94582739D01*
X140623745Y-94424148D01*
X140583958Y-94346064D01*
X140545661Y-94270900D01*
X140444565Y-94131754D01*
X140322946Y-94010135D01*
X140322876Y-94010084D01*
X140322858Y-94010059D01*
X140319940Y-94007567D01*
X140320538Y-94006866D01*
X140286334Y-93959782D01*
X140286338Y-93897607D01*
X140322886Y-93847309D01*
X140382012Y-93828100D01*
X141380188Y-93828100D01*
X141439319Y-93847313D01*
X141475864Y-93897613D01*
X141475864Y-93959787D01*
X141441661Y-94006866D01*
X141442260Y-94007567D01*
X141439341Y-94010059D01*
X141439324Y-94010084D01*
X141439254Y-94010134D01*
X141317633Y-94131755D01*
X141216539Y-94270899D01*
X141138454Y-94424148D01*
X141085308Y-94587715D01*
X141085304Y-94587731D01*
X141058400Y-94757596D01*
X141058400Y-94929603D01*
X141085304Y-95099468D01*
X141085308Y-95099484D01*
X141138454Y-95263051D01*
X141216539Y-95416300D01*
X141317633Y-95555444D01*
X141439255Y-95677066D01*
X141507020Y-95726300D01*
X141577563Y-95777553D01*
X141578399Y-95778160D01*
X141578398Y-95778160D01*
X141731648Y-95856245D01*
X141895215Y-95909391D01*
X141895218Y-95909391D01*
X141895225Y-95909394D01*
X141895230Y-95909394D01*
X141895231Y-95909395D01*
X142065096Y-95936299D01*
X142065101Y-95936300D01*
X142065103Y-95936300D01*
X142237099Y-95936300D01*
X142237103Y-95936299D01*
X142406975Y-95909394D01*
X142570551Y-95856245D01*
X142723800Y-95778161D01*
X142862946Y-95677065D01*
X142984565Y-95555446D01*
X143085661Y-95416300D01*
X143163745Y-95263051D01*
X143216894Y-95099475D01*
X143243800Y-94929597D01*
X143243800Y-94757603D01*
X143216894Y-94587725D01*
X143215274Y-94582739D01*
X143163745Y-94424148D01*
X143123958Y-94346064D01*
X143085661Y-94270900D01*
X142984565Y-94131754D01*
X142862946Y-94010135D01*
X142862876Y-94010084D01*
X142862858Y-94010059D01*
X142859940Y-94007567D01*
X142860538Y-94006866D01*
X142826334Y-93959782D01*
X142826338Y-93897607D01*
X142862886Y-93847309D01*
X142922012Y-93828100D01*
X143920188Y-93828100D01*
X143979319Y-93847313D01*
X144015864Y-93897613D01*
X144015864Y-93959787D01*
X143981661Y-94006866D01*
X143982260Y-94007567D01*
X143979341Y-94010059D01*
X143979324Y-94010084D01*
X143979254Y-94010134D01*
X143857633Y-94131755D01*
X143756539Y-94270899D01*
X143678454Y-94424148D01*
X143625308Y-94587715D01*
X143625304Y-94587731D01*
X143598400Y-94757596D01*
X143598400Y-94929603D01*
X143625304Y-95099468D01*
X143625308Y-95099484D01*
X143678454Y-95263051D01*
X143756539Y-95416300D01*
X143857633Y-95555444D01*
X143979255Y-95677066D01*
X144047020Y-95726300D01*
X144117563Y-95777553D01*
X144118399Y-95778160D01*
X144118398Y-95778160D01*
X144271648Y-95856245D01*
X144435215Y-95909391D01*
X144435218Y-95909391D01*
X144435225Y-95909394D01*
X144435230Y-95909394D01*
X144435231Y-95909395D01*
X144605096Y-95936299D01*
X144605101Y-95936300D01*
X144605103Y-95936300D01*
X144777099Y-95936300D01*
X144777103Y-95936299D01*
X144946975Y-95909394D01*
X145110551Y-95856245D01*
X145263800Y-95778161D01*
X145402946Y-95677065D01*
X145524565Y-95555446D01*
X145625661Y-95416300D01*
X145703745Y-95263051D01*
X145756894Y-95099475D01*
X145783800Y-94929597D01*
X145783800Y-94757603D01*
X145756894Y-94587725D01*
X145755274Y-94582739D01*
X145703745Y-94424148D01*
X145663958Y-94346064D01*
X145625661Y-94270900D01*
X145524565Y-94131754D01*
X145402946Y-94010135D01*
X145402876Y-94010084D01*
X145402858Y-94010059D01*
X145399940Y-94007567D01*
X145400538Y-94006866D01*
X145366334Y-93959782D01*
X145366338Y-93897607D01*
X145402886Y-93847309D01*
X145462012Y-93828100D01*
X146460188Y-93828100D01*
X146519319Y-93847313D01*
X146555864Y-93897613D01*
X146555864Y-93959787D01*
X146521661Y-94006866D01*
X146522260Y-94007567D01*
X146519341Y-94010059D01*
X146519324Y-94010084D01*
X146519254Y-94010134D01*
X146397633Y-94131755D01*
X146296539Y-94270899D01*
X146218454Y-94424148D01*
X146165308Y-94587715D01*
X146165304Y-94587731D01*
X146138400Y-94757596D01*
X146138400Y-94929603D01*
X146165304Y-95099468D01*
X146165308Y-95099484D01*
X146218454Y-95263051D01*
X146296539Y-95416300D01*
X146397633Y-95555444D01*
X146519255Y-95677066D01*
X146587020Y-95726300D01*
X146657563Y-95777553D01*
X146658399Y-95778160D01*
X146658398Y-95778160D01*
X146811648Y-95856245D01*
X146975215Y-95909391D01*
X146975218Y-95909391D01*
X146975225Y-95909394D01*
X146975230Y-95909394D01*
X146975231Y-95909395D01*
X147145096Y-95936299D01*
X147145101Y-95936300D01*
X147145103Y-95936300D01*
X147317099Y-95936300D01*
X147317103Y-95936299D01*
X147486975Y-95909394D01*
X147650551Y-95856245D01*
X147803800Y-95778161D01*
X147942946Y-95677065D01*
X148064565Y-95555446D01*
X148165661Y-95416300D01*
X148243745Y-95263051D01*
X148296894Y-95099475D01*
X148323800Y-94929597D01*
X148323800Y-94757603D01*
X148296894Y-94587725D01*
X148295274Y-94582739D01*
X148243745Y-94424148D01*
X148203958Y-94346064D01*
X148165661Y-94270900D01*
X148064565Y-94131754D01*
X147942946Y-94010135D01*
X147942876Y-94010084D01*
X147942858Y-94010059D01*
X147939940Y-94007567D01*
X147940538Y-94006866D01*
X147906334Y-93959782D01*
X147906338Y-93897607D01*
X147942886Y-93847309D01*
X148002012Y-93828100D01*
X149000188Y-93828100D01*
X149059319Y-93847313D01*
X149095864Y-93897613D01*
X149095864Y-93959787D01*
X149061661Y-94006866D01*
X149062260Y-94007567D01*
X149059341Y-94010059D01*
X149059324Y-94010084D01*
X149059254Y-94010134D01*
X148937633Y-94131755D01*
X148836539Y-94270899D01*
X148758454Y-94424148D01*
X148705308Y-94587715D01*
X148705304Y-94587731D01*
X148678400Y-94757596D01*
X148678400Y-94929603D01*
X148705304Y-95099468D01*
X148705308Y-95099484D01*
X148758454Y-95263051D01*
X148836539Y-95416300D01*
X148937633Y-95555444D01*
X149059255Y-95677066D01*
X149127020Y-95726300D01*
X149197563Y-95777553D01*
X149198399Y-95778160D01*
X149198398Y-95778160D01*
X149351648Y-95856245D01*
X149515215Y-95909391D01*
X149515218Y-95909391D01*
X149515225Y-95909394D01*
X149515230Y-95909394D01*
X149515231Y-95909395D01*
X149685096Y-95936299D01*
X149685101Y-95936300D01*
X149685103Y-95936300D01*
X149857099Y-95936300D01*
X149857103Y-95936299D01*
X150026975Y-95909394D01*
X150190551Y-95856245D01*
X150343800Y-95778161D01*
X150482946Y-95677065D01*
X150604565Y-95555446D01*
X150705661Y-95416300D01*
X150783745Y-95263051D01*
X150836894Y-95099475D01*
X150863800Y-94929597D01*
X150863800Y-94757603D01*
X150836894Y-94587725D01*
X150835274Y-94582739D01*
X150783745Y-94424148D01*
X150743958Y-94346064D01*
X150705661Y-94270900D01*
X150604565Y-94131754D01*
X150482946Y-94010135D01*
X150482876Y-94010084D01*
X150482858Y-94010059D01*
X150479940Y-94007567D01*
X150480538Y-94006866D01*
X150446334Y-93959782D01*
X150446338Y-93897607D01*
X150482886Y-93847309D01*
X150542012Y-93828100D01*
X151540188Y-93828100D01*
X151599319Y-93847313D01*
X151635864Y-93897613D01*
X151635864Y-93959787D01*
X151601661Y-94006866D01*
X151602260Y-94007567D01*
X151599341Y-94010059D01*
X151599324Y-94010084D01*
X151599254Y-94010134D01*
X151477633Y-94131755D01*
X151376539Y-94270899D01*
X151298454Y-94424148D01*
X151245308Y-94587715D01*
X151245304Y-94587731D01*
X151218400Y-94757596D01*
X151218400Y-94929603D01*
X151245304Y-95099468D01*
X151245308Y-95099484D01*
X151298454Y-95263051D01*
X151376539Y-95416300D01*
X151477633Y-95555444D01*
X151599255Y-95677066D01*
X151667020Y-95726300D01*
X151737563Y-95777553D01*
X151738399Y-95778160D01*
X151738398Y-95778160D01*
X151891648Y-95856245D01*
X152055215Y-95909391D01*
X152055218Y-95909391D01*
X152055225Y-95909394D01*
X152055230Y-95909394D01*
X152055231Y-95909395D01*
X152225096Y-95936299D01*
X152225101Y-95936300D01*
X152225103Y-95936300D01*
X152397099Y-95936300D01*
X152397103Y-95936299D01*
X152566975Y-95909394D01*
X152730551Y-95856245D01*
X152883800Y-95778161D01*
X153022946Y-95677065D01*
X153144565Y-95555446D01*
X153245661Y-95416300D01*
X153323745Y-95263051D01*
X153376894Y-95099475D01*
X153403800Y-94929597D01*
X153403800Y-94757603D01*
X153376894Y-94587725D01*
X153375274Y-94582739D01*
X153323745Y-94424148D01*
X153283958Y-94346064D01*
X153245661Y-94270900D01*
X153144565Y-94131754D01*
X153022946Y-94010135D01*
X153022876Y-94010084D01*
X153022858Y-94010059D01*
X153019940Y-94007567D01*
X153020538Y-94006866D01*
X152986334Y-93959782D01*
X152986338Y-93897607D01*
X153022886Y-93847309D01*
X153082012Y-93828100D01*
X154080188Y-93828100D01*
X154139319Y-93847313D01*
X154175864Y-93897613D01*
X154175864Y-93959787D01*
X154141661Y-94006866D01*
X154142260Y-94007567D01*
X154139341Y-94010059D01*
X154139324Y-94010084D01*
X154139254Y-94010134D01*
X154017633Y-94131755D01*
X153916539Y-94270899D01*
X153838454Y-94424148D01*
X153785308Y-94587715D01*
X153785304Y-94587731D01*
X153758400Y-94757596D01*
X153758400Y-94929603D01*
X153785304Y-95099468D01*
X153785308Y-95099484D01*
X153838454Y-95263051D01*
X153916539Y-95416300D01*
X154017633Y-95555444D01*
X154139255Y-95677066D01*
X154207020Y-95726300D01*
X154277563Y-95777553D01*
X154278399Y-95778160D01*
X154278398Y-95778160D01*
X154431648Y-95856245D01*
X154595215Y-95909391D01*
X154595218Y-95909391D01*
X154595225Y-95909394D01*
X154595230Y-95909394D01*
X154595231Y-95909395D01*
X154765096Y-95936299D01*
X154765101Y-95936300D01*
X154765103Y-95936300D01*
X154937099Y-95936300D01*
X154937103Y-95936299D01*
X155106975Y-95909394D01*
X155270551Y-95856245D01*
X155423800Y-95778161D01*
X155562946Y-95677065D01*
X155684565Y-95555446D01*
X155785661Y-95416300D01*
X155863745Y-95263051D01*
X155916894Y-95099475D01*
X155943800Y-94929597D01*
X155943800Y-94757603D01*
X155916894Y-94587725D01*
X155915274Y-94582739D01*
X155863745Y-94424148D01*
X155823958Y-94346064D01*
X155785661Y-94270900D01*
X155684565Y-94131754D01*
X155562946Y-94010135D01*
X155562876Y-94010084D01*
X155562858Y-94010059D01*
X155559940Y-94007567D01*
X155560538Y-94006866D01*
X155526334Y-93959782D01*
X155526338Y-93897607D01*
X155562886Y-93847309D01*
X155622012Y-93828100D01*
X156620188Y-93828100D01*
X156679319Y-93847313D01*
X156715864Y-93897613D01*
X156715864Y-93959787D01*
X156681661Y-94006866D01*
X156682260Y-94007567D01*
X156679341Y-94010059D01*
X156679324Y-94010084D01*
X156679254Y-94010134D01*
X156557633Y-94131755D01*
X156456539Y-94270899D01*
X156378454Y-94424148D01*
X156325308Y-94587715D01*
X156325304Y-94587731D01*
X156298400Y-94757596D01*
X156298400Y-94929603D01*
X156325304Y-95099468D01*
X156325308Y-95099484D01*
X156378454Y-95263051D01*
X156456539Y-95416300D01*
X156557633Y-95555444D01*
X156679255Y-95677066D01*
X156747020Y-95726300D01*
X156817563Y-95777553D01*
X156818399Y-95778160D01*
X156818398Y-95778160D01*
X156971648Y-95856245D01*
X157135215Y-95909391D01*
X157135218Y-95909391D01*
X157135225Y-95909394D01*
X157135230Y-95909394D01*
X157135231Y-95909395D01*
X157305096Y-95936299D01*
X157305101Y-95936300D01*
X157305103Y-95936300D01*
X157477099Y-95936300D01*
X157477103Y-95936299D01*
X157646975Y-95909394D01*
X157810551Y-95856245D01*
X157963800Y-95778161D01*
X158102946Y-95677065D01*
X158224565Y-95555446D01*
X158325661Y-95416300D01*
X158403745Y-95263051D01*
X158456894Y-95099475D01*
X158483800Y-94929597D01*
X158483800Y-94757603D01*
X158456894Y-94587725D01*
X158455274Y-94582739D01*
X158403745Y-94424148D01*
X158363958Y-94346064D01*
X158325661Y-94270900D01*
X158224565Y-94131754D01*
X158102946Y-94010135D01*
X158102876Y-94010084D01*
X158102858Y-94010059D01*
X158099940Y-94007567D01*
X158100538Y-94006866D01*
X158066334Y-93959782D01*
X158066338Y-93897607D01*
X158102886Y-93847309D01*
X158162012Y-93828100D01*
X159160188Y-93828100D01*
X159219319Y-93847313D01*
X159255864Y-93897613D01*
X159255864Y-93959787D01*
X159221661Y-94006866D01*
X159222260Y-94007567D01*
X159219341Y-94010059D01*
X159219324Y-94010084D01*
X159219254Y-94010134D01*
X159097633Y-94131755D01*
X158996539Y-94270899D01*
X158918454Y-94424148D01*
X158865308Y-94587715D01*
X158865304Y-94587731D01*
X158838400Y-94757596D01*
X158838400Y-94929603D01*
X158865304Y-95099468D01*
X158865308Y-95099484D01*
X158918454Y-95263051D01*
X158996538Y-95416299D01*
X159011541Y-95436949D01*
X159030753Y-95496080D01*
X159011539Y-95555211D01*
X158961239Y-95591756D01*
X158956192Y-95593251D01*
X158843331Y-95623493D01*
X158738968Y-95683747D01*
X158738967Y-95683748D01*
X158738966Y-95683749D01*
X158653749Y-95768966D01*
X158653748Y-95768967D01*
X158653747Y-95768968D01*
X158593493Y-95873331D01*
X158562300Y-95989740D01*
X158562300Y-96110259D01*
X158593493Y-96226668D01*
X158614754Y-96263493D01*
X158653749Y-96331034D01*
X158738966Y-96416251D01*
X158738968Y-96416252D01*
X158843331Y-96476506D01*
X158843335Y-96476508D01*
X158959743Y-96507700D01*
X159080257Y-96507700D01*
X159196665Y-96476508D01*
X159301034Y-96416251D01*
X159386251Y-96331034D01*
X159446508Y-96226665D01*
X159477700Y-96110257D01*
X159477700Y-95989743D01*
X159477700Y-95983678D01*
X159496913Y-95924547D01*
X159547213Y-95888002D01*
X159609387Y-95888002D01*
X159675225Y-95909394D01*
X159675230Y-95909394D01*
X159675231Y-95909395D01*
X159845096Y-95936299D01*
X159845101Y-95936300D01*
X159845103Y-95936300D01*
X160017099Y-95936300D01*
X160017103Y-95936299D01*
X160186975Y-95909394D01*
X160350551Y-95856245D01*
X160503800Y-95778161D01*
X160642946Y-95677065D01*
X160764565Y-95555446D01*
X160865661Y-95416300D01*
X160943745Y-95263051D01*
X160996894Y-95099475D01*
X161023800Y-94929597D01*
X161023800Y-94757603D01*
X160996894Y-94587725D01*
X160995274Y-94582739D01*
X160943745Y-94424148D01*
X160903958Y-94346064D01*
X160865661Y-94270900D01*
X160764565Y-94131754D01*
X160642946Y-94010135D01*
X160642876Y-94010084D01*
X160642858Y-94010059D01*
X160639940Y-94007567D01*
X160640538Y-94006866D01*
X160606334Y-93959782D01*
X160606338Y-93897607D01*
X160642886Y-93847309D01*
X160702012Y-93828100D01*
X161700188Y-93828100D01*
X161759319Y-93847313D01*
X161795864Y-93897613D01*
X161795864Y-93959787D01*
X161761661Y-94006866D01*
X161762260Y-94007567D01*
X161759341Y-94010059D01*
X161759324Y-94010084D01*
X161759254Y-94010134D01*
X161637633Y-94131755D01*
X161536539Y-94270899D01*
X161458454Y-94424148D01*
X161405308Y-94587715D01*
X161405304Y-94587731D01*
X161378400Y-94757596D01*
X161378400Y-94929603D01*
X161405304Y-95099468D01*
X161405308Y-95099484D01*
X161458454Y-95263051D01*
X161536539Y-95416300D01*
X161637633Y-95555444D01*
X161698972Y-95616783D01*
X161727198Y-95672181D01*
X161717472Y-95733589D01*
X161673508Y-95777553D01*
X161612854Y-95787159D01*
X161612854Y-95787161D01*
X161612849Y-95787160D01*
X161612100Y-95787279D01*
X161609412Y-95786708D01*
X161606313Y-95786300D01*
X161473687Y-95786300D01*
X161473684Y-95786300D01*
X161345575Y-95820628D01*
X161230723Y-95886938D01*
X161230722Y-95886939D01*
X161230721Y-95886940D01*
X161136940Y-95980721D01*
X161136939Y-95980722D01*
X161136938Y-95980723D01*
X161070628Y-96095575D01*
X161036300Y-96223684D01*
X161036300Y-96356315D01*
X161061430Y-96450099D01*
X161066667Y-96469644D01*
X161070628Y-96484424D01*
X161102299Y-96539279D01*
X161132773Y-96592062D01*
X161140237Y-96604989D01*
X161138793Y-96605822D01*
X161156835Y-96656759D01*
X161139182Y-96716374D01*
X161115818Y-96734304D01*
X161089999Y-96760000D01*
X161082484Y-98341541D01*
X161082485Y-98341541D01*
X161082485Y-98341542D01*
X162003444Y-98345918D01*
X162003444Y-98345917D01*
X161999065Y-97333684D01*
X165636300Y-97333684D01*
X165636300Y-97466315D01*
X165670628Y-97594424D01*
X165721559Y-97682638D01*
X165736940Y-97709279D01*
X165830721Y-97803060D01*
X165830723Y-97803061D01*
X165945575Y-97869371D01*
X165945576Y-97869371D01*
X165945579Y-97869373D01*
X166073687Y-97903700D01*
X166206313Y-97903700D01*
X166334421Y-97869373D01*
X166449279Y-97803060D01*
X166543060Y-97709279D01*
X166609373Y-97594421D01*
X166643700Y-97466313D01*
X166643700Y-97333687D01*
X166609373Y-97205579D01*
X166543060Y-97090721D01*
X166449279Y-96996940D01*
X166449276Y-96996938D01*
X166334424Y-96930628D01*
X166334421Y-96930627D01*
X166300099Y-96921430D01*
X166206315Y-96896300D01*
X166206313Y-96896300D01*
X166073687Y-96896300D01*
X166073684Y-96896300D01*
X165945575Y-96930628D01*
X165830723Y-96996938D01*
X165830722Y-96996939D01*
X165830721Y-96996940D01*
X165736940Y-97090721D01*
X165736939Y-97090722D01*
X165736938Y-97090723D01*
X165670628Y-97205575D01*
X165636300Y-97333684D01*
X161999065Y-97333684D01*
X161999038Y-97327528D01*
X161998333Y-97164811D01*
X161996582Y-96760000D01*
X161996581Y-96760000D01*
X161983429Y-96746905D01*
X161964599Y-96740787D01*
X161928054Y-96690487D01*
X161928054Y-96628313D01*
X161940195Y-96605238D01*
X161939763Y-96604989D01*
X161947227Y-96592062D01*
X162009373Y-96484421D01*
X162043700Y-96356313D01*
X162043700Y-96223687D01*
X162009373Y-96095579D01*
X161960559Y-96011031D01*
X161956923Y-95993927D01*
X169840600Y-95993927D01*
X169840600Y-96233272D01*
X169878037Y-96469644D01*
X169878041Y-96469660D01*
X169951996Y-96697270D01*
X170060647Y-96910507D01*
X170060652Y-96910516D01*
X170104619Y-96971031D01*
X170201325Y-97104137D01*
X170201327Y-97104139D01*
X170370561Y-97273373D01*
X170564184Y-97414048D01*
X170564192Y-97414052D01*
X170777429Y-97522703D01*
X171005039Y-97596658D01*
X171005042Y-97596658D01*
X171005049Y-97596661D01*
X171005054Y-97596661D01*
X171005055Y-97596662D01*
X171241427Y-97634099D01*
X171241432Y-97634100D01*
X171241434Y-97634100D01*
X171480768Y-97634100D01*
X171480772Y-97634099D01*
X171627153Y-97610915D01*
X171717151Y-97596661D01*
X171944770Y-97522703D01*
X172158016Y-97414048D01*
X172351639Y-97273373D01*
X172520873Y-97104139D01*
X172661548Y-96910516D01*
X172770203Y-96697270D01*
X172844161Y-96469651D01*
X172881600Y-96233266D01*
X172881600Y-95993934D01*
X172879507Y-95980722D01*
X172844162Y-95757555D01*
X172844161Y-95757554D01*
X172844161Y-95757549D01*
X172820182Y-95683749D01*
X172770203Y-95529929D01*
X172661552Y-95316692D01*
X172661548Y-95316684D01*
X172520873Y-95123061D01*
X172351639Y-94953827D01*
X172351637Y-94953825D01*
X172168132Y-94820502D01*
X172158016Y-94813152D01*
X172158010Y-94813149D01*
X172158007Y-94813147D01*
X171944770Y-94704496D01*
X171717160Y-94630541D01*
X171717144Y-94630537D01*
X171480772Y-94593100D01*
X171480766Y-94593100D01*
X171241434Y-94593100D01*
X171241427Y-94593100D01*
X171005055Y-94630537D01*
X171005039Y-94630541D01*
X170777429Y-94704496D01*
X170564192Y-94813147D01*
X170564181Y-94813154D01*
X170370562Y-94953825D01*
X170201325Y-95123062D01*
X170060654Y-95316681D01*
X170060647Y-95316692D01*
X169951996Y-95529929D01*
X169878041Y-95757539D01*
X169878037Y-95757555D01*
X169840600Y-95993927D01*
X161956923Y-95993927D01*
X161947633Y-95950218D01*
X161972921Y-95893419D01*
X162026766Y-95862331D01*
X162078769Y-95865057D01*
X162215215Y-95909391D01*
X162215218Y-95909391D01*
X162215225Y-95909394D01*
X162215230Y-95909394D01*
X162215231Y-95909395D01*
X162385096Y-95936299D01*
X162385101Y-95936300D01*
X162385103Y-95936300D01*
X162557099Y-95936300D01*
X162557103Y-95936299D01*
X162726975Y-95909394D01*
X162890551Y-95856245D01*
X163043800Y-95778161D01*
X163182946Y-95677065D01*
X163304565Y-95555446D01*
X163405661Y-95416300D01*
X163483745Y-95263051D01*
X163536894Y-95099475D01*
X163563800Y-94929597D01*
X163563800Y-94757603D01*
X163536894Y-94587725D01*
X163535274Y-94582739D01*
X163483745Y-94424148D01*
X163443958Y-94346064D01*
X163405661Y-94270900D01*
X163304565Y-94131754D01*
X163182946Y-94010135D01*
X163182876Y-94010084D01*
X163182858Y-94010059D01*
X163179940Y-94007567D01*
X163180538Y-94006866D01*
X163146334Y-93959782D01*
X163146338Y-93897607D01*
X163182886Y-93847309D01*
X163242012Y-93828100D01*
X164240188Y-93828100D01*
X164299319Y-93847313D01*
X164335864Y-93897613D01*
X164335864Y-93959787D01*
X164301661Y-94006866D01*
X164302260Y-94007567D01*
X164299341Y-94010059D01*
X164299324Y-94010084D01*
X164299254Y-94010134D01*
X164177633Y-94131755D01*
X164076539Y-94270899D01*
X163998454Y-94424148D01*
X163945308Y-94587715D01*
X163945304Y-94587731D01*
X163918400Y-94757596D01*
X163918400Y-94929603D01*
X163945304Y-95099468D01*
X163945308Y-95099484D01*
X163998454Y-95263051D01*
X164076539Y-95416300D01*
X164177633Y-95555444D01*
X164299255Y-95677066D01*
X164367020Y-95726300D01*
X164437563Y-95777553D01*
X164438399Y-95778160D01*
X164438398Y-95778160D01*
X164591648Y-95856245D01*
X164755215Y-95909391D01*
X164755218Y-95909391D01*
X164755225Y-95909394D01*
X164755230Y-95909394D01*
X164755231Y-95909395D01*
X164925096Y-95936299D01*
X164925101Y-95936300D01*
X164925103Y-95936300D01*
X165097099Y-95936300D01*
X165097103Y-95936299D01*
X165266975Y-95909394D01*
X165430551Y-95856245D01*
X165583800Y-95778161D01*
X165722946Y-95677065D01*
X165844565Y-95555446D01*
X165945661Y-95416300D01*
X166023745Y-95263051D01*
X166076894Y-95099475D01*
X166103800Y-94929597D01*
X166103800Y-94757603D01*
X166076894Y-94587725D01*
X166075274Y-94582739D01*
X166023745Y-94424148D01*
X165983958Y-94346064D01*
X165945661Y-94270900D01*
X165844565Y-94131754D01*
X165722946Y-94010135D01*
X165722876Y-94010084D01*
X165722858Y-94010059D01*
X165719940Y-94007567D01*
X165720538Y-94006866D01*
X165686334Y-93959782D01*
X165686338Y-93897607D01*
X165722886Y-93847309D01*
X165782012Y-93828100D01*
X166780188Y-93828100D01*
X166839319Y-93847313D01*
X166875864Y-93897613D01*
X166875864Y-93959787D01*
X166841661Y-94006866D01*
X166842260Y-94007567D01*
X166839341Y-94010059D01*
X166839324Y-94010084D01*
X166839254Y-94010134D01*
X166717633Y-94131755D01*
X166616539Y-94270899D01*
X166538454Y-94424148D01*
X166485308Y-94587715D01*
X166485304Y-94587731D01*
X166458400Y-94757596D01*
X166458400Y-94929603D01*
X166485304Y-95099468D01*
X166485308Y-95099484D01*
X166538454Y-95263051D01*
X166616539Y-95416300D01*
X166717633Y-95555444D01*
X166839255Y-95677066D01*
X166907020Y-95726300D01*
X166977563Y-95777553D01*
X166978399Y-95778160D01*
X166978398Y-95778160D01*
X167131648Y-95856245D01*
X167295215Y-95909391D01*
X167295218Y-95909391D01*
X167295225Y-95909394D01*
X167295230Y-95909394D01*
X167295231Y-95909395D01*
X167465096Y-95936299D01*
X167465101Y-95936300D01*
X167465103Y-95936300D01*
X167637099Y-95936300D01*
X167637103Y-95936299D01*
X167806975Y-95909394D01*
X167812367Y-95907641D01*
X167853416Y-95894305D01*
X167970551Y-95856245D01*
X168006135Y-95838114D01*
X168123800Y-95778161D01*
X168262946Y-95677065D01*
X168384565Y-95555446D01*
X168485661Y-95416300D01*
X168563745Y-95263051D01*
X168616894Y-95099475D01*
X168643800Y-94929597D01*
X168643800Y-94757603D01*
X168616894Y-94587725D01*
X168615274Y-94582739D01*
X168563745Y-94424148D01*
X168523958Y-94346064D01*
X168485661Y-94270900D01*
X168384565Y-94131754D01*
X168262946Y-94010135D01*
X168262876Y-94010084D01*
X168262858Y-94010059D01*
X168259940Y-94007567D01*
X168260538Y-94006866D01*
X168226334Y-93959782D01*
X168226338Y-93897607D01*
X168262886Y-93847309D01*
X168322012Y-93828100D01*
X171316225Y-93828100D01*
X171358068Y-93828100D01*
X171364141Y-93828283D01*
X171630513Y-93844396D01*
X171642563Y-93845859D01*
X171902078Y-93893417D01*
X171913854Y-93896319D01*
X172165754Y-93974815D01*
X172177090Y-93979115D01*
X172417677Y-94087393D01*
X172428421Y-94093031D01*
X172654213Y-94229528D01*
X172664192Y-94236416D01*
X172842038Y-94375749D01*
X172871878Y-94399127D01*
X172880971Y-94407183D01*
X173067516Y-94593728D01*
X173075572Y-94602821D01*
X173238281Y-94810504D01*
X173245173Y-94820490D01*
X173381664Y-95046272D01*
X173387306Y-95057022D01*
X173495580Y-95297598D01*
X173499887Y-95308954D01*
X173524405Y-95387635D01*
X173578377Y-95560836D01*
X173581284Y-95572631D01*
X173628839Y-95832131D01*
X173630303Y-95844191D01*
X173646416Y-96110558D01*
X173646600Y-96116632D01*
X173646600Y-99099377D01*
X173646600Y-99879377D01*
X173646600Y-99980623D01*
X173662648Y-100019367D01*
X173685344Y-100074162D01*
X173756939Y-100145757D01*
X173765175Y-100151260D01*
X173763861Y-100153226D01*
X173800672Y-100184662D01*
X173815500Y-100237231D01*
X173815500Y-102749400D01*
X173796287Y-102808531D01*
X173745987Y-102845076D01*
X173714900Y-102850000D01*
X169580001Y-102850000D01*
X169580000Y-102850000D01*
X169670176Y-104662528D01*
X169679876Y-104857507D01*
X169680000Y-104862506D01*
X169680000Y-105139236D01*
X169679989Y-105140737D01*
X169656487Y-106715404D01*
X169650000Y-107150000D01*
X173715091Y-107157617D01*
X173774184Y-107176940D01*
X173810634Y-107227308D01*
X173815500Y-107258216D01*
X173815500Y-109772769D01*
X173796287Y-109831900D01*
X173764160Y-109857227D01*
X173765173Y-109858742D01*
X173756937Y-109864244D01*
X173685344Y-109935837D01*
X173646600Y-110029377D01*
X173646600Y-113890567D01*
X173646416Y-113896641D01*
X173630303Y-114163008D01*
X173628839Y-114175068D01*
X173581284Y-114434568D01*
X173578377Y-114446363D01*
X173499888Y-114698243D01*
X173495580Y-114709601D01*
X173387306Y-114950177D01*
X173381661Y-114960934D01*
X173245182Y-115186697D01*
X173238281Y-115196695D01*
X173075572Y-115404378D01*
X173067516Y-115413471D01*
X172880971Y-115600016D01*
X172871878Y-115608072D01*
X172664195Y-115770781D01*
X172654201Y-115777678D01*
X172492476Y-115875446D01*
X172428434Y-115914161D01*
X172417677Y-115919806D01*
X172177101Y-116028080D01*
X172165743Y-116032388D01*
X171913863Y-116110877D01*
X171902068Y-116113784D01*
X171642568Y-116161339D01*
X171630508Y-116162803D01*
X171364142Y-116178916D01*
X171358068Y-116179100D01*
X168322012Y-116179100D01*
X168262881Y-116159887D01*
X168226336Y-116109587D01*
X168226336Y-116047413D01*
X168260538Y-116000333D01*
X168259940Y-115999633D01*
X168262858Y-115997140D01*
X168262876Y-115997116D01*
X168262887Y-115997107D01*
X168262946Y-115997065D01*
X168384565Y-115875446D01*
X168485661Y-115736300D01*
X168563745Y-115583051D01*
X168616894Y-115419475D01*
X168643800Y-115249597D01*
X168643800Y-115077603D01*
X168625321Y-114960934D01*
X168616895Y-114907731D01*
X168616894Y-114907730D01*
X168616894Y-114907725D01*
X168616891Y-114907715D01*
X168563745Y-114744148D01*
X168521464Y-114661168D01*
X168485661Y-114590900D01*
X168393210Y-114463653D01*
X168384566Y-114451755D01*
X168262944Y-114330133D01*
X168123800Y-114229039D01*
X168123801Y-114229039D01*
X167970551Y-114150954D01*
X167806984Y-114097808D01*
X167806968Y-114097804D01*
X167637103Y-114070900D01*
X167637097Y-114070900D01*
X167465103Y-114070900D01*
X167465096Y-114070900D01*
X167295231Y-114097804D01*
X167295215Y-114097808D01*
X167131648Y-114150954D01*
X166978399Y-114229039D01*
X166839255Y-114330133D01*
X166717633Y-114451755D01*
X166616539Y-114590899D01*
X166538454Y-114744148D01*
X166485308Y-114907715D01*
X166485304Y-114907731D01*
X166458400Y-115077596D01*
X166458400Y-115249603D01*
X166485304Y-115419468D01*
X166485308Y-115419484D01*
X166538454Y-115583051D01*
X166616539Y-115736300D01*
X166717633Y-115875444D01*
X166839254Y-115997065D01*
X166839324Y-115997116D01*
X166839341Y-115997140D01*
X166842260Y-115999633D01*
X166841661Y-116000333D01*
X166875866Y-116047418D01*
X166875862Y-116109593D01*
X166839314Y-116159891D01*
X166780188Y-116179100D01*
X165782012Y-116179100D01*
X165722881Y-116159887D01*
X165686336Y-116109587D01*
X165686336Y-116047413D01*
X165720538Y-116000333D01*
X165719940Y-115999633D01*
X165722858Y-115997140D01*
X165722876Y-115997116D01*
X165722887Y-115997107D01*
X165722946Y-115997065D01*
X165844565Y-115875446D01*
X165945661Y-115736300D01*
X166023745Y-115583051D01*
X166076894Y-115419475D01*
X166103800Y-115249597D01*
X166103800Y-115077603D01*
X166085321Y-114960934D01*
X166076895Y-114907731D01*
X166076894Y-114907730D01*
X166076894Y-114907725D01*
X166076891Y-114907715D01*
X166023745Y-114744148D01*
X165981464Y-114661168D01*
X165945661Y-114590900D01*
X165853210Y-114463653D01*
X165844566Y-114451755D01*
X165722944Y-114330133D01*
X165583800Y-114229039D01*
X165583801Y-114229039D01*
X165430551Y-114150954D01*
X165266984Y-114097808D01*
X165266968Y-114097804D01*
X165097103Y-114070900D01*
X165097097Y-114070900D01*
X164925103Y-114070900D01*
X164925096Y-114070900D01*
X164755231Y-114097804D01*
X164755215Y-114097808D01*
X164591648Y-114150954D01*
X164438399Y-114229039D01*
X164299255Y-114330133D01*
X164177633Y-114451755D01*
X164076539Y-114590899D01*
X163998454Y-114744148D01*
X163945308Y-114907715D01*
X163945304Y-114907731D01*
X163918400Y-115077596D01*
X163918400Y-115249603D01*
X163945304Y-115419468D01*
X163945308Y-115419484D01*
X163998454Y-115583051D01*
X164076539Y-115736300D01*
X164177633Y-115875444D01*
X164299254Y-115997065D01*
X164299324Y-115997116D01*
X164299341Y-115997140D01*
X164302260Y-115999633D01*
X164301661Y-116000333D01*
X164335866Y-116047418D01*
X164335862Y-116109593D01*
X164299314Y-116159891D01*
X164240188Y-116179100D01*
X163242012Y-116179100D01*
X163182881Y-116159887D01*
X163146336Y-116109587D01*
X163146336Y-116047413D01*
X163180538Y-116000333D01*
X163179940Y-115999633D01*
X163182858Y-115997140D01*
X163182876Y-115997116D01*
X163182887Y-115997107D01*
X163182946Y-115997065D01*
X163304565Y-115875446D01*
X163405661Y-115736300D01*
X163483745Y-115583051D01*
X163536894Y-115419475D01*
X163563800Y-115249597D01*
X163563800Y-115077603D01*
X163545321Y-114960934D01*
X163536895Y-114907731D01*
X163536894Y-114907730D01*
X163536894Y-114907725D01*
X163536891Y-114907715D01*
X163483745Y-114744148D01*
X163441464Y-114661168D01*
X163405661Y-114590900D01*
X163313210Y-114463653D01*
X163304566Y-114451755D01*
X163182944Y-114330133D01*
X163043800Y-114229039D01*
X163043801Y-114229039D01*
X162890551Y-114150954D01*
X162726984Y-114097808D01*
X162726968Y-114097804D01*
X162557103Y-114070900D01*
X162557097Y-114070900D01*
X162385103Y-114070900D01*
X162385096Y-114070900D01*
X162215231Y-114097804D01*
X162215215Y-114097808D01*
X162051648Y-114150954D01*
X161898398Y-114229039D01*
X161885679Y-114238280D01*
X161826547Y-114257490D01*
X161767417Y-114238274D01*
X161730874Y-114187972D01*
X161730877Y-114125798D01*
X161739427Y-114106596D01*
X161756708Y-114076665D01*
X161787900Y-113960257D01*
X161787900Y-113839743D01*
X161770264Y-113773927D01*
X169840600Y-113773927D01*
X169840600Y-114013272D01*
X169878037Y-114249644D01*
X169878041Y-114249660D01*
X169951996Y-114477270D01*
X170060647Y-114690507D01*
X170060652Y-114690516D01*
X170099618Y-114744148D01*
X170201325Y-114884137D01*
X170201327Y-114884139D01*
X170370561Y-115053373D01*
X170564184Y-115194048D01*
X170564192Y-115194052D01*
X170777429Y-115302703D01*
X171005039Y-115376658D01*
X171005042Y-115376658D01*
X171005049Y-115376661D01*
X171005054Y-115376661D01*
X171005055Y-115376662D01*
X171241427Y-115414099D01*
X171241432Y-115414100D01*
X171241434Y-115414100D01*
X171480768Y-115414100D01*
X171480772Y-115414099D01*
X171621565Y-115391800D01*
X171717151Y-115376661D01*
X171944770Y-115302703D01*
X172158016Y-115194048D01*
X172351639Y-115053373D01*
X172520873Y-114884139D01*
X172661548Y-114690516D01*
X172770203Y-114477270D01*
X172844161Y-114249651D01*
X172881600Y-114013266D01*
X172881600Y-113773934D01*
X172881559Y-113773678D01*
X172844162Y-113537555D01*
X172844161Y-113537554D01*
X172844161Y-113537549D01*
X172844158Y-113537539D01*
X172770203Y-113309929D01*
X172675691Y-113124442D01*
X172661548Y-113096684D01*
X172520873Y-112903061D01*
X172351639Y-112733827D01*
X172351637Y-112733825D01*
X172221631Y-112639371D01*
X172158016Y-112593152D01*
X172158010Y-112593149D01*
X172158007Y-112593147D01*
X171944770Y-112484496D01*
X171717160Y-112410541D01*
X171717144Y-112410537D01*
X171480772Y-112373100D01*
X171480766Y-112373100D01*
X171241434Y-112373100D01*
X171241427Y-112373100D01*
X171005055Y-112410537D01*
X171005039Y-112410541D01*
X170777429Y-112484496D01*
X170564192Y-112593147D01*
X170564181Y-112593154D01*
X170370562Y-112733825D01*
X170201325Y-112903062D01*
X170060654Y-113096681D01*
X170060647Y-113096692D01*
X169951996Y-113309929D01*
X169878041Y-113537539D01*
X169878037Y-113537555D01*
X169840600Y-113773927D01*
X161770264Y-113773927D01*
X161756708Y-113723335D01*
X161751634Y-113714547D01*
X161696452Y-113618968D01*
X161696451Y-113618966D01*
X161611234Y-113533749D01*
X161611231Y-113533747D01*
X161506868Y-113473493D01*
X161506865Y-113473492D01*
X161475678Y-113465135D01*
X161390459Y-113442300D01*
X161390457Y-113442300D01*
X161269943Y-113442300D01*
X161269940Y-113442300D01*
X161153531Y-113473493D01*
X161050300Y-113533094D01*
X160989484Y-113546021D01*
X160949700Y-113533094D01*
X160846468Y-113473493D01*
X160846465Y-113473492D01*
X160815278Y-113465135D01*
X160730059Y-113442300D01*
X160730057Y-113442300D01*
X160609543Y-113442300D01*
X160609540Y-113442300D01*
X160493131Y-113473493D01*
X160388768Y-113533747D01*
X160388767Y-113533748D01*
X160388766Y-113533749D01*
X160303549Y-113618966D01*
X160303548Y-113618967D01*
X160303547Y-113618968D01*
X160243293Y-113723331D01*
X160212100Y-113839740D01*
X160212100Y-113960256D01*
X160212961Y-113966798D01*
X160211160Y-113967035D01*
X160208349Y-114020528D01*
X160169215Y-114068841D01*
X160109157Y-114084924D01*
X160098698Y-114083824D01*
X160017101Y-114070900D01*
X160017097Y-114070900D01*
X159845103Y-114070900D01*
X159845096Y-114070900D01*
X159675231Y-114097804D01*
X159675222Y-114097806D01*
X159669651Y-114099617D01*
X159607476Y-114099616D01*
X159557177Y-114063070D01*
X159537965Y-114003939D01*
X159557179Y-113944808D01*
X159588263Y-113916819D01*
X159617134Y-113900151D01*
X159702351Y-113814934D01*
X159762608Y-113710565D01*
X159793800Y-113594157D01*
X159793800Y-113473643D01*
X159762608Y-113357235D01*
X159702351Y-113252866D01*
X159617134Y-113167649D01*
X159617131Y-113167647D01*
X159512768Y-113107393D01*
X159512765Y-113107392D01*
X159472792Y-113096681D01*
X159396359Y-113076200D01*
X159396357Y-113076200D01*
X159275843Y-113076200D01*
X159275840Y-113076200D01*
X159159431Y-113107393D01*
X159055068Y-113167647D01*
X159055067Y-113167648D01*
X159055066Y-113167649D01*
X158969849Y-113252866D01*
X158969848Y-113252867D01*
X158969847Y-113252868D01*
X158909593Y-113357231D01*
X158878400Y-113473640D01*
X158878400Y-113594159D01*
X158909593Y-113710568D01*
X158969847Y-113814931D01*
X158969849Y-113814934D01*
X159055066Y-113900151D01*
X159055068Y-113900152D01*
X159159431Y-113960406D01*
X159159435Y-113960408D01*
X159275843Y-113991600D01*
X159402951Y-113991600D01*
X159402951Y-113993863D01*
X159454201Y-114003353D01*
X159497006Y-114048446D01*
X159505131Y-114110087D01*
X159475474Y-114164731D01*
X159451885Y-114181405D01*
X159358399Y-114229039D01*
X159219255Y-114330133D01*
X159097633Y-114451755D01*
X158996539Y-114590899D01*
X158918454Y-114744148D01*
X158865308Y-114907715D01*
X158865304Y-114907731D01*
X158838400Y-115077596D01*
X158838400Y-115249603D01*
X158865304Y-115419468D01*
X158865308Y-115419484D01*
X158918454Y-115583051D01*
X158996539Y-115736300D01*
X159097633Y-115875444D01*
X159219254Y-115997065D01*
X159219324Y-115997116D01*
X159219341Y-115997140D01*
X159222260Y-115999633D01*
X159221661Y-116000333D01*
X159255866Y-116047418D01*
X159255862Y-116109593D01*
X159219314Y-116159891D01*
X159160188Y-116179100D01*
X158162012Y-116179100D01*
X158102881Y-116159887D01*
X158066336Y-116109587D01*
X158066336Y-116047413D01*
X158100538Y-116000333D01*
X158099940Y-115999633D01*
X158102858Y-115997140D01*
X158102876Y-115997116D01*
X158102887Y-115997107D01*
X158102946Y-115997065D01*
X158224565Y-115875446D01*
X158325661Y-115736300D01*
X158403745Y-115583051D01*
X158456894Y-115419475D01*
X158483800Y-115249597D01*
X158483800Y-115077603D01*
X158465321Y-114960934D01*
X158456895Y-114907731D01*
X158456894Y-114907730D01*
X158456894Y-114907725D01*
X158456891Y-114907715D01*
X158403745Y-114744148D01*
X158361464Y-114661168D01*
X158325661Y-114590900D01*
X158233210Y-114463653D01*
X158224566Y-114451755D01*
X158102944Y-114330133D01*
X157963800Y-114229039D01*
X157963801Y-114229039D01*
X157810551Y-114150954D01*
X157646984Y-114097808D01*
X157646968Y-114097804D01*
X157477103Y-114070900D01*
X157477097Y-114070900D01*
X157305103Y-114070900D01*
X157305096Y-114070900D01*
X157135231Y-114097804D01*
X157135215Y-114097808D01*
X156971648Y-114150954D01*
X156818398Y-114229039D01*
X156699606Y-114315347D01*
X156640475Y-114334560D01*
X156581344Y-114315347D01*
X156544799Y-114265047D01*
X156543303Y-114207922D01*
X156548649Y-114187972D01*
X156579950Y-114071155D01*
X156579950Y-113931945D01*
X156578535Y-113926665D01*
X156543921Y-113797482D01*
X156543919Y-113797477D01*
X156474316Y-113676922D01*
X156375877Y-113578483D01*
X156255322Y-113508880D01*
X156255317Y-113508878D01*
X156120859Y-113472850D01*
X156120855Y-113472850D01*
X155981645Y-113472850D01*
X155981640Y-113472850D01*
X155847182Y-113508878D01*
X155847177Y-113508880D01*
X155726622Y-113578483D01*
X155726621Y-113578485D01*
X155628185Y-113676920D01*
X155585422Y-113750988D01*
X155539217Y-113792590D01*
X155477383Y-113799089D01*
X155423539Y-113768001D01*
X155398251Y-113711202D01*
X155397700Y-113700687D01*
X155397700Y-113689743D01*
X155397699Y-113689740D01*
X155366508Y-113573335D01*
X155350738Y-113546021D01*
X155308951Y-113473643D01*
X155306251Y-113468966D01*
X155221034Y-113383749D01*
X155221031Y-113383747D01*
X155116668Y-113323493D01*
X155116665Y-113323492D01*
X155066052Y-113309930D01*
X155000259Y-113292300D01*
X155000257Y-113292300D01*
X154879743Y-113292300D01*
X154879740Y-113292300D01*
X154763331Y-113323493D01*
X154658968Y-113383747D01*
X154658967Y-113383748D01*
X154658966Y-113383749D01*
X154573749Y-113468966D01*
X154573748Y-113468967D01*
X154573747Y-113468968D01*
X154513493Y-113573331D01*
X154482300Y-113689740D01*
X154482300Y-113714547D01*
X154463087Y-113773678D01*
X154412787Y-113810223D01*
X154350613Y-113810223D01*
X154300313Y-113773678D01*
X154284528Y-113740586D01*
X154284072Y-113738885D01*
X154266508Y-113673335D01*
X154235119Y-113618968D01*
X154211747Y-113578485D01*
X154206251Y-113568966D01*
X154121034Y-113483749D01*
X154103525Y-113473640D01*
X154016668Y-113423493D01*
X154016665Y-113423492D01*
X153985478Y-113415135D01*
X153900259Y-113392300D01*
X153900257Y-113392300D01*
X153779743Y-113392300D01*
X153779740Y-113392300D01*
X153663331Y-113423493D01*
X153558968Y-113483747D01*
X153558967Y-113483748D01*
X153558966Y-113483749D01*
X153473749Y-113568966D01*
X153473748Y-113568967D01*
X153473747Y-113568968D01*
X153413493Y-113673331D01*
X153382300Y-113789740D01*
X153382300Y-113910259D01*
X153397450Y-113966798D01*
X153407402Y-114003939D01*
X153413493Y-114026668D01*
X153459635Y-114106588D01*
X153473749Y-114131034D01*
X153558966Y-114216251D01*
X153558968Y-114216252D01*
X153663331Y-114276506D01*
X153663335Y-114276508D01*
X153779743Y-114307700D01*
X153900257Y-114307700D01*
X153900262Y-114307699D01*
X153901562Y-114307351D01*
X153902524Y-114307401D01*
X153906798Y-114306839D01*
X153906902Y-114307630D01*
X153963651Y-114310603D01*
X154011971Y-114349729D01*
X154028064Y-114409784D01*
X154008989Y-114463653D01*
X153916539Y-114590899D01*
X153838454Y-114744148D01*
X153785308Y-114907715D01*
X153785304Y-114907731D01*
X153758400Y-115077596D01*
X153758400Y-115249603D01*
X153785304Y-115419468D01*
X153785308Y-115419484D01*
X153838454Y-115583051D01*
X153916539Y-115736300D01*
X154017633Y-115875444D01*
X154139254Y-115997065D01*
X154139324Y-115997116D01*
X154139341Y-115997140D01*
X154142260Y-115999633D01*
X154141661Y-116000333D01*
X154175866Y-116047418D01*
X154175862Y-116109593D01*
X154139314Y-116159891D01*
X154080188Y-116179100D01*
X153082012Y-116179100D01*
X153022881Y-116159887D01*
X152986336Y-116109587D01*
X152986336Y-116047413D01*
X153020538Y-116000333D01*
X153019940Y-115999633D01*
X153022858Y-115997140D01*
X153022876Y-115997116D01*
X153022887Y-115997107D01*
X153022946Y-115997065D01*
X153144565Y-115875446D01*
X153245661Y-115736300D01*
X153323745Y-115583051D01*
X153376894Y-115419475D01*
X153403800Y-115249597D01*
X153403800Y-115077603D01*
X153385321Y-114960934D01*
X153376895Y-114907731D01*
X153376894Y-114907730D01*
X153376894Y-114907725D01*
X153376891Y-114907715D01*
X153323745Y-114744148D01*
X153281464Y-114661168D01*
X153245661Y-114590900D01*
X153153210Y-114463653D01*
X153144566Y-114451755D01*
X153022944Y-114330133D01*
X152883800Y-114229039D01*
X152883801Y-114229039D01*
X152730551Y-114150954D01*
X152566984Y-114097808D01*
X152566968Y-114097804D01*
X152397103Y-114070900D01*
X152397097Y-114070900D01*
X152225103Y-114070900D01*
X152225096Y-114070900D01*
X152055231Y-114097804D01*
X152055215Y-114097808D01*
X151891648Y-114150954D01*
X151738399Y-114229039D01*
X151599255Y-114330133D01*
X151477633Y-114451755D01*
X151376539Y-114590899D01*
X151298454Y-114744148D01*
X151245308Y-114907715D01*
X151245304Y-114907731D01*
X151218400Y-115077596D01*
X151218400Y-115249603D01*
X151245304Y-115419468D01*
X151245308Y-115419484D01*
X151298454Y-115583051D01*
X151376539Y-115736300D01*
X151477633Y-115875444D01*
X151599254Y-115997065D01*
X151599324Y-115997116D01*
X151599341Y-115997140D01*
X151602260Y-115999633D01*
X151601661Y-116000333D01*
X151635866Y-116047418D01*
X151635862Y-116109593D01*
X151599314Y-116159891D01*
X151540188Y-116179100D01*
X150542012Y-116179100D01*
X150482881Y-116159887D01*
X150446336Y-116109587D01*
X150446336Y-116047413D01*
X150480538Y-116000333D01*
X150479940Y-115999633D01*
X150482858Y-115997140D01*
X150482876Y-115997116D01*
X150482887Y-115997107D01*
X150482946Y-115997065D01*
X150604565Y-115875446D01*
X150705661Y-115736300D01*
X150783745Y-115583051D01*
X150836894Y-115419475D01*
X150863800Y-115249597D01*
X150863800Y-115077603D01*
X150845321Y-114960934D01*
X150836895Y-114907731D01*
X150836894Y-114907730D01*
X150836894Y-114907725D01*
X150836891Y-114907715D01*
X150783745Y-114744148D01*
X150741464Y-114661168D01*
X150705661Y-114590900D01*
X150613210Y-114463653D01*
X150604566Y-114451755D01*
X150482944Y-114330133D01*
X150343800Y-114229039D01*
X150343801Y-114229039D01*
X150190551Y-114150954D01*
X150026984Y-114097808D01*
X150026968Y-114097804D01*
X149857103Y-114070900D01*
X149857097Y-114070900D01*
X149685103Y-114070900D01*
X149685096Y-114070900D01*
X149515231Y-114097804D01*
X149515215Y-114097808D01*
X149351648Y-114150954D01*
X149198399Y-114229039D01*
X149059255Y-114330133D01*
X148937633Y-114451755D01*
X148836539Y-114590899D01*
X148758454Y-114744148D01*
X148705308Y-114907715D01*
X148705304Y-114907731D01*
X148678400Y-115077596D01*
X148678400Y-115249603D01*
X148705304Y-115419468D01*
X148705308Y-115419484D01*
X148758454Y-115583051D01*
X148836539Y-115736300D01*
X148937633Y-115875444D01*
X149059254Y-115997065D01*
X149059324Y-115997116D01*
X149059341Y-115997140D01*
X149062260Y-115999633D01*
X149061661Y-116000333D01*
X149095866Y-116047418D01*
X149095862Y-116109593D01*
X149059314Y-116159891D01*
X149000188Y-116179100D01*
X148002012Y-116179100D01*
X147942881Y-116159887D01*
X147906336Y-116109587D01*
X147906336Y-116047413D01*
X147940538Y-116000333D01*
X147939940Y-115999633D01*
X147942858Y-115997140D01*
X147942876Y-115997116D01*
X147942887Y-115997107D01*
X147942946Y-115997065D01*
X148064565Y-115875446D01*
X148165661Y-115736300D01*
X148243745Y-115583051D01*
X148296894Y-115419475D01*
X148323800Y-115249597D01*
X148323800Y-115077603D01*
X148305321Y-114960934D01*
X148296895Y-114907731D01*
X148296894Y-114907730D01*
X148296894Y-114907725D01*
X148296891Y-114907715D01*
X148243745Y-114744148D01*
X148201464Y-114661168D01*
X148165661Y-114590900D01*
X148073210Y-114463653D01*
X148064566Y-114451755D01*
X147942944Y-114330133D01*
X147803800Y-114229039D01*
X147803801Y-114229039D01*
X147650551Y-114150954D01*
X147486984Y-114097808D01*
X147486968Y-114097804D01*
X147317103Y-114070900D01*
X147317097Y-114070900D01*
X147145103Y-114070900D01*
X147145096Y-114070900D01*
X146975231Y-114097804D01*
X146975215Y-114097808D01*
X146811648Y-114150954D01*
X146658399Y-114229039D01*
X146519255Y-114330133D01*
X146397633Y-114451755D01*
X146296539Y-114590899D01*
X146218454Y-114744148D01*
X146165308Y-114907715D01*
X146165304Y-114907731D01*
X146138400Y-115077596D01*
X146138400Y-115249603D01*
X146165304Y-115419468D01*
X146165308Y-115419484D01*
X146218454Y-115583051D01*
X146296539Y-115736300D01*
X146397633Y-115875444D01*
X146519254Y-115997065D01*
X146519324Y-115997116D01*
X146519341Y-115997140D01*
X146522260Y-115999633D01*
X146521661Y-116000333D01*
X146555866Y-116047418D01*
X146555862Y-116109593D01*
X146519314Y-116159891D01*
X146460188Y-116179100D01*
X145462012Y-116179100D01*
X145402881Y-116159887D01*
X145366336Y-116109587D01*
X145366336Y-116047413D01*
X145400538Y-116000333D01*
X145399940Y-115999633D01*
X145402858Y-115997140D01*
X145402876Y-115997116D01*
X145402887Y-115997107D01*
X145402946Y-115997065D01*
X145524565Y-115875446D01*
X145625661Y-115736300D01*
X145703745Y-115583051D01*
X145756894Y-115419475D01*
X145783800Y-115249597D01*
X145783800Y-115077603D01*
X145765321Y-114960934D01*
X145756895Y-114907731D01*
X145756894Y-114907730D01*
X145756894Y-114907725D01*
X145756891Y-114907715D01*
X145703745Y-114744148D01*
X145661464Y-114661168D01*
X145625661Y-114590900D01*
X145533210Y-114463653D01*
X145524566Y-114451755D01*
X145402944Y-114330133D01*
X145263800Y-114229039D01*
X145263801Y-114229039D01*
X145110551Y-114150954D01*
X144946984Y-114097808D01*
X144946968Y-114097804D01*
X144777103Y-114070900D01*
X144777097Y-114070900D01*
X144605103Y-114070900D01*
X144605096Y-114070900D01*
X144435231Y-114097804D01*
X144435215Y-114097808D01*
X144271648Y-114150954D01*
X144118399Y-114229039D01*
X143979255Y-114330133D01*
X143857633Y-114451755D01*
X143756539Y-114590899D01*
X143678454Y-114744148D01*
X143625308Y-114907715D01*
X143625304Y-114907731D01*
X143598400Y-115077596D01*
X143598400Y-115249603D01*
X143625304Y-115419468D01*
X143625308Y-115419484D01*
X143678454Y-115583051D01*
X143756539Y-115736300D01*
X143857633Y-115875444D01*
X143979254Y-115997065D01*
X143979324Y-115997116D01*
X143979341Y-115997140D01*
X143982260Y-115999633D01*
X143981661Y-116000333D01*
X144015866Y-116047418D01*
X144015862Y-116109593D01*
X143979314Y-116159891D01*
X143920188Y-116179100D01*
X142922012Y-116179100D01*
X142862881Y-116159887D01*
X142826336Y-116109587D01*
X142826336Y-116047413D01*
X142860538Y-116000333D01*
X142859940Y-115999633D01*
X142862858Y-115997140D01*
X142862876Y-115997116D01*
X142862887Y-115997107D01*
X142862946Y-115997065D01*
X142984565Y-115875446D01*
X143085661Y-115736300D01*
X143163745Y-115583051D01*
X143216894Y-115419475D01*
X143243800Y-115249597D01*
X143243800Y-115077603D01*
X143225321Y-114960934D01*
X143216895Y-114907731D01*
X143216894Y-114907730D01*
X143216894Y-114907725D01*
X143216891Y-114907715D01*
X143163745Y-114744148D01*
X143121464Y-114661168D01*
X143085661Y-114590900D01*
X142993210Y-114463653D01*
X142984566Y-114451755D01*
X142862944Y-114330133D01*
X142723800Y-114229039D01*
X142723801Y-114229039D01*
X142570551Y-114150954D01*
X142406984Y-114097808D01*
X142406968Y-114097804D01*
X142237103Y-114070900D01*
X142237097Y-114070900D01*
X142065103Y-114070900D01*
X142065096Y-114070900D01*
X141895231Y-114097804D01*
X141895215Y-114097808D01*
X141731648Y-114150954D01*
X141578399Y-114229039D01*
X141439255Y-114330133D01*
X141317633Y-114451755D01*
X141216539Y-114590899D01*
X141138454Y-114744148D01*
X141085308Y-114907715D01*
X141085304Y-114907731D01*
X141058400Y-115077596D01*
X141058400Y-115249603D01*
X141085304Y-115419468D01*
X141085308Y-115419484D01*
X141138454Y-115583051D01*
X141216539Y-115736300D01*
X141317633Y-115875444D01*
X141439254Y-115997065D01*
X141439324Y-115997116D01*
X141439341Y-115997140D01*
X141442260Y-115999633D01*
X141441661Y-116000333D01*
X141475866Y-116047418D01*
X141475862Y-116109593D01*
X141439314Y-116159891D01*
X141380188Y-116179100D01*
X140382012Y-116179100D01*
X140322881Y-116159887D01*
X140286336Y-116109587D01*
X140286336Y-116047413D01*
X140320538Y-116000333D01*
X140319940Y-115999633D01*
X140322858Y-115997140D01*
X140322876Y-115997116D01*
X140322887Y-115997107D01*
X140322946Y-115997065D01*
X140444565Y-115875446D01*
X140545661Y-115736300D01*
X140623745Y-115583051D01*
X140676894Y-115419475D01*
X140703800Y-115249597D01*
X140703800Y-115077603D01*
X140685321Y-114960934D01*
X140676895Y-114907731D01*
X140676894Y-114907730D01*
X140676894Y-114907725D01*
X140676891Y-114907715D01*
X140623745Y-114744148D01*
X140581464Y-114661168D01*
X140545661Y-114590900D01*
X140453210Y-114463653D01*
X140444566Y-114451755D01*
X140322944Y-114330133D01*
X140183800Y-114229039D01*
X140183801Y-114229039D01*
X140030551Y-114150954D01*
X139866984Y-114097808D01*
X139866968Y-114097804D01*
X139697103Y-114070900D01*
X139697097Y-114070900D01*
X139525103Y-114070900D01*
X139525096Y-114070900D01*
X139355231Y-114097804D01*
X139355215Y-114097808D01*
X139191648Y-114150954D01*
X139038399Y-114229039D01*
X138899255Y-114330133D01*
X138777633Y-114451755D01*
X138676539Y-114590899D01*
X138598454Y-114744148D01*
X138545308Y-114907715D01*
X138545304Y-114907731D01*
X138518400Y-115077596D01*
X138518400Y-115249603D01*
X138545304Y-115419468D01*
X138545308Y-115419484D01*
X138598454Y-115583051D01*
X138676539Y-115736300D01*
X138777633Y-115875444D01*
X138899254Y-115997065D01*
X138899324Y-115997116D01*
X138899341Y-115997140D01*
X138902260Y-115999633D01*
X138901661Y-116000333D01*
X138935866Y-116047418D01*
X138935862Y-116109593D01*
X138899314Y-116159891D01*
X138840188Y-116179100D01*
X137979971Y-116179100D01*
X137920840Y-116159887D01*
X137884295Y-116109587D01*
X137884295Y-116047413D01*
X137908836Y-116007365D01*
X137978016Y-115938184D01*
X138088026Y-115786766D01*
X138088028Y-115786763D01*
X138172990Y-115620018D01*
X138230820Y-115442034D01*
X138230823Y-115442020D01*
X138238778Y-115391800D01*
X137516698Y-115391800D01*
X137537025Y-115356593D01*
X137571100Y-115229426D01*
X137571100Y-115097774D01*
X137537025Y-114970607D01*
X137516698Y-114935400D01*
X138238778Y-114935400D01*
X138230823Y-114885179D01*
X138230820Y-114885165D01*
X138172990Y-114707181D01*
X138088028Y-114540436D01*
X138088026Y-114540433D01*
X137978016Y-114389015D01*
X137845684Y-114256683D01*
X137694266Y-114146673D01*
X137694263Y-114146671D01*
X137527518Y-114061709D01*
X137349534Y-114003879D01*
X137349520Y-114003876D01*
X137299300Y-113995921D01*
X137299300Y-114718001D01*
X137264093Y-114697675D01*
X137136926Y-114663600D01*
X137005274Y-114663600D01*
X136878107Y-114697675D01*
X136842900Y-114718001D01*
X136842900Y-113995921D01*
X136822621Y-113978601D01*
X136790135Y-113925589D01*
X136790784Y-113876066D01*
X136797700Y-113850257D01*
X136797700Y-113729743D01*
X136766508Y-113613335D01*
X136706251Y-113508966D01*
X136621034Y-113423749D01*
X136620589Y-113423492D01*
X136516668Y-113363493D01*
X136516665Y-113363492D01*
X136485478Y-113355135D01*
X136400259Y-113332300D01*
X136400257Y-113332300D01*
X136279743Y-113332300D01*
X136279740Y-113332300D01*
X136163331Y-113363493D01*
X136058968Y-113423747D01*
X136058967Y-113423748D01*
X136058966Y-113423749D01*
X135973749Y-113508966D01*
X135973748Y-113508967D01*
X135973747Y-113508968D01*
X135913493Y-113613331D01*
X135882300Y-113729740D01*
X135882300Y-113850259D01*
X135902774Y-113926665D01*
X135911815Y-113960408D01*
X135913493Y-113966668D01*
X135973747Y-114071031D01*
X135973749Y-114071034D01*
X136058966Y-114156251D01*
X136159698Y-114214408D01*
X136201301Y-114260612D01*
X136207800Y-114322446D01*
X136180535Y-114372663D01*
X136164183Y-114389015D01*
X136054173Y-114540433D01*
X136054171Y-114540436D01*
X135969209Y-114707181D01*
X135911379Y-114885165D01*
X135911376Y-114885179D01*
X135903422Y-114935400D01*
X136625502Y-114935400D01*
X136605175Y-114970607D01*
X136571100Y-115097774D01*
X136571100Y-115229426D01*
X136605175Y-115356593D01*
X136625502Y-115391800D01*
X135903422Y-115391800D01*
X135911376Y-115442020D01*
X135911379Y-115442034D01*
X135969209Y-115620018D01*
X136054171Y-115786763D01*
X136054173Y-115786766D01*
X136164183Y-115938184D01*
X136233364Y-116007365D01*
X136261590Y-116062763D01*
X136251864Y-116124171D01*
X136207900Y-116168135D01*
X136162229Y-116179100D01*
X135302012Y-116179100D01*
X135242881Y-116159887D01*
X135206336Y-116109587D01*
X135206336Y-116047413D01*
X135240538Y-116000333D01*
X135239940Y-115999633D01*
X135242858Y-115997140D01*
X135242876Y-115997116D01*
X135242887Y-115997107D01*
X135242946Y-115997065D01*
X135364565Y-115875446D01*
X135465661Y-115736300D01*
X135543745Y-115583051D01*
X135596894Y-115419475D01*
X135623800Y-115249597D01*
X135623800Y-115077603D01*
X135605321Y-114960934D01*
X135596895Y-114907731D01*
X135596894Y-114907730D01*
X135596894Y-114907725D01*
X135596891Y-114907715D01*
X135543745Y-114744148D01*
X135501464Y-114661168D01*
X135465661Y-114590900D01*
X135373210Y-114463653D01*
X135364566Y-114451755D01*
X135242944Y-114330133D01*
X135103800Y-114229039D01*
X135103801Y-114229039D01*
X134950551Y-114150954D01*
X134786984Y-114097808D01*
X134786968Y-114097804D01*
X134617103Y-114070900D01*
X134617097Y-114070900D01*
X134445103Y-114070900D01*
X134445096Y-114070900D01*
X134275231Y-114097804D01*
X134275215Y-114097808D01*
X134111648Y-114150954D01*
X133958399Y-114229039D01*
X133819255Y-114330133D01*
X133697633Y-114451755D01*
X133596539Y-114590899D01*
X133518454Y-114744148D01*
X133465308Y-114907715D01*
X133465304Y-114907731D01*
X133438400Y-115077596D01*
X133438400Y-115249603D01*
X133465304Y-115419468D01*
X133465308Y-115419484D01*
X133518454Y-115583051D01*
X133596539Y-115736300D01*
X133697633Y-115875444D01*
X133819254Y-115997065D01*
X133819324Y-115997116D01*
X133819341Y-115997140D01*
X133822260Y-115999633D01*
X133821661Y-116000333D01*
X133855866Y-116047418D01*
X133855862Y-116109593D01*
X133819314Y-116159891D01*
X133760188Y-116179100D01*
X132762012Y-116179100D01*
X132702881Y-116159887D01*
X132666336Y-116109587D01*
X132666336Y-116047413D01*
X132700538Y-116000333D01*
X132699940Y-115999633D01*
X132702858Y-115997140D01*
X132702876Y-115997116D01*
X132702887Y-115997107D01*
X132702946Y-115997065D01*
X132824565Y-115875446D01*
X132925661Y-115736300D01*
X133003745Y-115583051D01*
X133056894Y-115419475D01*
X133083800Y-115249597D01*
X133083800Y-115077603D01*
X133065321Y-114960934D01*
X133056895Y-114907731D01*
X133056894Y-114907730D01*
X133056894Y-114907725D01*
X133056891Y-114907715D01*
X133003745Y-114744148D01*
X132961464Y-114661168D01*
X132925661Y-114590900D01*
X132833210Y-114463653D01*
X132824566Y-114451755D01*
X132702944Y-114330133D01*
X132563800Y-114229039D01*
X132563801Y-114229039D01*
X132410551Y-114150954D01*
X132246984Y-114097808D01*
X132246968Y-114097804D01*
X132077103Y-114070900D01*
X132077097Y-114070900D01*
X131905103Y-114070900D01*
X131905096Y-114070900D01*
X131735231Y-114097804D01*
X131735215Y-114097808D01*
X131571648Y-114150954D01*
X131418399Y-114229039D01*
X131279255Y-114330133D01*
X131157633Y-114451755D01*
X131056539Y-114590899D01*
X130978454Y-114744148D01*
X130925308Y-114907715D01*
X130925304Y-114907731D01*
X130898400Y-115077596D01*
X130898400Y-115249603D01*
X130925304Y-115419468D01*
X130925308Y-115419484D01*
X130978454Y-115583051D01*
X131056539Y-115736300D01*
X131157633Y-115875444D01*
X131279254Y-115997065D01*
X131279324Y-115997116D01*
X131279341Y-115997140D01*
X131282260Y-115999633D01*
X131281661Y-116000333D01*
X131315866Y-116047418D01*
X131315862Y-116109593D01*
X131279314Y-116159891D01*
X131220188Y-116179100D01*
X130222012Y-116179100D01*
X130162881Y-116159887D01*
X130126336Y-116109587D01*
X130126336Y-116047413D01*
X130160538Y-116000333D01*
X130159940Y-115999633D01*
X130162858Y-115997140D01*
X130162876Y-115997116D01*
X130162887Y-115997107D01*
X130162946Y-115997065D01*
X130284565Y-115875446D01*
X130385661Y-115736300D01*
X130463745Y-115583051D01*
X130516894Y-115419475D01*
X130543800Y-115249597D01*
X130543800Y-115077603D01*
X130525321Y-114960934D01*
X130516895Y-114907731D01*
X130516894Y-114907730D01*
X130516894Y-114907725D01*
X130516891Y-114907715D01*
X130463745Y-114744148D01*
X130421464Y-114661168D01*
X130385661Y-114590900D01*
X130293210Y-114463653D01*
X130284566Y-114451755D01*
X130162944Y-114330133D01*
X130023800Y-114229039D01*
X130023801Y-114229039D01*
X129870551Y-114150954D01*
X129706984Y-114097808D01*
X129706968Y-114097804D01*
X129537103Y-114070900D01*
X129537097Y-114070900D01*
X129365103Y-114070900D01*
X129365096Y-114070900D01*
X129195231Y-114097804D01*
X129195215Y-114097808D01*
X129031648Y-114150954D01*
X128878399Y-114229039D01*
X128739255Y-114330133D01*
X128617633Y-114451755D01*
X128516539Y-114590899D01*
X128438454Y-114744148D01*
X128385308Y-114907715D01*
X128385304Y-114907731D01*
X128358400Y-115077596D01*
X128358400Y-115249603D01*
X128385304Y-115419468D01*
X128385308Y-115419484D01*
X128438454Y-115583051D01*
X128516539Y-115736300D01*
X128617633Y-115875444D01*
X128739254Y-115997065D01*
X128739324Y-115997116D01*
X128739341Y-115997140D01*
X128742260Y-115999633D01*
X128741661Y-116000333D01*
X128775866Y-116047418D01*
X128775862Y-116109593D01*
X128739314Y-116159891D01*
X128680188Y-116179100D01*
X125644132Y-116179100D01*
X125638058Y-116178916D01*
X125371691Y-116162803D01*
X125359631Y-116161339D01*
X125100131Y-116113784D01*
X125088336Y-116110877D01*
X124836456Y-116032388D01*
X124825098Y-116028080D01*
X124584522Y-115919806D01*
X124573772Y-115914164D01*
X124347990Y-115777673D01*
X124338004Y-115770781D01*
X124130321Y-115608072D01*
X124121228Y-115600016D01*
X123934683Y-115413471D01*
X123926627Y-115404378D01*
X123763918Y-115196695D01*
X123757028Y-115186713D01*
X123620531Y-114960921D01*
X123614893Y-114950177D01*
X123506615Y-114709590D01*
X123502315Y-114698254D01*
X123423819Y-114446354D01*
X123420917Y-114434578D01*
X123373359Y-114175063D01*
X123371896Y-114163008D01*
X123371487Y-114156251D01*
X123355784Y-113896641D01*
X123355600Y-113890567D01*
X123355600Y-112234044D01*
X123374813Y-112174913D01*
X123425113Y-112138368D01*
X123487287Y-112138368D01*
X123527335Y-112162909D01*
X123886926Y-112522500D01*
X124631813Y-112522500D01*
X124690944Y-112541713D01*
X124727489Y-112592013D01*
X124727489Y-112654187D01*
X124690943Y-112704487D01*
X124657307Y-112728925D01*
X124650558Y-112733829D01*
X124481325Y-112903062D01*
X124340654Y-113096681D01*
X124340647Y-113096692D01*
X124231996Y-113309929D01*
X124158041Y-113537539D01*
X124158037Y-113537555D01*
X124120600Y-113773927D01*
X124120600Y-114013272D01*
X124158037Y-114249644D01*
X124158041Y-114249660D01*
X124231996Y-114477270D01*
X124340647Y-114690507D01*
X124340652Y-114690516D01*
X124379618Y-114744148D01*
X124481325Y-114884137D01*
X124481327Y-114884139D01*
X124650561Y-115053373D01*
X124844184Y-115194048D01*
X124844192Y-115194052D01*
X125057429Y-115302703D01*
X125285039Y-115376658D01*
X125285042Y-115376658D01*
X125285049Y-115376661D01*
X125285054Y-115376661D01*
X125285055Y-115376662D01*
X125521427Y-115414099D01*
X125521432Y-115414100D01*
X125521434Y-115414100D01*
X125760768Y-115414100D01*
X125760772Y-115414099D01*
X125901565Y-115391800D01*
X125997151Y-115376661D01*
X126224770Y-115302703D01*
X126438016Y-115194048D01*
X126631639Y-115053373D01*
X126800873Y-114884139D01*
X126941548Y-114690516D01*
X127050203Y-114477270D01*
X127124161Y-114249651D01*
X127161600Y-114013266D01*
X127161600Y-113773934D01*
X127156049Y-113738885D01*
X127156049Y-113738882D01*
X127124162Y-113537555D01*
X127124161Y-113537554D01*
X127124161Y-113537549D01*
X127124158Y-113537539D01*
X127050203Y-113309929D01*
X126955691Y-113124442D01*
X126941548Y-113096684D01*
X126800873Y-112903061D01*
X126631639Y-112733827D01*
X126631637Y-112733825D01*
X126501631Y-112639371D01*
X126438016Y-112593152D01*
X126438010Y-112593149D01*
X126438007Y-112593147D01*
X126224770Y-112484496D01*
X125997160Y-112410541D01*
X125997144Y-112410537D01*
X125760772Y-112373100D01*
X125760766Y-112373100D01*
X125521434Y-112373100D01*
X125521427Y-112373100D01*
X125285055Y-112410537D01*
X125285039Y-112410541D01*
X125212791Y-112434016D01*
X125150616Y-112434016D01*
X125100317Y-112397471D01*
X125081104Y-112338339D01*
X125100317Y-112279208D01*
X125110565Y-112267209D01*
X125274090Y-112103684D01*
X129876300Y-112103684D01*
X129876300Y-112236315D01*
X129910628Y-112364424D01*
X129976938Y-112479276D01*
X129976940Y-112479279D01*
X130070721Y-112573060D01*
X130070723Y-112573061D01*
X130185575Y-112639371D01*
X130185576Y-112639371D01*
X130185579Y-112639373D01*
X130313687Y-112673700D01*
X130446313Y-112673700D01*
X130574421Y-112639373D01*
X130689279Y-112573060D01*
X130783060Y-112479279D01*
X130849373Y-112364421D01*
X130883700Y-112236313D01*
X130883700Y-112233684D01*
X132696300Y-112233684D01*
X132696300Y-112366315D01*
X132730628Y-112494424D01*
X132787626Y-112593147D01*
X132796940Y-112609279D01*
X132890721Y-112703060D01*
X132929007Y-112725164D01*
X133005575Y-112769371D01*
X133005576Y-112769371D01*
X133005579Y-112769373D01*
X133133687Y-112803700D01*
X133266313Y-112803700D01*
X133394421Y-112769373D01*
X133509279Y-112703060D01*
X133603060Y-112609279D01*
X133669373Y-112494421D01*
X133699635Y-112381484D01*
X133733498Y-112329340D01*
X133791543Y-112307060D01*
X133847109Y-112320401D01*
X133850779Y-112322520D01*
X133850782Y-112322521D01*
X133985240Y-112358549D01*
X133985242Y-112358549D01*
X133985245Y-112358550D01*
X133985247Y-112358550D01*
X134124453Y-112358550D01*
X134124455Y-112358550D01*
X134258921Y-112322520D01*
X134379479Y-112252915D01*
X134477915Y-112154479D01*
X134547520Y-112033921D01*
X134583550Y-111899455D01*
X134583550Y-111760245D01*
X134577229Y-111736656D01*
X134547521Y-111625782D01*
X134547519Y-111625777D01*
X134477916Y-111505222D01*
X134379477Y-111406783D01*
X134317682Y-111371106D01*
X134258921Y-111337180D01*
X134258918Y-111337178D01*
X134124459Y-111301150D01*
X134124455Y-111301150D01*
X133985245Y-111301150D01*
X133985240Y-111301150D01*
X133850782Y-111337178D01*
X133850777Y-111337180D01*
X133730222Y-111406783D01*
X133730221Y-111406785D01*
X133631785Y-111505221D01*
X133631783Y-111505222D01*
X133562180Y-111625777D01*
X133562179Y-111625780D01*
X133525704Y-111761906D01*
X133491841Y-111814049D01*
X133433797Y-111836330D01*
X133401217Y-111830734D01*
X133400789Y-111832334D01*
X133394422Y-111830628D01*
X133394421Y-111830627D01*
X133326002Y-111812294D01*
X133266315Y-111796300D01*
X133266313Y-111796300D01*
X133133687Y-111796300D01*
X133133684Y-111796300D01*
X133005575Y-111830628D01*
X132890723Y-111896938D01*
X132890722Y-111896939D01*
X132890721Y-111896940D01*
X132796940Y-111990721D01*
X132796939Y-111990722D01*
X132796938Y-111990723D01*
X132730628Y-112105575D01*
X132696300Y-112233684D01*
X130883700Y-112233684D01*
X130883700Y-112103687D01*
X130849373Y-111975579D01*
X130837085Y-111954296D01*
X130783061Y-111860723D01*
X130783060Y-111860721D01*
X130689279Y-111766940D01*
X130677683Y-111760245D01*
X130574424Y-111700628D01*
X130574421Y-111700627D01*
X130540099Y-111691430D01*
X130446315Y-111666300D01*
X130446313Y-111666300D01*
X130313687Y-111666300D01*
X130313684Y-111666300D01*
X130185575Y-111700628D01*
X130070723Y-111766938D01*
X130070722Y-111766939D01*
X130070721Y-111766940D01*
X129976940Y-111860721D01*
X129976939Y-111860722D01*
X129976938Y-111860723D01*
X129910628Y-111975575D01*
X129876300Y-112103684D01*
X125274090Y-112103684D01*
X125540000Y-111837774D01*
X125540000Y-111290572D01*
X143259900Y-111290572D01*
X143259900Y-111416627D01*
X143292519Y-111538364D01*
X143292522Y-111538371D01*
X143355544Y-111647529D01*
X143444671Y-111736656D01*
X143553829Y-111799678D01*
X143553832Y-111799678D01*
X143553835Y-111799680D01*
X143675572Y-111832299D01*
X143675576Y-111832299D01*
X143675578Y-111832300D01*
X143675580Y-111832300D01*
X143801620Y-111832300D01*
X143801622Y-111832300D01*
X143801624Y-111832299D01*
X143801627Y-111832299D01*
X143923364Y-111799680D01*
X143923364Y-111799679D01*
X143923371Y-111799678D01*
X144032529Y-111736656D01*
X144121656Y-111647529D01*
X144184678Y-111538371D01*
X144193560Y-111505222D01*
X144217299Y-111416627D01*
X144217300Y-111416620D01*
X144217300Y-111290579D01*
X144217299Y-111290572D01*
X144184679Y-111168831D01*
X144163316Y-111131829D01*
X144163312Y-111131822D01*
X146593650Y-111131822D01*
X146593650Y-111257877D01*
X146626269Y-111379614D01*
X146626272Y-111379621D01*
X146689294Y-111488779D01*
X146778421Y-111577906D01*
X146887579Y-111640928D01*
X146887582Y-111640928D01*
X146887585Y-111640930D01*
X147009322Y-111673549D01*
X147009326Y-111673549D01*
X147009328Y-111673550D01*
X147009330Y-111673550D01*
X147135370Y-111673550D01*
X147135372Y-111673550D01*
X147135374Y-111673549D01*
X147135377Y-111673549D01*
X147257114Y-111640930D01*
X147257114Y-111640929D01*
X147257121Y-111640928D01*
X147366279Y-111577906D01*
X147455406Y-111488779D01*
X147518428Y-111379621D01*
X147529800Y-111337180D01*
X147551049Y-111257877D01*
X147551050Y-111257870D01*
X147551050Y-111131829D01*
X147551049Y-111131823D01*
X147543499Y-111103646D01*
X147543499Y-111103645D01*
X147538288Y-111084197D01*
X166650125Y-111084197D01*
X166650125Y-111210252D01*
X166682744Y-111331989D01*
X166682747Y-111331996D01*
X166745769Y-111441154D01*
X166834896Y-111530281D01*
X166944054Y-111593303D01*
X166944057Y-111593303D01*
X166944060Y-111593305D01*
X167065797Y-111625924D01*
X167065801Y-111625924D01*
X167065803Y-111625925D01*
X167065805Y-111625925D01*
X167171825Y-111625925D01*
X167230956Y-111645138D01*
X167267501Y-111695438D01*
X167272425Y-111726525D01*
X167272425Y-111832552D01*
X167305044Y-111954289D01*
X167305047Y-111954296D01*
X167368069Y-112063454D01*
X167457196Y-112152581D01*
X167566354Y-112215603D01*
X167566357Y-112215603D01*
X167566360Y-112215605D01*
X167688097Y-112248224D01*
X167688101Y-112248224D01*
X167688103Y-112248225D01*
X167688105Y-112248225D01*
X167814145Y-112248225D01*
X167814147Y-112248225D01*
X167814149Y-112248224D01*
X167814152Y-112248224D01*
X167935889Y-112215605D01*
X167935889Y-112215604D01*
X167935896Y-112215603D01*
X168045054Y-112152581D01*
X168134181Y-112063454D01*
X168197203Y-111954296D01*
X168206643Y-111919065D01*
X168229824Y-111832552D01*
X168229825Y-111832545D01*
X168229825Y-111706504D01*
X168229824Y-111706497D01*
X168197205Y-111584760D01*
X168197203Y-111584757D01*
X168197203Y-111584754D01*
X168134181Y-111475596D01*
X168045054Y-111386469D01*
X167935896Y-111323447D01*
X167935889Y-111323444D01*
X167814152Y-111290825D01*
X167814147Y-111290825D01*
X167708125Y-111290825D01*
X167648994Y-111271612D01*
X167612449Y-111221312D01*
X167607525Y-111190225D01*
X167607525Y-111084204D01*
X167607524Y-111084197D01*
X167574905Y-110962460D01*
X167574903Y-110962457D01*
X167574903Y-110962454D01*
X167511881Y-110853296D01*
X167422754Y-110764169D01*
X167313596Y-110701147D01*
X167313589Y-110701144D01*
X167191852Y-110668525D01*
X167191847Y-110668525D01*
X167065803Y-110668525D01*
X167065797Y-110668525D01*
X166944060Y-110701144D01*
X166944053Y-110701147D01*
X166861570Y-110748769D01*
X166834896Y-110764169D01*
X166745769Y-110853296D01*
X166745768Y-110853298D01*
X166682747Y-110962453D01*
X166682744Y-110962460D01*
X166650125Y-111084197D01*
X147538288Y-111084197D01*
X147518430Y-111010086D01*
X147518429Y-111010084D01*
X147518428Y-111010079D01*
X147455406Y-110900921D01*
X147366279Y-110811794D01*
X147257121Y-110748772D01*
X147257114Y-110748769D01*
X147135377Y-110716150D01*
X147135372Y-110716150D01*
X147009328Y-110716150D01*
X147009322Y-110716150D01*
X146887585Y-110748769D01*
X146887578Y-110748772D01*
X146801489Y-110798475D01*
X146778421Y-110811794D01*
X146689294Y-110900921D01*
X146689293Y-110900923D01*
X146626272Y-111010078D01*
X146626269Y-111010085D01*
X146593650Y-111131822D01*
X144163312Y-111131822D01*
X144121656Y-111059671D01*
X144032529Y-110970544D01*
X143923371Y-110907522D01*
X143923364Y-110907519D01*
X143801627Y-110874900D01*
X143801622Y-110874900D01*
X143675578Y-110874900D01*
X143675572Y-110874900D01*
X143553835Y-110907519D01*
X143553828Y-110907522D01*
X143467739Y-110957225D01*
X143444671Y-110970544D01*
X143355544Y-111059671D01*
X143355543Y-111059673D01*
X143292522Y-111168828D01*
X143292519Y-111168835D01*
X143259900Y-111290572D01*
X125540000Y-111290572D01*
X125540000Y-110869425D01*
X124855274Y-110184700D01*
X123886925Y-110184700D01*
X123527335Y-110544290D01*
X123471937Y-110572516D01*
X123410529Y-110562790D01*
X123366565Y-110518826D01*
X123355600Y-110473155D01*
X123355600Y-109694044D01*
X123374813Y-109634913D01*
X123425113Y-109598368D01*
X123487287Y-109598368D01*
X123527335Y-109622909D01*
X123886926Y-109982500D01*
X124855275Y-109982500D01*
X125180297Y-109657478D01*
X125428034Y-109409740D01*
X138682300Y-109409740D01*
X138682300Y-109530259D01*
X138694873Y-109577180D01*
X138707126Y-109622909D01*
X138713493Y-109646668D01*
X138757695Y-109723228D01*
X138773749Y-109751034D01*
X138858966Y-109836251D01*
X138858968Y-109836252D01*
X138963331Y-109896506D01*
X138963335Y-109896508D01*
X139079743Y-109927700D01*
X139200257Y-109927700D01*
X139316665Y-109896508D01*
X139421034Y-109836251D01*
X139478063Y-109779222D01*
X140774550Y-109779222D01*
X140774550Y-109905277D01*
X140807169Y-110027014D01*
X140807172Y-110027021D01*
X140870194Y-110136179D01*
X140959321Y-110225306D01*
X141068479Y-110288328D01*
X141068482Y-110288328D01*
X141068485Y-110288330D01*
X141190222Y-110320949D01*
X141190226Y-110320949D01*
X141190228Y-110320950D01*
X141190230Y-110320950D01*
X141316270Y-110320950D01*
X141316272Y-110320950D01*
X141316274Y-110320949D01*
X141316277Y-110320949D01*
X141438014Y-110288330D01*
X141438014Y-110288329D01*
X141438021Y-110288328D01*
X141547179Y-110225306D01*
X141636306Y-110136179D01*
X141674578Y-110069888D01*
X141720782Y-110028286D01*
X141782616Y-110021787D01*
X141836460Y-110052874D01*
X141861749Y-110109673D01*
X141862300Y-110120189D01*
X141862300Y-110200259D01*
X141893493Y-110316668D01*
X141953747Y-110421031D01*
X141953749Y-110421034D01*
X142038966Y-110506251D01*
X142038968Y-110506252D01*
X142143331Y-110566506D01*
X142143335Y-110566508D01*
X142259743Y-110597700D01*
X142380257Y-110597700D01*
X142496665Y-110566508D01*
X142601034Y-110506251D01*
X142686251Y-110421034D01*
X142746508Y-110316665D01*
X142777700Y-110200257D01*
X142777700Y-110079743D01*
X142746508Y-109963335D01*
X142712988Y-109905277D01*
X142686252Y-109858968D01*
X142686251Y-109858966D01*
X142601034Y-109773749D01*
X142570032Y-109755850D01*
X142496668Y-109713493D01*
X142496665Y-109713492D01*
X142465478Y-109705135D01*
X142380259Y-109682300D01*
X142380257Y-109682300D01*
X142259743Y-109682300D01*
X142259740Y-109682300D01*
X142143331Y-109713493D01*
X142038968Y-109773747D01*
X142038967Y-109773748D01*
X142038966Y-109773749D01*
X141953749Y-109858966D01*
X141953748Y-109858967D01*
X141953747Y-109858968D01*
X141919672Y-109917989D01*
X141873467Y-109959592D01*
X141811634Y-109966091D01*
X141757789Y-109935003D01*
X141732501Y-109878204D01*
X141731950Y-109867689D01*
X141731950Y-109779229D01*
X141731949Y-109779222D01*
X141699330Y-109657485D01*
X141699328Y-109657482D01*
X141699328Y-109657479D01*
X141636306Y-109548321D01*
X141547179Y-109459194D01*
X141438021Y-109396172D01*
X141438014Y-109396169D01*
X141316277Y-109363550D01*
X141316272Y-109363550D01*
X141190228Y-109363550D01*
X141190222Y-109363550D01*
X141068485Y-109396169D01*
X141068478Y-109396172D01*
X140982389Y-109445875D01*
X140959321Y-109459194D01*
X140870194Y-109548321D01*
X140870193Y-109548323D01*
X140807172Y-109657478D01*
X140807169Y-109657485D01*
X140774550Y-109779222D01*
X139478063Y-109779222D01*
X139506251Y-109751034D01*
X139566508Y-109646665D01*
X139597700Y-109530257D01*
X139597700Y-109409743D01*
X139566508Y-109293335D01*
X139506251Y-109188966D01*
X139421034Y-109103749D01*
X139401351Y-109092385D01*
X139359240Y-109068072D01*
X146593650Y-109068072D01*
X146593650Y-109194127D01*
X146626269Y-109315864D01*
X146626272Y-109315871D01*
X146689294Y-109425029D01*
X146778421Y-109514156D01*
X146887579Y-109577178D01*
X146887582Y-109577178D01*
X146887585Y-109577180D01*
X147009322Y-109609799D01*
X147009326Y-109609799D01*
X147009328Y-109609800D01*
X147009330Y-109609800D01*
X147135370Y-109609800D01*
X147135372Y-109609800D01*
X147135374Y-109609799D01*
X147135377Y-109609799D01*
X147257114Y-109577180D01*
X147257114Y-109577179D01*
X147257121Y-109577178D01*
X147366279Y-109514156D01*
X147455406Y-109425029D01*
X147518428Y-109315871D01*
X147523277Y-109297774D01*
X147551049Y-109194127D01*
X147551050Y-109194120D01*
X147551050Y-109068079D01*
X147551049Y-109068072D01*
X147518430Y-108946335D01*
X147518428Y-108946332D01*
X147518428Y-108946329D01*
X147455406Y-108837171D01*
X147366279Y-108748044D01*
X147257121Y-108685022D01*
X147257114Y-108685019D01*
X147135377Y-108652400D01*
X147135372Y-108652400D01*
X147009328Y-108652400D01*
X147009322Y-108652400D01*
X146887585Y-108685019D01*
X146887578Y-108685022D01*
X146815293Y-108726756D01*
X146778421Y-108748044D01*
X146689294Y-108837171D01*
X146689293Y-108837173D01*
X146626272Y-108946328D01*
X146626269Y-108946335D01*
X146593650Y-109068072D01*
X139359240Y-109068072D01*
X139316668Y-109043493D01*
X139316665Y-109043492D01*
X139285478Y-109035135D01*
X139200259Y-109012300D01*
X139200257Y-109012300D01*
X139079743Y-109012300D01*
X139079740Y-109012300D01*
X138963331Y-109043493D01*
X138858968Y-109103747D01*
X138858967Y-109103748D01*
X138858966Y-109103749D01*
X138773749Y-109188966D01*
X138773748Y-109188967D01*
X138773747Y-109188968D01*
X138713493Y-109293331D01*
X138682300Y-109409740D01*
X125428034Y-109409740D01*
X125540000Y-109297774D01*
X125540000Y-108329425D01*
X125491247Y-108280672D01*
X166650125Y-108280672D01*
X166650125Y-108406727D01*
X166682744Y-108528464D01*
X166682747Y-108528471D01*
X166745769Y-108637629D01*
X166834896Y-108726756D01*
X166834898Y-108726757D01*
X166834901Y-108726760D01*
X166839927Y-108730617D01*
X166875141Y-108781858D01*
X166873510Y-108844010D01*
X166839927Y-108890233D01*
X166834901Y-108894089D01*
X166834896Y-108894093D01*
X166834896Y-108894094D01*
X166745769Y-108983221D01*
X166745768Y-108983223D01*
X166682747Y-109092378D01*
X166682744Y-109092385D01*
X166650125Y-109214122D01*
X166650125Y-109340177D01*
X166682744Y-109461914D01*
X166682747Y-109461921D01*
X166745769Y-109571079D01*
X166834896Y-109660206D01*
X166944054Y-109723228D01*
X166944057Y-109723228D01*
X166944060Y-109723230D01*
X167065797Y-109755849D01*
X167065801Y-109755849D01*
X167065803Y-109755850D01*
X167065805Y-109755850D01*
X167191845Y-109755850D01*
X167191847Y-109755850D01*
X167191849Y-109755849D01*
X167191852Y-109755849D01*
X167313589Y-109723230D01*
X167313589Y-109723229D01*
X167313596Y-109723228D01*
X167422754Y-109660206D01*
X167511881Y-109571079D01*
X167574903Y-109461921D01*
X167607525Y-109340172D01*
X167607525Y-109214128D01*
X167607524Y-109214126D01*
X167607524Y-109214122D01*
X167574905Y-109092385D01*
X167574903Y-109092382D01*
X167574903Y-109092379D01*
X167511881Y-108983221D01*
X167422754Y-108894094D01*
X167422751Y-108894092D01*
X167422750Y-108894091D01*
X167417726Y-108890236D01*
X167382510Y-108838997D01*
X167384137Y-108776844D01*
X167417726Y-108730614D01*
X167422748Y-108726759D01*
X167422754Y-108726756D01*
X167511881Y-108637629D01*
X167574903Y-108528471D01*
X167607525Y-108406722D01*
X167607525Y-108280678D01*
X167607524Y-108280676D01*
X167607524Y-108280672D01*
X167574905Y-108158935D01*
X167574903Y-108158932D01*
X167574903Y-108158929D01*
X167511881Y-108049771D01*
X167422754Y-107960644D01*
X167313596Y-107897622D01*
X167313589Y-107897619D01*
X167191852Y-107865000D01*
X167191847Y-107865000D01*
X167065803Y-107865000D01*
X167065797Y-107865000D01*
X166944060Y-107897619D01*
X166944053Y-107897622D01*
X166857964Y-107947325D01*
X166834896Y-107960644D01*
X166745769Y-108049771D01*
X166745768Y-108049773D01*
X166682747Y-108158928D01*
X166682744Y-108158935D01*
X166650125Y-108280672D01*
X125491247Y-108280672D01*
X124855274Y-107644700D01*
X123886925Y-107644700D01*
X123527335Y-108004290D01*
X123471937Y-108032516D01*
X123410529Y-108022790D01*
X123366565Y-107978826D01*
X123355600Y-107933155D01*
X123355600Y-107154044D01*
X123374813Y-107094913D01*
X123425113Y-107058368D01*
X123487287Y-107058368D01*
X123527335Y-107082909D01*
X123886926Y-107442500D01*
X124855275Y-107442500D01*
X125389982Y-106907792D01*
X139731300Y-106907792D01*
X139731300Y-107033847D01*
X139763919Y-107155584D01*
X139763922Y-107155591D01*
X139826944Y-107264749D01*
X139916071Y-107353876D01*
X140025229Y-107416898D01*
X140025232Y-107416898D01*
X140025235Y-107416900D01*
X140146972Y-107449519D01*
X140146976Y-107449519D01*
X140146978Y-107449520D01*
X140146980Y-107449520D01*
X140273020Y-107449520D01*
X140273022Y-107449520D01*
X140273024Y-107449519D01*
X140273027Y-107449519D01*
X140394764Y-107416900D01*
X140394764Y-107416899D01*
X140394771Y-107416898D01*
X140503929Y-107353876D01*
X140593056Y-107264749D01*
X140656078Y-107155591D01*
X140657576Y-107150000D01*
X140688699Y-107033847D01*
X140688700Y-107033840D01*
X140688700Y-106907799D01*
X140688699Y-106907792D01*
X140656080Y-106786055D01*
X140656078Y-106786052D01*
X140656078Y-106786049D01*
X140615287Y-106715397D01*
X166650125Y-106715397D01*
X166650125Y-106841452D01*
X166682744Y-106963189D01*
X166682747Y-106963196D01*
X166745769Y-107072354D01*
X166834896Y-107161481D01*
X166944054Y-107224503D01*
X166944057Y-107224503D01*
X166944060Y-107224505D01*
X167065797Y-107257124D01*
X167065801Y-107257124D01*
X167065803Y-107257125D01*
X167065805Y-107257125D01*
X167191845Y-107257125D01*
X167191847Y-107257125D01*
X167191849Y-107257124D01*
X167191852Y-107257124D01*
X167313589Y-107224505D01*
X167313589Y-107224504D01*
X167313596Y-107224503D01*
X167422754Y-107161481D01*
X167511881Y-107072354D01*
X167574903Y-106963196D01*
X167588842Y-106911174D01*
X167607524Y-106841452D01*
X167607525Y-106841445D01*
X167607525Y-106715404D01*
X167607524Y-106715397D01*
X167574905Y-106593660D01*
X167574903Y-106593657D01*
X167574903Y-106593654D01*
X167511881Y-106484496D01*
X167422754Y-106395369D01*
X167313596Y-106332347D01*
X167313589Y-106332344D01*
X167191852Y-106299725D01*
X167191847Y-106299725D01*
X167065803Y-106299725D01*
X167065797Y-106299725D01*
X166944060Y-106332344D01*
X166944053Y-106332347D01*
X166932260Y-106339156D01*
X166834896Y-106395369D01*
X166745769Y-106484496D01*
X166745768Y-106484498D01*
X166682747Y-106593653D01*
X166682744Y-106593660D01*
X166650125Y-106715397D01*
X140615287Y-106715397D01*
X140593056Y-106676891D01*
X140503929Y-106587764D01*
X140394771Y-106524742D01*
X140394764Y-106524739D01*
X140273027Y-106492120D01*
X140273022Y-106492120D01*
X140146978Y-106492120D01*
X140146972Y-106492120D01*
X140025235Y-106524739D01*
X140025228Y-106524742D01*
X139939139Y-106574445D01*
X139916071Y-106587764D01*
X139826944Y-106676891D01*
X139826943Y-106676893D01*
X139763922Y-106786048D01*
X139763919Y-106786055D01*
X139731300Y-106907792D01*
X125389982Y-106907792D01*
X125467705Y-106830069D01*
X125540000Y-106757774D01*
X125540000Y-105789425D01*
X125323618Y-105573043D01*
X124984258Y-105233684D01*
X136196300Y-105233684D01*
X136196300Y-105366315D01*
X136206318Y-105403700D01*
X136227510Y-105482790D01*
X136230628Y-105494424D01*
X136296938Y-105609276D01*
X136296940Y-105609279D01*
X136390721Y-105703060D01*
X136390723Y-105703061D01*
X136505575Y-105769371D01*
X136505576Y-105769371D01*
X136505579Y-105769373D01*
X136633687Y-105803700D01*
X136766313Y-105803700D01*
X136894421Y-105769373D01*
X137009279Y-105703060D01*
X137103060Y-105609279D01*
X137169373Y-105494421D01*
X137192064Y-105409740D01*
X138692300Y-105409740D01*
X138692300Y-105530259D01*
X138723493Y-105646668D01*
X138732445Y-105662173D01*
X138783749Y-105751034D01*
X138868966Y-105836251D01*
X138868968Y-105836252D01*
X138973331Y-105896506D01*
X138973335Y-105896508D01*
X139089743Y-105927700D01*
X139210257Y-105927700D01*
X139326665Y-105896508D01*
X139332616Y-105893072D01*
X141672400Y-105893072D01*
X141672400Y-106019127D01*
X141705019Y-106140864D01*
X141705022Y-106140871D01*
X141768044Y-106250029D01*
X141857171Y-106339156D01*
X141966329Y-106402178D01*
X141966332Y-106402178D01*
X141966335Y-106402180D01*
X142088072Y-106434799D01*
X142088076Y-106434799D01*
X142088078Y-106434800D01*
X142088080Y-106434800D01*
X142214120Y-106434800D01*
X142214122Y-106434800D01*
X142214124Y-106434799D01*
X142214127Y-106434799D01*
X142335864Y-106402180D01*
X142335864Y-106402179D01*
X142335871Y-106402178D01*
X142445029Y-106339156D01*
X142534156Y-106250029D01*
X142597178Y-106140871D01*
X142629800Y-106019122D01*
X142629800Y-105893078D01*
X142629799Y-105893076D01*
X142629799Y-105893072D01*
X142597180Y-105771335D01*
X142597178Y-105771332D01*
X142597178Y-105771329D01*
X142534156Y-105662171D01*
X142445029Y-105573044D01*
X142335871Y-105510022D01*
X142335864Y-105510019D01*
X142214127Y-105477400D01*
X142214122Y-105477400D01*
X142088078Y-105477400D01*
X142088072Y-105477400D01*
X141966335Y-105510019D01*
X141966328Y-105510022D01*
X141931277Y-105530259D01*
X141857171Y-105573044D01*
X141768044Y-105662171D01*
X141768043Y-105662173D01*
X141705022Y-105771328D01*
X141705019Y-105771335D01*
X141672400Y-105893072D01*
X139332616Y-105893072D01*
X139431034Y-105836251D01*
X139516251Y-105751034D01*
X139576508Y-105646665D01*
X139607700Y-105530257D01*
X139607700Y-105409743D01*
X139576508Y-105293335D01*
X139542070Y-105233687D01*
X139516252Y-105188968D01*
X139516251Y-105188966D01*
X139431034Y-105103749D01*
X139414883Y-105094424D01*
X139326668Y-105043493D01*
X139326665Y-105043492D01*
X139295478Y-105035135D01*
X139210259Y-105012300D01*
X139210257Y-105012300D01*
X139089743Y-105012300D01*
X139089740Y-105012300D01*
X138973331Y-105043493D01*
X138868968Y-105103747D01*
X138868967Y-105103748D01*
X138868966Y-105103749D01*
X138783749Y-105188966D01*
X138783748Y-105188967D01*
X138783747Y-105188968D01*
X138723493Y-105293331D01*
X138692300Y-105409740D01*
X137192064Y-105409740D01*
X137203700Y-105366313D01*
X137203700Y-105233687D01*
X137169373Y-105105579D01*
X137168316Y-105103749D01*
X137103061Y-104990723D01*
X137103060Y-104990721D01*
X137009279Y-104896940D01*
X137009276Y-104896938D01*
X136941872Y-104858022D01*
X163538625Y-104858022D01*
X163538625Y-104984077D01*
X163571244Y-105105814D01*
X163571247Y-105105821D01*
X163634269Y-105214979D01*
X163723396Y-105304106D01*
X163832554Y-105367128D01*
X163832557Y-105367128D01*
X163832560Y-105367130D01*
X163954297Y-105399749D01*
X163954301Y-105399749D01*
X163954303Y-105399750D01*
X163954305Y-105399750D01*
X164080345Y-105399750D01*
X164080347Y-105399750D01*
X164080349Y-105399749D01*
X164080352Y-105399749D01*
X164202089Y-105367130D01*
X164202089Y-105367129D01*
X164202096Y-105367128D01*
X164311254Y-105304106D01*
X164400381Y-105214979D01*
X164463403Y-105105821D01*
X164466458Y-105094421D01*
X164496024Y-104984077D01*
X164496025Y-104984070D01*
X164496025Y-104858029D01*
X164496024Y-104858023D01*
X164494713Y-104853130D01*
X164489503Y-104833684D01*
X166416300Y-104833684D01*
X166416300Y-104966315D01*
X166450628Y-105094424D01*
X166477367Y-105140737D01*
X166516940Y-105209279D01*
X166610721Y-105303060D01*
X166610723Y-105303061D01*
X166725575Y-105369371D01*
X166725576Y-105369371D01*
X166725579Y-105369373D01*
X166853687Y-105403700D01*
X166986313Y-105403700D01*
X167114421Y-105369373D01*
X167229279Y-105303060D01*
X167323060Y-105209279D01*
X167389373Y-105094421D01*
X167423700Y-104966313D01*
X167423700Y-104833687D01*
X167389373Y-104705579D01*
X167364516Y-104662526D01*
X167323061Y-104590723D01*
X167323060Y-104590721D01*
X167229279Y-104496940D01*
X167229276Y-104496938D01*
X167114424Y-104430628D01*
X167114421Y-104430627D01*
X167080099Y-104421430D01*
X166986315Y-104396300D01*
X166986313Y-104396300D01*
X166853687Y-104396300D01*
X166853684Y-104396300D01*
X166725575Y-104430628D01*
X166610723Y-104496938D01*
X166610722Y-104496939D01*
X166610721Y-104496940D01*
X166516940Y-104590721D01*
X166516939Y-104590722D01*
X166516938Y-104590723D01*
X166450628Y-104705575D01*
X166416300Y-104833684D01*
X164489503Y-104833684D01*
X164463405Y-104736285D01*
X164463403Y-104736282D01*
X164463403Y-104736279D01*
X164400381Y-104627121D01*
X164311254Y-104537994D01*
X164202096Y-104474972D01*
X164202089Y-104474969D01*
X164080352Y-104442350D01*
X164080347Y-104442350D01*
X163954303Y-104442350D01*
X163954297Y-104442350D01*
X163832560Y-104474969D01*
X163832553Y-104474972D01*
X163794504Y-104496940D01*
X163723396Y-104537994D01*
X163634269Y-104627121D01*
X163634268Y-104627123D01*
X163571247Y-104736278D01*
X163571244Y-104736285D01*
X163538625Y-104858022D01*
X136941872Y-104858022D01*
X136894424Y-104830628D01*
X136894421Y-104830627D01*
X136860099Y-104821430D01*
X136766315Y-104796300D01*
X136766313Y-104796300D01*
X136633687Y-104796300D01*
X136633684Y-104796300D01*
X136505575Y-104830628D01*
X136390723Y-104896938D01*
X136390722Y-104896939D01*
X136390721Y-104896940D01*
X136296940Y-104990721D01*
X136296939Y-104990722D01*
X136296938Y-104990723D01*
X136230628Y-105105575D01*
X136196300Y-105233684D01*
X124984258Y-105233684D01*
X124855274Y-105104700D01*
X123886925Y-105104700D01*
X123527335Y-105464290D01*
X123471937Y-105492516D01*
X123410529Y-105482790D01*
X123366565Y-105438826D01*
X123355600Y-105393155D01*
X123355600Y-104614044D01*
X123374813Y-104554913D01*
X123425113Y-104518368D01*
X123487287Y-104518368D01*
X123527335Y-104542909D01*
X123886926Y-104902500D01*
X124855275Y-104902500D01*
X125452202Y-104305572D01*
X142307400Y-104305572D01*
X142307400Y-104431627D01*
X142340019Y-104553364D01*
X142340022Y-104553371D01*
X142403044Y-104662529D01*
X142492171Y-104751656D01*
X142601329Y-104814678D01*
X142601332Y-104814678D01*
X142601335Y-104814680D01*
X142723072Y-104847299D01*
X142723076Y-104847299D01*
X142723078Y-104847300D01*
X142723080Y-104847300D01*
X142849120Y-104847300D01*
X142849122Y-104847300D01*
X142849124Y-104847299D01*
X142849127Y-104847299D01*
X142970864Y-104814680D01*
X142970864Y-104814679D01*
X142970871Y-104814678D01*
X143080029Y-104751656D01*
X143169156Y-104662529D01*
X143232178Y-104553371D01*
X143236298Y-104537994D01*
X143264799Y-104431627D01*
X143264800Y-104431620D01*
X143264800Y-104305579D01*
X143264799Y-104305572D01*
X143232180Y-104183835D01*
X143232178Y-104183832D01*
X143232178Y-104183829D01*
X143169156Y-104074671D01*
X143080029Y-103985544D01*
X142970871Y-103922522D01*
X142970864Y-103922519D01*
X142849127Y-103889900D01*
X142849122Y-103889900D01*
X142723078Y-103889900D01*
X142723072Y-103889900D01*
X142601335Y-103922519D01*
X142601328Y-103922522D01*
X142515239Y-103972225D01*
X142492171Y-103985544D01*
X142403044Y-104074671D01*
X142403043Y-104074673D01*
X142340022Y-104183828D01*
X142340019Y-104183835D01*
X142307400Y-104305572D01*
X125452202Y-104305572D01*
X125529925Y-104227849D01*
X125540000Y-104217774D01*
X125540000Y-103249425D01*
X125284859Y-102994284D01*
X125220315Y-102929740D01*
X127542300Y-102929740D01*
X127542300Y-103050259D01*
X127573493Y-103166668D01*
X127633747Y-103271031D01*
X127633749Y-103271034D01*
X127718966Y-103356251D01*
X127718968Y-103356252D01*
X127823331Y-103416506D01*
X127823335Y-103416508D01*
X127939743Y-103447700D01*
X128060257Y-103447700D01*
X128176665Y-103416508D01*
X128281034Y-103356251D01*
X128366251Y-103271034D01*
X128426508Y-103166665D01*
X128457700Y-103050257D01*
X128457700Y-102929743D01*
X128437903Y-102855862D01*
X132210150Y-102855862D01*
X132210150Y-102976381D01*
X132241343Y-103092790D01*
X132301597Y-103197153D01*
X132301599Y-103197156D01*
X132386816Y-103282373D01*
X132386818Y-103282374D01*
X132491181Y-103342628D01*
X132491185Y-103342630D01*
X132607593Y-103373822D01*
X132728107Y-103373822D01*
X132844515Y-103342630D01*
X132947751Y-103283026D01*
X133008565Y-103270100D01*
X133048347Y-103283026D01*
X133151585Y-103342630D01*
X133267993Y-103373822D01*
X133388507Y-103373822D01*
X133504915Y-103342630D01*
X133609284Y-103282373D01*
X133694501Y-103197156D01*
X133754758Y-103092787D01*
X133785950Y-102976379D01*
X133785950Y-102855865D01*
X133754758Y-102739457D01*
X133742411Y-102718072D01*
X142942400Y-102718072D01*
X142942400Y-102844127D01*
X142975019Y-102965864D01*
X142975022Y-102965871D01*
X143038044Y-103075029D01*
X143127171Y-103164156D01*
X143236329Y-103227178D01*
X143236332Y-103227178D01*
X143236335Y-103227180D01*
X143358072Y-103259799D01*
X143358076Y-103259799D01*
X143358078Y-103259800D01*
X143358080Y-103259800D01*
X143484120Y-103259800D01*
X143484122Y-103259800D01*
X143484124Y-103259799D01*
X143484127Y-103259799D01*
X143605864Y-103227180D01*
X143605864Y-103227179D01*
X143605871Y-103227178D01*
X143715029Y-103164156D01*
X143804156Y-103075029D01*
X143867178Y-102965871D01*
X143867180Y-102965864D01*
X143899799Y-102844127D01*
X143899800Y-102844120D01*
X143899800Y-102718079D01*
X143899799Y-102718073D01*
X143881341Y-102649186D01*
X143881341Y-102649185D01*
X143876131Y-102629740D01*
X166202300Y-102629740D01*
X166202300Y-102750259D01*
X166233493Y-102866668D01*
X166290764Y-102965864D01*
X166293749Y-102971034D01*
X166378966Y-103056251D01*
X166378968Y-103056252D01*
X166483331Y-103116506D01*
X166483335Y-103116508D01*
X166599743Y-103147700D01*
X166720257Y-103147700D01*
X166836665Y-103116508D01*
X166941034Y-103056251D01*
X167026251Y-102971034D01*
X167086508Y-102866665D01*
X167117700Y-102750257D01*
X167117700Y-102629743D01*
X167086508Y-102513335D01*
X167072813Y-102489615D01*
X167026252Y-102408968D01*
X167026251Y-102408966D01*
X166941034Y-102323749D01*
X166930557Y-102317700D01*
X166836668Y-102263493D01*
X166836665Y-102263492D01*
X166805478Y-102255135D01*
X166720259Y-102232300D01*
X166720257Y-102232300D01*
X166599743Y-102232300D01*
X166599740Y-102232300D01*
X166483331Y-102263493D01*
X166378968Y-102323747D01*
X166378967Y-102323748D01*
X166378966Y-102323749D01*
X166293749Y-102408966D01*
X166293748Y-102408967D01*
X166293747Y-102408968D01*
X166233493Y-102513331D01*
X166202300Y-102629740D01*
X143876131Y-102629740D01*
X143867180Y-102596336D01*
X143867179Y-102596334D01*
X143867178Y-102596329D01*
X143804156Y-102487171D01*
X143715029Y-102398044D01*
X143605871Y-102335022D01*
X143605864Y-102335019D01*
X143484127Y-102302400D01*
X143484122Y-102302400D01*
X143358078Y-102302400D01*
X143358072Y-102302400D01*
X143236335Y-102335019D01*
X143236328Y-102335022D01*
X143150239Y-102384725D01*
X143127171Y-102398044D01*
X143038044Y-102487171D01*
X143038043Y-102487173D01*
X142975022Y-102596328D01*
X142975019Y-102596335D01*
X142942400Y-102718072D01*
X133742411Y-102718072D01*
X133694501Y-102635088D01*
X133609284Y-102549871D01*
X133609281Y-102549869D01*
X133504918Y-102489615D01*
X133504915Y-102489614D01*
X133473728Y-102481257D01*
X133388509Y-102458422D01*
X133388507Y-102458422D01*
X133267993Y-102458422D01*
X133267990Y-102458422D01*
X133151581Y-102489615D01*
X133048350Y-102549216D01*
X132987534Y-102562143D01*
X132947750Y-102549216D01*
X132844518Y-102489615D01*
X132844515Y-102489614D01*
X132813328Y-102481257D01*
X132728109Y-102458422D01*
X132728107Y-102458422D01*
X132607593Y-102458422D01*
X132607590Y-102458422D01*
X132491181Y-102489615D01*
X132386818Y-102549869D01*
X132386817Y-102549870D01*
X132386816Y-102549871D01*
X132301599Y-102635088D01*
X132301598Y-102635089D01*
X132301597Y-102635090D01*
X132241343Y-102739453D01*
X132210150Y-102855862D01*
X128437903Y-102855862D01*
X128426508Y-102813335D01*
X128423734Y-102808531D01*
X128366252Y-102708968D01*
X128366251Y-102708966D01*
X128281034Y-102623749D01*
X128281031Y-102623747D01*
X128176668Y-102563493D01*
X128176665Y-102563492D01*
X128125832Y-102549871D01*
X128060259Y-102532300D01*
X128060257Y-102532300D01*
X127939743Y-102532300D01*
X127939740Y-102532300D01*
X127823331Y-102563493D01*
X127718968Y-102623747D01*
X127718967Y-102623748D01*
X127718966Y-102623749D01*
X127633749Y-102708966D01*
X127633748Y-102708967D01*
X127633747Y-102708968D01*
X127573493Y-102813331D01*
X127542300Y-102929740D01*
X125220315Y-102929740D01*
X124855274Y-102564700D01*
X123886925Y-102564700D01*
X123527335Y-102924290D01*
X123471937Y-102952516D01*
X123410529Y-102942790D01*
X123366565Y-102898826D01*
X123355600Y-102853155D01*
X123355600Y-102054994D01*
X123374813Y-101995863D01*
X123425113Y-101959318D01*
X123487287Y-101959318D01*
X123527335Y-101983859D01*
X123886926Y-102343450D01*
X124855275Y-102343450D01*
X125162060Y-102036665D01*
X125398984Y-101799740D01*
X127172300Y-101799740D01*
X127172300Y-101920259D01*
X127203493Y-102036668D01*
X127256316Y-102128160D01*
X127263749Y-102141034D01*
X127348966Y-102226251D01*
X127348968Y-102226252D01*
X127453331Y-102286506D01*
X127453335Y-102286508D01*
X127569743Y-102317700D01*
X127690257Y-102317700D01*
X127806665Y-102286508D01*
X127911034Y-102226251D01*
X127996251Y-102141034D01*
X128056508Y-102036665D01*
X128087700Y-101920257D01*
X128087700Y-101799743D01*
X128056508Y-101683335D01*
X128042886Y-101659740D01*
X128832300Y-101659740D01*
X128832300Y-101780259D01*
X128863493Y-101896668D01*
X128923747Y-102001031D01*
X128923749Y-102001034D01*
X129008966Y-102086251D01*
X129008968Y-102086252D01*
X129113331Y-102146506D01*
X129113335Y-102146508D01*
X129229743Y-102177700D01*
X129350257Y-102177700D01*
X129466665Y-102146508D01*
X129571034Y-102086251D01*
X129656251Y-102001034D01*
X129716508Y-101896665D01*
X129747700Y-101780257D01*
X129747700Y-101659743D01*
X129716508Y-101543335D01*
X129689471Y-101496506D01*
X129676336Y-101473755D01*
X129656251Y-101438966D01*
X129571034Y-101353749D01*
X129571031Y-101353747D01*
X129466668Y-101293493D01*
X129466665Y-101293492D01*
X129435478Y-101285135D01*
X129350259Y-101262300D01*
X129350257Y-101262300D01*
X129229743Y-101262300D01*
X129229740Y-101262300D01*
X129113331Y-101293493D01*
X129008968Y-101353747D01*
X129008967Y-101353748D01*
X129008966Y-101353749D01*
X128923749Y-101438966D01*
X128923748Y-101438967D01*
X128923747Y-101438968D01*
X128863493Y-101543331D01*
X128832300Y-101659740D01*
X128042886Y-101659740D01*
X127996251Y-101578966D01*
X127911034Y-101493749D01*
X127911031Y-101493747D01*
X127806668Y-101433493D01*
X127806665Y-101433492D01*
X127775478Y-101425135D01*
X127690259Y-101402300D01*
X127690257Y-101402300D01*
X127569743Y-101402300D01*
X127569740Y-101402300D01*
X127453331Y-101433493D01*
X127348968Y-101493747D01*
X127348967Y-101493748D01*
X127348966Y-101493749D01*
X127263749Y-101578966D01*
X127263748Y-101578967D01*
X127263747Y-101578968D01*
X127203493Y-101683331D01*
X127172300Y-101799740D01*
X125398984Y-101799740D01*
X125540000Y-101658724D01*
X125540000Y-101141201D01*
X136263300Y-101141201D01*
X136263300Y-101261720D01*
X136294493Y-101378129D01*
X136335681Y-101449468D01*
X136354749Y-101482495D01*
X136439966Y-101567712D01*
X136459462Y-101578968D01*
X136544331Y-101627967D01*
X136544335Y-101627969D01*
X136660743Y-101659161D01*
X136781257Y-101659161D01*
X136897665Y-101627969D01*
X137002034Y-101567712D01*
X137087251Y-101482495D01*
X137147508Y-101378126D01*
X137178700Y-101261718D01*
X137178700Y-101141204D01*
X137169695Y-101107596D01*
X138518400Y-101107596D01*
X138518400Y-101279603D01*
X138545304Y-101449468D01*
X138545308Y-101449484D01*
X138598454Y-101613051D01*
X138676539Y-101766300D01*
X138777633Y-101905444D01*
X138899255Y-102027066D01*
X139038399Y-102128160D01*
X139038398Y-102128160D01*
X139191648Y-102206245D01*
X139355215Y-102259391D01*
X139355218Y-102259391D01*
X139355225Y-102259394D01*
X139355230Y-102259394D01*
X139355231Y-102259395D01*
X139525096Y-102286299D01*
X139525101Y-102286300D01*
X139525103Y-102286300D01*
X139697099Y-102286300D01*
X139697103Y-102286299D01*
X139866975Y-102259394D01*
X140030551Y-102206245D01*
X140183800Y-102128161D01*
X140322946Y-102027065D01*
X140444565Y-101905446D01*
X140545661Y-101766300D01*
X140623745Y-101613051D01*
X140676894Y-101449475D01*
X140703800Y-101279597D01*
X140703800Y-101107603D01*
X140703799Y-101107596D01*
X141058400Y-101107596D01*
X141058400Y-101279603D01*
X141085304Y-101449468D01*
X141085308Y-101449484D01*
X141138454Y-101613051D01*
X141216539Y-101766300D01*
X141317633Y-101905444D01*
X141439255Y-102027066D01*
X141578399Y-102128160D01*
X141578398Y-102128160D01*
X141731648Y-102206245D01*
X141895215Y-102259391D01*
X141895218Y-102259391D01*
X141895225Y-102259394D01*
X141895230Y-102259394D01*
X141895231Y-102259395D01*
X142065096Y-102286299D01*
X142065101Y-102286300D01*
X142065103Y-102286300D01*
X142237099Y-102286300D01*
X142237103Y-102286299D01*
X142406975Y-102259394D01*
X142570551Y-102206245D01*
X142723800Y-102128161D01*
X142862946Y-102027065D01*
X142984565Y-101905446D01*
X143085661Y-101766300D01*
X143163745Y-101613051D01*
X143216894Y-101449475D01*
X143243800Y-101279597D01*
X143243800Y-101107603D01*
X143228300Y-101009740D01*
X166252300Y-101009740D01*
X166252300Y-101130259D01*
X166283493Y-101246668D01*
X166343747Y-101351031D01*
X166343749Y-101351034D01*
X166428966Y-101436251D01*
X166433672Y-101438968D01*
X166533331Y-101496506D01*
X166533335Y-101496508D01*
X166649743Y-101527700D01*
X166770257Y-101527700D01*
X166886665Y-101496508D01*
X166991034Y-101436251D01*
X167076251Y-101351034D01*
X167136508Y-101246665D01*
X167167700Y-101130257D01*
X167167700Y-101009743D01*
X167136508Y-100893335D01*
X167076251Y-100788966D01*
X166991034Y-100703749D01*
X166991031Y-100703747D01*
X166886668Y-100643493D01*
X166886665Y-100643492D01*
X166855478Y-100635135D01*
X166770259Y-100612300D01*
X166770257Y-100612300D01*
X166649743Y-100612300D01*
X166649740Y-100612300D01*
X166533331Y-100643493D01*
X166428968Y-100703747D01*
X166428967Y-100703748D01*
X166428966Y-100703749D01*
X166343749Y-100788966D01*
X166343748Y-100788967D01*
X166343747Y-100788968D01*
X166283493Y-100893331D01*
X166252300Y-101009740D01*
X143228300Y-101009740D01*
X143216894Y-100937725D01*
X143183585Y-100835210D01*
X143163745Y-100774148D01*
X143121060Y-100690375D01*
X143085661Y-100620900D01*
X142984565Y-100481754D01*
X142862946Y-100360135D01*
X142862944Y-100360133D01*
X142723800Y-100259039D01*
X142723801Y-100259039D01*
X142570551Y-100180954D01*
X142406984Y-100127808D01*
X142406968Y-100127804D01*
X142237103Y-100100900D01*
X142237097Y-100100900D01*
X142065103Y-100100900D01*
X142065096Y-100100900D01*
X141895231Y-100127804D01*
X141895215Y-100127808D01*
X141731648Y-100180954D01*
X141578399Y-100259039D01*
X141439255Y-100360133D01*
X141317633Y-100481755D01*
X141216539Y-100620899D01*
X141138454Y-100774148D01*
X141085308Y-100937715D01*
X141085304Y-100937731D01*
X141058400Y-101107596D01*
X140703799Y-101107596D01*
X140676894Y-100937725D01*
X140643585Y-100835210D01*
X140623745Y-100774148D01*
X140581060Y-100690375D01*
X140545661Y-100620900D01*
X140444565Y-100481754D01*
X140322946Y-100360135D01*
X140322944Y-100360133D01*
X140183800Y-100259039D01*
X140183801Y-100259039D01*
X140030551Y-100180954D01*
X139866984Y-100127808D01*
X139866968Y-100127804D01*
X139697103Y-100100900D01*
X139697097Y-100100900D01*
X139525103Y-100100900D01*
X139525096Y-100100900D01*
X139355231Y-100127804D01*
X139355215Y-100127808D01*
X139191648Y-100180954D01*
X139038399Y-100259039D01*
X138899255Y-100360133D01*
X138777633Y-100481755D01*
X138676539Y-100620899D01*
X138598454Y-100774148D01*
X138545308Y-100937715D01*
X138545304Y-100937731D01*
X138518400Y-101107596D01*
X137169695Y-101107596D01*
X137147508Y-101024796D01*
X137144096Y-101018887D01*
X137087252Y-100920429D01*
X137087251Y-100920427D01*
X137002034Y-100835210D01*
X137002031Y-100835208D01*
X136897668Y-100774954D01*
X136897665Y-100774953D01*
X136866478Y-100766596D01*
X136781259Y-100743761D01*
X136781257Y-100743761D01*
X136660743Y-100743761D01*
X136660740Y-100743761D01*
X136544331Y-100774954D01*
X136439968Y-100835208D01*
X136439967Y-100835209D01*
X136439966Y-100835210D01*
X136354749Y-100920427D01*
X136354748Y-100920428D01*
X136354747Y-100920429D01*
X136294493Y-101024792D01*
X136263300Y-101141201D01*
X125540000Y-101141201D01*
X125540000Y-100690375D01*
X125209758Y-100360133D01*
X124893089Y-100043464D01*
X124864863Y-99988066D01*
X124874589Y-99926658D01*
X124918553Y-99882694D01*
X124925731Y-99879385D01*
X124937514Y-99874504D01*
X124947802Y-99866160D01*
X125304222Y-99509740D01*
X127352300Y-99509740D01*
X127352300Y-99630259D01*
X127383493Y-99746668D01*
X127441135Y-99846507D01*
X127443749Y-99851034D01*
X127528966Y-99936251D01*
X127528968Y-99936252D01*
X127633331Y-99996506D01*
X127633335Y-99996508D01*
X127749743Y-100027700D01*
X127870257Y-100027700D01*
X127986665Y-99996508D01*
X128091034Y-99936251D01*
X128176251Y-99851034D01*
X128236508Y-99746665D01*
X128267700Y-99630257D01*
X128267700Y-99509743D01*
X128236508Y-99393335D01*
X128211339Y-99349740D01*
X133472300Y-99349740D01*
X133472300Y-99470259D01*
X133503493Y-99586668D01*
X133563747Y-99691031D01*
X133563749Y-99691034D01*
X133648966Y-99776251D01*
X133673660Y-99790508D01*
X133753331Y-99836506D01*
X133753335Y-99836508D01*
X133869743Y-99867700D01*
X133990257Y-99867700D01*
X134106665Y-99836508D01*
X134136039Y-99819548D01*
X134196852Y-99806621D01*
X134236637Y-99819547D01*
X134266011Y-99836506D01*
X134283331Y-99846506D01*
X134283335Y-99846508D01*
X134399743Y-99877700D01*
X134520257Y-99877700D01*
X134636665Y-99846508D01*
X134741034Y-99786251D01*
X134826251Y-99701034D01*
X134886508Y-99596665D01*
X134917700Y-99480257D01*
X134917700Y-99416972D01*
X166191300Y-99416972D01*
X166191300Y-99543027D01*
X166223919Y-99664764D01*
X166223922Y-99664771D01*
X166286944Y-99773929D01*
X166376071Y-99863056D01*
X166485229Y-99926078D01*
X166485232Y-99926078D01*
X166485235Y-99926080D01*
X166606972Y-99958699D01*
X166606976Y-99958699D01*
X166606978Y-99958700D01*
X166606980Y-99958700D01*
X166733020Y-99958700D01*
X166733022Y-99958700D01*
X166733024Y-99958699D01*
X166733027Y-99958699D01*
X166854764Y-99926080D01*
X166854764Y-99926079D01*
X166854771Y-99926078D01*
X166963929Y-99863056D01*
X167053056Y-99773929D01*
X167116078Y-99664771D01*
X167134327Y-99596665D01*
X167148699Y-99543027D01*
X167148700Y-99543020D01*
X167148700Y-99416979D01*
X167148699Y-99416972D01*
X167116080Y-99295235D01*
X167116078Y-99295232D01*
X167116078Y-99295229D01*
X167053056Y-99186071D01*
X166963929Y-99096944D01*
X166854771Y-99033922D01*
X166854764Y-99033919D01*
X166733027Y-99001300D01*
X166733022Y-99001300D01*
X166606978Y-99001300D01*
X166606972Y-99001300D01*
X166485235Y-99033919D01*
X166485228Y-99033922D01*
X166404304Y-99080644D01*
X166376071Y-99096944D01*
X166286944Y-99186071D01*
X166286943Y-99186073D01*
X166223922Y-99295228D01*
X166223919Y-99295235D01*
X166191300Y-99416972D01*
X134917700Y-99416972D01*
X134917700Y-99359743D01*
X134886508Y-99243335D01*
X134880732Y-99233331D01*
X134837078Y-99157719D01*
X134823600Y-99107419D01*
X134823600Y-98552270D01*
X134852249Y-98580919D01*
X134926357Y-98623705D01*
X135009014Y-98645853D01*
X135094586Y-98645853D01*
X135177243Y-98623705D01*
X135251351Y-98580919D01*
X135280000Y-98552270D01*
X135280000Y-99128858D01*
X135604586Y-99128858D01*
X135604600Y-99128857D01*
X135629673Y-99125948D01*
X135732279Y-99080644D01*
X135811587Y-99001336D01*
X135856889Y-98898736D01*
X135856889Y-98898735D01*
X135859799Y-98873654D01*
X135859800Y-98873649D01*
X135859800Y-98549059D01*
X135283211Y-98549059D01*
X135311860Y-98520410D01*
X135354646Y-98446302D01*
X135376794Y-98363645D01*
X135376794Y-98278073D01*
X135354646Y-98195416D01*
X135311860Y-98121308D01*
X135283211Y-98092659D01*
X135859799Y-98092659D01*
X135859799Y-97768073D01*
X135859798Y-97768058D01*
X135856889Y-97742985D01*
X135811585Y-97640379D01*
X135732277Y-97561071D01*
X135629677Y-97515769D01*
X135604595Y-97512859D01*
X135280000Y-97512859D01*
X135280000Y-98089448D01*
X135251351Y-98060799D01*
X135177243Y-98018013D01*
X135094586Y-97995865D01*
X135009014Y-97995865D01*
X134926357Y-98018013D01*
X134852249Y-98060799D01*
X134823600Y-98089448D01*
X134823600Y-97512859D01*
X134499014Y-97512859D01*
X134498999Y-97512860D01*
X134473926Y-97515769D01*
X134371320Y-97561073D01*
X134292012Y-97640381D01*
X134246710Y-97742981D01*
X134246710Y-97742982D01*
X134243800Y-97768063D01*
X134243800Y-98092659D01*
X134820389Y-98092659D01*
X134791740Y-98121308D01*
X134748954Y-98195416D01*
X134726806Y-98278073D01*
X134726806Y-98363645D01*
X134748954Y-98446302D01*
X134791740Y-98520410D01*
X134820389Y-98549059D01*
X134243801Y-98549059D01*
X134243801Y-98873644D01*
X134243802Y-98873669D01*
X134244382Y-98878668D01*
X134232108Y-98939619D01*
X134186352Y-98981714D01*
X134124592Y-98988875D01*
X134108778Y-98984057D01*
X133990260Y-98952300D01*
X133990257Y-98952300D01*
X133869743Y-98952300D01*
X133869740Y-98952300D01*
X133753331Y-98983493D01*
X133648968Y-99043747D01*
X133648967Y-99043748D01*
X133648966Y-99043749D01*
X133563749Y-99128966D01*
X133563748Y-99128967D01*
X133563747Y-99128968D01*
X133503493Y-99233331D01*
X133472300Y-99349740D01*
X128211339Y-99349740D01*
X128176251Y-99288966D01*
X128091034Y-99203749D01*
X128091031Y-99203747D01*
X127986668Y-99143493D01*
X127986665Y-99143492D01*
X127932458Y-99128967D01*
X127870259Y-99112300D01*
X127870257Y-99112300D01*
X127749743Y-99112300D01*
X127749740Y-99112300D01*
X127633331Y-99143493D01*
X127528968Y-99203747D01*
X127528967Y-99203748D01*
X127528966Y-99203749D01*
X127443749Y-99288966D01*
X127443748Y-99288967D01*
X127443747Y-99288968D01*
X127383493Y-99393331D01*
X127352300Y-99509740D01*
X125304222Y-99509740D01*
X125583660Y-99230302D01*
X125583664Y-99230296D01*
X125592004Y-99220014D01*
X125634924Y-99116394D01*
X125634924Y-99116393D01*
X125636299Y-99103214D01*
X125636300Y-99103207D01*
X125636300Y-98881800D01*
X124825937Y-98881800D01*
X124844481Y-98849681D01*
X124879100Y-98720480D01*
X124879100Y-98586720D01*
X124844481Y-98457519D01*
X124825937Y-98425400D01*
X125636299Y-98425400D01*
X125636299Y-98203991D01*
X125636298Y-98203984D01*
X125634924Y-98190805D01*
X125592004Y-98087184D01*
X125583660Y-98076897D01*
X125288174Y-97781411D01*
X125281373Y-97768063D01*
X129392400Y-97768063D01*
X129392400Y-98092659D01*
X129968989Y-98092659D01*
X129940340Y-98121308D01*
X129897554Y-98195416D01*
X129875406Y-98278073D01*
X129875406Y-98363645D01*
X129897554Y-98446302D01*
X129940340Y-98520410D01*
X129968989Y-98549059D01*
X129392401Y-98549059D01*
X129392401Y-98873659D01*
X129395310Y-98898732D01*
X129440614Y-99001338D01*
X129519922Y-99080646D01*
X129622522Y-99125948D01*
X129647606Y-99128858D01*
X129972200Y-99128858D01*
X129972200Y-98552270D01*
X130000849Y-98580919D01*
X130074957Y-98623705D01*
X130157614Y-98645853D01*
X130243186Y-98645853D01*
X130325843Y-98623705D01*
X130399951Y-98580919D01*
X130428600Y-98552270D01*
X130428600Y-99128858D01*
X130753186Y-99128858D01*
X130753200Y-99128857D01*
X130778273Y-99125948D01*
X130880879Y-99080644D01*
X130960187Y-99001336D01*
X131005489Y-98898736D01*
X131005489Y-98898735D01*
X131008399Y-98873654D01*
X131008400Y-98873649D01*
X131008400Y-98549059D01*
X130431811Y-98549059D01*
X130460460Y-98520410D01*
X130503246Y-98446302D01*
X130525394Y-98363645D01*
X130525394Y-98278073D01*
X130503246Y-98195416D01*
X130460460Y-98121308D01*
X130431811Y-98092659D01*
X131008399Y-98092659D01*
X131008399Y-97768065D01*
X131005489Y-97742985D01*
X130960185Y-97640379D01*
X130880877Y-97561071D01*
X130778277Y-97515769D01*
X130753195Y-97512859D01*
X130428600Y-97512859D01*
X130428600Y-98089448D01*
X130399951Y-98060799D01*
X130325843Y-98018013D01*
X130243186Y-97995865D01*
X130157614Y-97995865D01*
X130074957Y-98018013D01*
X130000849Y-98060799D01*
X129972200Y-98089448D01*
X129972200Y-97512859D01*
X129647614Y-97512859D01*
X129647599Y-97512860D01*
X129622526Y-97515769D01*
X129519920Y-97561073D01*
X129440612Y-97640381D01*
X129395310Y-97742981D01*
X129395310Y-97742982D01*
X129392400Y-97768063D01*
X125281373Y-97768063D01*
X125259948Y-97726013D01*
X125269674Y-97664605D01*
X125313638Y-97620641D01*
X125375046Y-97610915D01*
X125521427Y-97634099D01*
X125521432Y-97634100D01*
X125521434Y-97634100D01*
X125760768Y-97634100D01*
X125760772Y-97634099D01*
X125907153Y-97610915D01*
X125997151Y-97596661D01*
X126224770Y-97522703D01*
X126407219Y-97429740D01*
X140782300Y-97429740D01*
X140782300Y-97550259D01*
X140813493Y-97666668D01*
X140872035Y-97768065D01*
X140873749Y-97771034D01*
X140958966Y-97856251D01*
X140958968Y-97856252D01*
X141063331Y-97916506D01*
X141063335Y-97916508D01*
X141179743Y-97947700D01*
X141300257Y-97947700D01*
X141416665Y-97916508D01*
X141521034Y-97856251D01*
X141606251Y-97771034D01*
X141666508Y-97666665D01*
X141697700Y-97550257D01*
X141697700Y-97429743D01*
X141666508Y-97313335D01*
X141606251Y-97208966D01*
X141521034Y-97123749D01*
X141521031Y-97123747D01*
X141416668Y-97063493D01*
X141416665Y-97063492D01*
X141385478Y-97055135D01*
X141300259Y-97032300D01*
X141300257Y-97032300D01*
X141179743Y-97032300D01*
X141179740Y-97032300D01*
X141063331Y-97063493D01*
X140958968Y-97123747D01*
X140958967Y-97123748D01*
X140958966Y-97123749D01*
X140873749Y-97208966D01*
X140873748Y-97208967D01*
X140873747Y-97208968D01*
X140813493Y-97313331D01*
X140782300Y-97429740D01*
X126407219Y-97429740D01*
X126438016Y-97414048D01*
X126631639Y-97273373D01*
X126800873Y-97104139D01*
X126941548Y-96910516D01*
X127050203Y-96697270D01*
X127071066Y-96633061D01*
X127072145Y-96629740D01*
X145252300Y-96629740D01*
X145252300Y-96750259D01*
X145283493Y-96866668D01*
X145343747Y-96971031D01*
X145343749Y-96971034D01*
X145428966Y-97056251D01*
X145428968Y-97056252D01*
X145533331Y-97116506D01*
X145533335Y-97116508D01*
X145649743Y-97147700D01*
X145770257Y-97147700D01*
X145886665Y-97116508D01*
X145991034Y-97056251D01*
X146076251Y-96971034D01*
X146136508Y-96866665D01*
X146167700Y-96750257D01*
X146167700Y-96629743D01*
X146136508Y-96513335D01*
X146119816Y-96484424D01*
X146085174Y-96424421D01*
X146076251Y-96408966D01*
X145991034Y-96323749D01*
X145943517Y-96296315D01*
X145886668Y-96263493D01*
X145886665Y-96263492D01*
X145852227Y-96254264D01*
X145770259Y-96232300D01*
X145770257Y-96232300D01*
X145649743Y-96232300D01*
X145649740Y-96232300D01*
X145533331Y-96263493D01*
X145428968Y-96323747D01*
X145428967Y-96323748D01*
X145428966Y-96323749D01*
X145343749Y-96408966D01*
X145343748Y-96408967D01*
X145343747Y-96408968D01*
X145283493Y-96513331D01*
X145252300Y-96629740D01*
X127072145Y-96629740D01*
X127084388Y-96592062D01*
X127124158Y-96469660D01*
X127124161Y-96469651D01*
X127161600Y-96233266D01*
X127161600Y-95993934D01*
X127159507Y-95980722D01*
X127124162Y-95757555D01*
X127124161Y-95757554D01*
X127124161Y-95757549D01*
X127098010Y-95677066D01*
X127050202Y-95529927D01*
X127050201Y-95529925D01*
X127027180Y-95484743D01*
X127027179Y-95484742D01*
X126941552Y-95316692D01*
X126941548Y-95316684D01*
X126800873Y-95123061D01*
X126631639Y-94953827D01*
X126631637Y-94953825D01*
X126448132Y-94820502D01*
X126438016Y-94813152D01*
X126438010Y-94813149D01*
X126438007Y-94813147D01*
X126224770Y-94704496D01*
X126135565Y-94675512D01*
X125997160Y-94630541D01*
X125997144Y-94630537D01*
X125760772Y-94593100D01*
X125760766Y-94593100D01*
X125521434Y-94593100D01*
X125521427Y-94593100D01*
X125285055Y-94630537D01*
X125285039Y-94630541D01*
X125057429Y-94704496D01*
X124844192Y-94813147D01*
X124844181Y-94813154D01*
X124650562Y-94953825D01*
X124481325Y-95123062D01*
X124340654Y-95316681D01*
X124340647Y-95316692D01*
X124231996Y-95529929D01*
X124158041Y-95757539D01*
X124158037Y-95757555D01*
X124120600Y-95993927D01*
X124120600Y-96233272D01*
X124158037Y-96469644D01*
X124158041Y-96469660D01*
X124231996Y-96697270D01*
X124340647Y-96910507D01*
X124340652Y-96910516D01*
X124384619Y-96971031D01*
X124481325Y-97104137D01*
X124611309Y-97234121D01*
X124639535Y-97289519D01*
X124629809Y-97350927D01*
X124611309Y-97376391D01*
X124599300Y-97388400D01*
X124599300Y-98198762D01*
X124567181Y-98180219D01*
X124437980Y-98145600D01*
X124304220Y-98145600D01*
X124175019Y-98180219D01*
X124142900Y-98198762D01*
X124142900Y-97388400D01*
X123921491Y-97388400D01*
X123921484Y-97388401D01*
X123908305Y-97389775D01*
X123804684Y-97432695D01*
X123794397Y-97441039D01*
X123527335Y-97708102D01*
X123471937Y-97736328D01*
X123410529Y-97726602D01*
X123366565Y-97682638D01*
X123355600Y-97636967D01*
X123355600Y-96116632D01*
X123355784Y-96110558D01*
X123361804Y-96011033D01*
X123371896Y-95844184D01*
X123373360Y-95832131D01*
X123420918Y-95572617D01*
X123423818Y-95560849D01*
X123502317Y-95308939D01*
X123506612Y-95297614D01*
X123614896Y-95057014D01*
X123620527Y-95046284D01*
X123757033Y-94820478D01*
X123763910Y-94810514D01*
X123926634Y-94602812D01*
X123934675Y-94593736D01*
X123945672Y-94582739D01*
X128965514Y-94582739D01*
X128965514Y-95024340D01*
X129623744Y-95024340D01*
X129610449Y-95037635D01*
X129564371Y-95117445D01*
X129540519Y-95206462D01*
X129540519Y-95298618D01*
X129564371Y-95387635D01*
X129610449Y-95467445D01*
X129623744Y-95480740D01*
X128965515Y-95480740D01*
X128965515Y-95922345D01*
X128968424Y-95947418D01*
X129013728Y-96050024D01*
X129093036Y-96129332D01*
X129195636Y-96174634D01*
X129220720Y-96177544D01*
X129662319Y-96177544D01*
X129662319Y-95519315D01*
X129675614Y-95532610D01*
X129755424Y-95578688D01*
X129844441Y-95602540D01*
X129936597Y-95602540D01*
X130025614Y-95578688D01*
X130105424Y-95532610D01*
X130118719Y-95519315D01*
X130118719Y-96177544D01*
X130560310Y-96177544D01*
X130560324Y-96177543D01*
X130585397Y-96174634D01*
X130688003Y-96129330D01*
X130767311Y-96050022D01*
X130812613Y-95947422D01*
X130812613Y-95947421D01*
X130815523Y-95922340D01*
X130815524Y-95922335D01*
X130815524Y-95480740D01*
X130157294Y-95480740D01*
X130170589Y-95467445D01*
X130216667Y-95387635D01*
X130240519Y-95298618D01*
X130240519Y-95206462D01*
X130216667Y-95117445D01*
X130170589Y-95037635D01*
X130157294Y-95024340D01*
X130815523Y-95024340D01*
X130815523Y-94582741D01*
X130815523Y-94582739D01*
X134436676Y-94582739D01*
X134436676Y-95024340D01*
X135094906Y-95024340D01*
X135081611Y-95037635D01*
X135035533Y-95117445D01*
X135011681Y-95206462D01*
X135011681Y-95298618D01*
X135035533Y-95387635D01*
X135081611Y-95467445D01*
X135094906Y-95480740D01*
X134436677Y-95480740D01*
X134436677Y-95922345D01*
X134439586Y-95947418D01*
X134484890Y-96050024D01*
X134564198Y-96129332D01*
X134666798Y-96174634D01*
X134691882Y-96177544D01*
X135133481Y-96177544D01*
X135133481Y-95519315D01*
X135146776Y-95532610D01*
X135226586Y-95578688D01*
X135315603Y-95602540D01*
X135407759Y-95602540D01*
X135496776Y-95578688D01*
X135576586Y-95532610D01*
X135589881Y-95519315D01*
X135589881Y-96177544D01*
X136031472Y-96177544D01*
X136031486Y-96177543D01*
X136056559Y-96174634D01*
X136081359Y-96163684D01*
X155636300Y-96163684D01*
X155636300Y-96296315D01*
X155670628Y-96424424D01*
X155718707Y-96507699D01*
X155736940Y-96539279D01*
X155830721Y-96633060D01*
X155830723Y-96633061D01*
X155945575Y-96699371D01*
X155945576Y-96699371D01*
X155945579Y-96699373D01*
X156073687Y-96733700D01*
X156206313Y-96733700D01*
X156334421Y-96699373D01*
X156449279Y-96633060D01*
X156543060Y-96539279D01*
X156609373Y-96424421D01*
X156643700Y-96296313D01*
X156643700Y-96163687D01*
X156609373Y-96035579D01*
X156595201Y-96011033D01*
X156545269Y-95924547D01*
X156543060Y-95920721D01*
X156449279Y-95826940D01*
X156449276Y-95826938D01*
X156334424Y-95760628D01*
X156334421Y-95760627D01*
X156300099Y-95751430D01*
X156206315Y-95726300D01*
X156206313Y-95726300D01*
X156073687Y-95726300D01*
X156073684Y-95726300D01*
X155945575Y-95760628D01*
X155830723Y-95826938D01*
X155830722Y-95826939D01*
X155830721Y-95826940D01*
X155736940Y-95920721D01*
X155736939Y-95920722D01*
X155736938Y-95920723D01*
X155670628Y-96035575D01*
X155636300Y-96163684D01*
X136081359Y-96163684D01*
X136159165Y-96129330D01*
X136238473Y-96050022D01*
X136283775Y-95947422D01*
X136283775Y-95947421D01*
X136286685Y-95922340D01*
X136286686Y-95922335D01*
X136286686Y-95480740D01*
X135628456Y-95480740D01*
X135641751Y-95467445D01*
X135687829Y-95387635D01*
X135711681Y-95298618D01*
X135711681Y-95206462D01*
X135687829Y-95117445D01*
X135641751Y-95037635D01*
X135628456Y-95024340D01*
X136286685Y-95024340D01*
X136286685Y-94582749D01*
X136286684Y-94582734D01*
X136283775Y-94557661D01*
X136238471Y-94455055D01*
X136159163Y-94375747D01*
X136056563Y-94330445D01*
X136031481Y-94327535D01*
X135589881Y-94327535D01*
X135589881Y-94985765D01*
X135576586Y-94972470D01*
X135496776Y-94926392D01*
X135407759Y-94902540D01*
X135315603Y-94902540D01*
X135226586Y-94926392D01*
X135146776Y-94972470D01*
X135133481Y-94985765D01*
X135133481Y-94327535D01*
X134691890Y-94327535D01*
X134691875Y-94327536D01*
X134666802Y-94330445D01*
X134564196Y-94375749D01*
X134484888Y-94455057D01*
X134439586Y-94557657D01*
X134439586Y-94557658D01*
X134436676Y-94582739D01*
X130815523Y-94582739D01*
X130812613Y-94557661D01*
X130767309Y-94455055D01*
X130688001Y-94375747D01*
X130585401Y-94330445D01*
X130560319Y-94327535D01*
X130118719Y-94327535D01*
X130118719Y-94985765D01*
X130105424Y-94972470D01*
X130025614Y-94926392D01*
X129936597Y-94902540D01*
X129844441Y-94902540D01*
X129755424Y-94926392D01*
X129675614Y-94972470D01*
X129662319Y-94985765D01*
X129662319Y-94327535D01*
X129220728Y-94327535D01*
X129220713Y-94327536D01*
X129195640Y-94330445D01*
X129093034Y-94375749D01*
X129013726Y-94455057D01*
X128968424Y-94557657D01*
X128968424Y-94557658D01*
X128965514Y-94582739D01*
X123945672Y-94582739D01*
X124121236Y-94407175D01*
X124130312Y-94399134D01*
X124338014Y-94236410D01*
X124347978Y-94229533D01*
X124573784Y-94093027D01*
X124584514Y-94087396D01*
X124825114Y-93979112D01*
X124836439Y-93974817D01*
X125088349Y-93896318D01*
X125100117Y-93893418D01*
X125359637Y-93845859D01*
X125371684Y-93844396D01*
X125638058Y-93828283D01*
X125644132Y-93828100D01*
X125685975Y-93828100D01*
X138840188Y-93828100D01*
X138899319Y-93847313D01*
G37*
%TD.AperFunction*%
%TA.AperFunction,Conductor*%
G36*
X161050297Y-114266904D02*
G01*
X161153535Y-114326508D01*
X161269943Y-114357700D01*
X161390457Y-114357700D01*
X161506865Y-114326508D01*
X161506870Y-114326504D01*
X161507833Y-114326247D01*
X161569922Y-114329500D01*
X161618241Y-114368627D01*
X161634334Y-114428682D01*
X161615259Y-114482550D01*
X161536539Y-114590898D01*
X161458454Y-114744148D01*
X161405308Y-114907715D01*
X161405304Y-114907731D01*
X161378400Y-115077596D01*
X161378400Y-115249603D01*
X161405304Y-115419468D01*
X161405308Y-115419484D01*
X161458454Y-115583051D01*
X161536539Y-115736300D01*
X161637633Y-115875444D01*
X161759254Y-115997065D01*
X161759324Y-115997116D01*
X161759341Y-115997140D01*
X161762260Y-115999633D01*
X161761661Y-116000333D01*
X161795866Y-116047418D01*
X161795862Y-116109593D01*
X161759314Y-116159891D01*
X161700188Y-116179100D01*
X160702012Y-116179100D01*
X160642881Y-116159887D01*
X160606336Y-116109587D01*
X160606336Y-116047413D01*
X160640538Y-116000333D01*
X160639940Y-115999633D01*
X160642858Y-115997140D01*
X160642876Y-115997116D01*
X160642887Y-115997107D01*
X160642946Y-115997065D01*
X160764565Y-115875446D01*
X160865661Y-115736300D01*
X160943745Y-115583051D01*
X160996894Y-115419475D01*
X161023800Y-115249597D01*
X161023800Y-115077603D01*
X161005321Y-114960934D01*
X160996895Y-114907731D01*
X160996894Y-114907730D01*
X160996894Y-114907725D01*
X160996891Y-114907715D01*
X160943745Y-114744148D01*
X160901464Y-114661168D01*
X160865661Y-114590900D01*
X160828997Y-114540436D01*
X160787779Y-114483704D01*
X160768566Y-114424573D01*
X160787779Y-114365442D01*
X160838079Y-114328897D01*
X160843103Y-114327408D01*
X160846465Y-114326508D01*
X160949701Y-114266904D01*
X160970271Y-114262532D01*
X160989485Y-114253978D01*
X161000000Y-114256213D01*
X161010515Y-114253978D01*
X161050297Y-114266904D01*
G37*
%TD.AperFunction*%
%TA.AperFunction,Conductor*%
G36*
X123527335Y-99599097D02*
G01*
X123794398Y-99866160D01*
X123794403Y-99866164D01*
X123804684Y-99874503D01*
X123816474Y-99879387D01*
X123863751Y-99919767D01*
X123878265Y-99980223D01*
X123854471Y-100037665D01*
X123849110Y-100043464D01*
X123527335Y-100365240D01*
X123471937Y-100393466D01*
X123410529Y-100383740D01*
X123366565Y-100339777D01*
X123355600Y-100294105D01*
X123355600Y-99670232D01*
X123374813Y-99611101D01*
X123425113Y-99574556D01*
X123487287Y-99574556D01*
X123527335Y-99599097D01*
G37*
%TD.AperFunction*%
%TD*%
M02*
