%TF.GenerationSoftware,KiCad,Pcbnew,10.0.3*%
%TF.CreationDate,2026-06-06T09:21:17-06:00*%
%TF.ProjectId,ZED-F9P GNSS FeatherWing,5a45442d-4639-4502-9047-4e5353204665,rev?*%
%TF.SameCoordinates,Original*%
%TF.FileFunction,Paste,Top*%
%TF.FilePolarity,Positive*%
%FSLAX46Y46*%
G04 Gerber Fmt 4.6, Leading zero omitted, Abs format (unit mm)*
G04 Created by KiCad (PCBNEW 10.0.3) date 2026-06-06 09:21:17*
%MOMM*%
%LPD*%
G01*
G04 APERTURE LIST*
G04 Aperture macros list*
%AMRoundRect*
0 Rectangle with rounded corners*
0 $1 Rounding radius*
0 $2 $3 $4 $5 $6 $7 $8 $9 X,Y pos of 4 corners*
0 Add a 4 corners polygon primitive as box body*
4,1,4,$2,$3,$4,$5,$6,$7,$8,$9,$2,$3,0*
0 Add four circle primitives for the rounded corners*
1,1,$1+$1,$2,$3*
1,1,$1+$1,$4,$5*
1,1,$1+$1,$6,$7*
1,1,$1+$1,$8,$9*
0 Add four rect primitives between the rounded corners*
20,1,$1+$1,$2,$3,$4,$5,0*
20,1,$1+$1,$4,$5,$6,$7,0*
20,1,$1+$1,$6,$7,$8,$9,0*
20,1,$1+$1,$8,$9,$2,$3,0*%
%AMRotRect*
0 Rectangle, with rotation*
0 The origin of the aperture is its center*
0 $1 length*
0 $2 width*
0 $3 Rotation angle, in degrees counterclockwise*
0 Add horizontal line*
21,1,$1,$2,0,0,$3*%
G04 Aperture macros list end*
%ADD10C,0.100000*%
%ADD11C,0.000000*%
%ADD12RoundRect,0.140000X0.140000X0.170000X-0.140000X0.170000X-0.140000X-0.170000X0.140000X-0.170000X0*%
%ADD13R,0.550000X1.200000*%
%ADD14R,1.500000X1.240000*%
%ADD15R,1.424940X2.499993*%
%ADD16R,0.400000X1.750000*%
%ADD17RotRect,1.100000X1.000000X135.000000*%
%ADD18R,4.191000X2.667000*%
%ADD19R,4.191000X1.778000*%
%ADD20R,1.000000X1.000000*%
%ADD21R,0.830000X0.630000*%
%ADD22R,0.850000X1.520000*%
%ADD23R,1.520000X0.850000*%
%ADD24R,1.000000X1.075000*%
%ADD25R,1.000000X1.100000*%
%ADD26R,0.635000X1.016000*%
%ADD27RoundRect,0.218750X-0.256250X0.218750X-0.256250X-0.218750X0.256250X-0.218750X0.256250X0.218750X0*%
%ADD28RoundRect,0.135000X0.135000X0.185000X-0.135000X0.185000X-0.135000X-0.185000X0.135000X-0.185000X0*%
%ADD29RotRect,2.250000X0.850000X45.000000*%
%ADD30R,1.200000X1.200000*%
G04 APERTURE END LIST*
D10*
X128268221Y-94780100D02*
G75*
G02*
X127268479Y-94780100I-499871J0D01*
G01*
X127268479Y-94780100D02*
G75*
G02*
X128268221Y-94780100I499871J0D01*
G01*
X170105971Y-115372600D02*
G75*
G02*
X169106229Y-115372600I-499871J0D01*
G01*
X169106229Y-115372600D02*
G75*
G02*
X170105971Y-115372600I499871J0D01*
G01*
D11*
%TO.C,CON1*%
G36*
X130530600Y-97256600D02*
G01*
X129260600Y-97256600D01*
X129260600Y-94462600D01*
X130530600Y-94462600D01*
X130530600Y-97256600D01*
G37*
G36*
X130530600Y-97256600D02*
G01*
X128752600Y-97256600D01*
X128752600Y-96685100D01*
X130530600Y-96685100D01*
X130530600Y-97256600D01*
G37*
G36*
X130721100Y-98971100D02*
G01*
X128752600Y-98971100D01*
X128752600Y-97637600D01*
X130721100Y-97637600D01*
X130721100Y-98971100D01*
G37*
G36*
X135991600Y-97256600D02*
G01*
X134721600Y-97256600D01*
X134721600Y-94462600D01*
X135991600Y-94462600D01*
X135991600Y-97256600D01*
G37*
G36*
X136499600Y-97256600D02*
G01*
X134721600Y-97256600D01*
X134721600Y-96685100D01*
X136499600Y-96685100D01*
X136499600Y-97256600D01*
G37*
G36*
X136499600Y-98971100D02*
G01*
X134531100Y-98971100D01*
X134531100Y-97637600D01*
X136499600Y-97637600D01*
X136499600Y-98971100D01*
G37*
%TO.C,U1*%
G36*
X148586100Y-100303600D02*
G01*
X147686100Y-100303600D01*
X147686100Y-99403600D01*
X148586100Y-99403600D01*
X148586100Y-100303600D01*
G37*
G36*
X148586100Y-102353600D02*
G01*
X147686100Y-102353600D01*
X147686100Y-101453600D01*
X148586100Y-101453600D01*
X148586100Y-102353600D01*
G37*
G36*
X148586100Y-104403600D02*
G01*
X147686100Y-104403600D01*
X147686100Y-103503600D01*
X148586100Y-103503600D01*
X148586100Y-104403600D01*
G37*
G36*
X148586100Y-106503600D02*
G01*
X147686100Y-106503600D01*
X147686100Y-105603600D01*
X148586100Y-105603600D01*
X148586100Y-106503600D01*
G37*
G36*
X148586100Y-108553600D02*
G01*
X147686100Y-108553600D01*
X147686100Y-107653600D01*
X148586100Y-107653600D01*
X148586100Y-108553600D01*
G37*
G36*
X148586100Y-110603600D02*
G01*
X147686100Y-110603600D01*
X147686100Y-109703600D01*
X148586100Y-109703600D01*
X148586100Y-110603600D01*
G37*
G36*
X150686100Y-100303600D02*
G01*
X149786100Y-100303600D01*
X149786100Y-99403600D01*
X150686100Y-99403600D01*
X150686100Y-100303600D01*
G37*
G36*
X150686100Y-102353600D02*
G01*
X149786100Y-102353600D01*
X149786100Y-101453600D01*
X150686100Y-101453600D01*
X150686100Y-102353600D01*
G37*
G36*
X150686100Y-104403600D02*
G01*
X149786100Y-104403600D01*
X149786100Y-103503600D01*
X150686100Y-103503600D01*
X150686100Y-104403600D01*
G37*
G36*
X150686100Y-106503600D02*
G01*
X149786100Y-106503600D01*
X149786100Y-105603600D01*
X150686100Y-105603600D01*
X150686100Y-106503600D01*
G37*
G36*
X150686100Y-108553600D02*
G01*
X149786100Y-108553600D01*
X149786100Y-107653600D01*
X150686100Y-107653600D01*
X150686100Y-108553600D01*
G37*
G36*
X150686100Y-110603600D02*
G01*
X149786100Y-110603600D01*
X149786100Y-109703600D01*
X150686100Y-109703600D01*
X150686100Y-110603600D01*
G37*
G36*
X152786100Y-100303600D02*
G01*
X151886100Y-100303600D01*
X151886100Y-99403600D01*
X152786100Y-99403600D01*
X152786100Y-100303600D01*
G37*
G36*
X152786100Y-102353600D02*
G01*
X151886100Y-102353600D01*
X151886100Y-101453600D01*
X152786100Y-101453600D01*
X152786100Y-102353600D01*
G37*
G36*
X152786100Y-104403600D02*
G01*
X151886100Y-104403600D01*
X151886100Y-103503600D01*
X152786100Y-103503600D01*
X152786100Y-104403600D01*
G37*
G36*
X152786100Y-106503600D02*
G01*
X151886100Y-106503600D01*
X151886100Y-105603600D01*
X152786100Y-105603600D01*
X152786100Y-106503600D01*
G37*
G36*
X152786100Y-108553600D02*
G01*
X151886100Y-108553600D01*
X151886100Y-107653600D01*
X152786100Y-107653600D01*
X152786100Y-108553600D01*
G37*
G36*
X152786100Y-110603600D02*
G01*
X151886100Y-110603600D01*
X151886100Y-109703600D01*
X152786100Y-109703600D01*
X152786100Y-110603600D01*
G37*
G36*
X154886100Y-100303600D02*
G01*
X153986100Y-100303600D01*
X153986100Y-99403600D01*
X154886100Y-99403600D01*
X154886100Y-100303600D01*
G37*
G36*
X154886100Y-102353600D02*
G01*
X153986100Y-102353600D01*
X153986100Y-101453600D01*
X154886100Y-101453600D01*
X154886100Y-102353600D01*
G37*
G36*
X154886100Y-104403600D02*
G01*
X153986100Y-104403600D01*
X153986100Y-103503600D01*
X154886100Y-103503600D01*
X154886100Y-104403600D01*
G37*
G36*
X154886100Y-106503600D02*
G01*
X153986100Y-106503600D01*
X153986100Y-105603600D01*
X154886100Y-105603600D01*
X154886100Y-106503600D01*
G37*
G36*
X154886100Y-108553600D02*
G01*
X153986100Y-108553600D01*
X153986100Y-107653600D01*
X154886100Y-107653600D01*
X154886100Y-108553600D01*
G37*
G36*
X154886100Y-110603600D02*
G01*
X153986100Y-110603600D01*
X153986100Y-109703600D01*
X154886100Y-109703600D01*
X154886100Y-110603600D01*
G37*
G36*
X156986100Y-100303600D02*
G01*
X156086100Y-100303600D01*
X156086100Y-99403600D01*
X156986100Y-99403600D01*
X156986100Y-100303600D01*
G37*
G36*
X156986100Y-102353600D02*
G01*
X156086100Y-102353600D01*
X156086100Y-101453600D01*
X156986100Y-101453600D01*
X156986100Y-102353600D01*
G37*
G36*
X156986100Y-104403600D02*
G01*
X156086100Y-104403600D01*
X156086100Y-103503600D01*
X156986100Y-103503600D01*
X156986100Y-104403600D01*
G37*
G36*
X156986100Y-106503600D02*
G01*
X156086100Y-106503600D01*
X156086100Y-105603600D01*
X156986100Y-105603600D01*
X156986100Y-106503600D01*
G37*
G36*
X156986100Y-108553600D02*
G01*
X156086100Y-108553600D01*
X156086100Y-107653600D01*
X156986100Y-107653600D01*
X156986100Y-108553600D01*
G37*
G36*
X156986100Y-110603600D02*
G01*
X156086100Y-110603600D01*
X156086100Y-109703600D01*
X156986100Y-109703600D01*
X156986100Y-110603600D01*
G37*
G36*
X159086100Y-100303600D02*
G01*
X158186100Y-100303600D01*
X158186100Y-99403600D01*
X159086100Y-99403600D01*
X159086100Y-100303600D01*
G37*
G36*
X159086100Y-102353600D02*
G01*
X158186100Y-102353600D01*
X158186100Y-101453600D01*
X159086100Y-101453600D01*
X159086100Y-102353600D01*
G37*
G36*
X159086100Y-104403600D02*
G01*
X158186100Y-104403600D01*
X158186100Y-103503600D01*
X159086100Y-103503600D01*
X159086100Y-104403600D01*
G37*
G36*
X159086100Y-106503600D02*
G01*
X158186100Y-106503600D01*
X158186100Y-105603600D01*
X159086100Y-105603600D01*
X159086100Y-106503600D01*
G37*
G36*
X159086100Y-108553600D02*
G01*
X158186100Y-108553600D01*
X158186100Y-107653600D01*
X159086100Y-107653600D01*
X159086100Y-108553600D01*
G37*
G36*
X159086100Y-110603600D02*
G01*
X158186100Y-110603600D01*
X158186100Y-109703600D01*
X159086100Y-109703600D01*
X159086100Y-110603600D01*
G37*
G36*
X161186100Y-100303600D02*
G01*
X160286100Y-100303600D01*
X160286100Y-99403600D01*
X161186100Y-99403600D01*
X161186100Y-100303600D01*
G37*
G36*
X161186100Y-102353600D02*
G01*
X160286100Y-102353600D01*
X160286100Y-101453600D01*
X161186100Y-101453600D01*
X161186100Y-102353600D01*
G37*
G36*
X161186100Y-104403600D02*
G01*
X160286100Y-104403600D01*
X160286100Y-103503600D01*
X161186100Y-103503600D01*
X161186100Y-104403600D01*
G37*
G36*
X161186100Y-106503600D02*
G01*
X160286100Y-106503600D01*
X160286100Y-105603600D01*
X161186100Y-105603600D01*
X161186100Y-106503600D01*
G37*
G36*
X161186100Y-108553600D02*
G01*
X160286100Y-108553600D01*
X160286100Y-107653600D01*
X161186100Y-107653600D01*
X161186100Y-108553600D01*
G37*
G36*
X161186100Y-110603600D02*
G01*
X160286100Y-110603600D01*
X160286100Y-109703600D01*
X161186100Y-109703600D01*
X161186100Y-110603600D01*
G37*
G36*
X163286100Y-100303600D02*
G01*
X162386100Y-100303600D01*
X162386100Y-99403600D01*
X163286100Y-99403600D01*
X163286100Y-100303600D01*
G37*
G36*
X163286100Y-102353600D02*
G01*
X162386100Y-102353600D01*
X162386100Y-101453600D01*
X163286100Y-101453600D01*
X163286100Y-102353600D01*
G37*
G36*
X163286100Y-104403600D02*
G01*
X162386100Y-104403600D01*
X162386100Y-103503600D01*
X163286100Y-103503600D01*
X163286100Y-104403600D01*
G37*
G36*
X163286100Y-106503600D02*
G01*
X162386100Y-106503600D01*
X162386100Y-105603600D01*
X163286100Y-105603600D01*
X163286100Y-106503600D01*
G37*
G36*
X163286100Y-108553600D02*
G01*
X162386100Y-108553600D01*
X162386100Y-107653600D01*
X163286100Y-107653600D01*
X163286100Y-108553600D01*
G37*
G36*
X163286100Y-110603600D02*
G01*
X162386100Y-110603600D01*
X162386100Y-109703600D01*
X163286100Y-109703600D01*
X163286100Y-110603600D01*
G37*
%TD*%
D12*
%TO.C,C5*%
X158710000Y-113830000D03*
X157750000Y-113830000D03*
%TD*%
D13*
%TO.C,U2*%
X138179850Y-106561000D03*
X137229850Y-106561000D03*
X136279850Y-106561000D03*
X136279850Y-109161200D03*
X138179850Y-109161200D03*
%TD*%
D14*
%TO.C,C1*%
X141020000Y-111090000D03*
X141020000Y-112990000D03*
%TD*%
D15*
%TO.C,CON1*%
X133588600Y-95023600D03*
X131663600Y-95023600D03*
D16*
X132626100Y-98098600D03*
X133276112Y-98098600D03*
X131326100Y-98098600D03*
X131976088Y-98098600D03*
X133926100Y-98098600D03*
%TD*%
D17*
%TO.C,C4*%
X127741041Y-112821041D03*
X126538959Y-111618959D03*
%TD*%
D18*
%TO.C,J1*%
X171780000Y-108492500D03*
X171780000Y-101507500D03*
D19*
X171780000Y-105000000D03*
%TD*%
D20*
%TO.C,Z2*%
X133690000Y-100394925D03*
X135690000Y-100394925D03*
%TD*%
D21*
%TO.C,D1*%
X137229850Y-113138600D03*
X137229850Y-110838600D03*
%TD*%
D22*
%TO.C,U1*%
X162636100Y-97553600D03*
X161536100Y-97553600D03*
X160436100Y-97553600D03*
X159336100Y-97553600D03*
X158236100Y-97553600D03*
X157136100Y-97553600D03*
X156036100Y-97553600D03*
X154936100Y-97553600D03*
X153836100Y-97553600D03*
X152736100Y-97553600D03*
X151636100Y-97553600D03*
X150536100Y-97553600D03*
X149436100Y-97553600D03*
X148336100Y-97553600D03*
D23*
X145536100Y-98403600D03*
X145536100Y-99503600D03*
X145536100Y-100603600D03*
X145536100Y-101703600D03*
X145536100Y-102803600D03*
X145536100Y-103903600D03*
X145536100Y-105003600D03*
X145536100Y-106103600D03*
X145536100Y-107203600D03*
X145536100Y-108303600D03*
X145536100Y-109403600D03*
X145536100Y-110503600D03*
X145536100Y-111603600D03*
D22*
X148336100Y-112453600D03*
X149436100Y-112453600D03*
X150536100Y-112453600D03*
X151636100Y-112453600D03*
X152736100Y-112453600D03*
X153836100Y-112453600D03*
X154936100Y-112453600D03*
X156036100Y-112453600D03*
X157136100Y-112453600D03*
X158236100Y-112453600D03*
X159336100Y-112453600D03*
X160436100Y-112453600D03*
X161536100Y-112453600D03*
X162636100Y-112453600D03*
D23*
X165436100Y-111603600D03*
X165436100Y-110503600D03*
X165436100Y-109403600D03*
X165436100Y-108303600D03*
X165436100Y-107203600D03*
X165436100Y-106103600D03*
X165436100Y-105003600D03*
X165436100Y-103903600D03*
X165436100Y-102803600D03*
X165436100Y-101703600D03*
X165436100Y-100603600D03*
X165436100Y-99503600D03*
X165436100Y-98403600D03*
%TD*%
D24*
%TO.C,R6*%
X140404850Y-104312350D03*
X140404850Y-106012350D03*
%TD*%
D20*
%TO.C,Z4*%
X135690000Y-101725075D03*
X133690000Y-101725075D03*
%TD*%
%TO.C,Z3*%
X130273900Y-101725075D03*
X132273900Y-101725075D03*
%TD*%
D25*
%TO.C,R5*%
X135166100Y-112679850D03*
X135166100Y-110979850D03*
%TD*%
D26*
%TO.C,Q1*%
X136750000Y-104300000D03*
X138650000Y-104300000D03*
X137700000Y-102300000D03*
%TD*%
D27*
%TO.C,L1*%
X168640000Y-103462500D03*
X168640000Y-105037500D03*
%TD*%
D12*
%TO.C,C6*%
X152940000Y-113780000D03*
X151980000Y-113780000D03*
%TD*%
D20*
%TO.C,Z1*%
X132273900Y-100394925D03*
X130273900Y-100394925D03*
%TD*%
D21*
%TO.C,D2*%
X126752350Y-101867350D03*
X126752350Y-99567350D03*
%TD*%
D28*
%TO.C,R2*%
X168310000Y-97390000D03*
X167290000Y-97390000D03*
%TD*%
D24*
%TO.C,R1*%
X168341675Y-107652450D03*
X168341675Y-109352450D03*
%TD*%
D14*
%TO.C,C2*%
X138970000Y-111040000D03*
X138970000Y-112940000D03*
%TD*%
D12*
%TO.C,C3*%
X168400000Y-101230000D03*
X167440000Y-101230000D03*
%TD*%
D29*
%TO.C,B1*%
X128442820Y-110565040D03*
X127382160Y-109504380D03*
%TD*%
D24*
%TO.C,R3*%
X142468600Y-97486100D03*
X142468600Y-99186100D03*
%TD*%
%TO.C,R4*%
X139928600Y-97486100D03*
X139928600Y-99186100D03*
%TD*%
%TO.C,R7*%
X126911100Y-104901100D03*
X126911100Y-103201100D03*
%TD*%
D30*
%TO.C,PPS0*%
X170360000Y-111550000D03*
X172460000Y-111550000D03*
%TD*%
M02*
