M48
; DRILL file KiCad 10.0.3 date 2026-06-06T09:21:19
; FORMAT={-:-/ absolute / metric / decimal}
; #@! TF.CreationDate,2026-06-06T09:21:19-06:00
; #@! TF.GenerationSoftware,Kicad,Pcbnew,10.0.3
; #@! TF.FileFunction,Plated,1,4,PTH
FMAT,2
METRIC
; #@! TA.AperFunction,Plated,PTH,ViaDrill
T1C0.254
; #@! TA.AperFunction,Plated,PTH,ViaDrill
T2C0.300
; #@! TA.AperFunction,Plated,PTH,ViaDrill
T3C0.400
; #@! TA.AperFunction,Plated,PTH,ComponentDrill
T4C0.650
; #@! TA.AperFunction,Plated,PTH,ComponentDrill
T5C0.700
; #@! TA.AperFunction,Plated,PTH,ComponentDrill
T6C1.000
; #@! TA.AperFunction,Plated,PTH,ComponentDrill
T7C1.016
%
G90
G05
T1
X123.61Y-102.45
X123.62Y-99.84
X123.62Y-107.51
X123.63Y-110.1
X123.64Y-97.21
X123.65Y-112.84
X123.79Y-95.53
X123.89Y-114.71
X124.93Y-115.66
X125.05Y-94.28
X125.88Y-110.75
X126.0Y-109.01
X126.56Y-115.89
X126.73Y-94.18
X126.91Y-105.83
X127.13Y-107.85
X127.63Y-101.86
X127.81Y-99.57
X128.0Y-102.99
X128.13Y-115.87
X128.53Y-113.8
X128.76Y-95.22
X129.264Y-100.575
X129.29Y-101.72
X130.69Y-115.84
X130.77Y-99.44
X131.22Y-96.72
X131.31Y-99.35
X131.96Y-102.88
X132.64Y-96.59
X132.668Y-102.916
X133.24Y-115.89
X133.328Y-102.916
X133.34Y-113.75
X133.93Y-99.41
X133.95Y-104.42
X134.0Y-102.9
X134.19Y-96.67
X134.46Y-99.42
X134.73Y-106.24
X135.53Y-102.71
X135.57Y-104.59
X135.68Y-107.83
X135.75Y-115.9
X136.34Y-113.79
X136.52Y-95.24
X136.61Y-100.01
X136.721Y-101.201
X137.14Y-94.18
X138.4Y-115.88
X138.53Y-114.05
X139.14Y-109.47
X139.15Y-105.47
X140.07Y-108.48
X140.88Y-115.87
X140.93Y-114.21
X141.24Y-97.49
X141.41Y-102.45
X141.45Y-100.0
X141.49Y-106.4
X142.28Y-113.23
X142.29Y-108.4
X142.32Y-110.14
X142.8Y-103.47
X142.88Y-106.94
X143.35Y-101.95
X143.44Y-115.88
X144.25Y-104.95
X144.28Y-108.56
X144.29Y-103.21
X144.29Y-106.89
X145.71Y-96.69
X145.98Y-115.9
X146.68Y-96.69
X147.01Y-106.91
X147.11Y-108.37
X148.16Y-109.11
X148.48Y-94.12
X148.52Y-115.88
X149.18Y-110.44
X149.19Y-98.86
X150.95Y-109.1
X151.05Y-94.15
X151.05Y-115.92
X151.26Y-104.94
X151.29Y-102.9
X151.3Y-107.06
X151.32Y-98.87
X152.74Y-111.21
X153.39Y-102.91
X153.39Y-104.93
X153.39Y-109.11
X153.4Y-98.87
X153.4Y-107.06
X153.59Y-115.81
X153.61Y-94.11
X153.84Y-113.85
X154.94Y-113.75
X155.46Y-98.88
X156.13Y-94.12
X157.48Y-100.85
X157.58Y-98.84
X157.59Y-107.05
X157.59Y-109.1
X157.62Y-104.97
X157.66Y-102.93
X158.23Y-111.27
X158.66Y-115.86
X158.69Y-94.1
X159.02Y-96.05
X159.336Y-113.534
X159.59Y-98.98
X159.63Y-109.18
X159.67Y-100.86
X159.75Y-107.02
X159.75Y-111.15
X159.91Y-113.84
X160.67Y-113.9
X161.19Y-94.11
X161.2Y-95.51
X161.2Y-115.87
X161.33Y-113.9
X161.79Y-99.66
X161.85Y-107.1
X161.89Y-111.06
X162.05Y-113.87
X163.74Y-94.12
X163.74Y-115.88
X164.01Y-108.81
X164.06Y-95.85
X166.26Y-94.13
X166.3Y-115.9
X166.53Y-95.77
X166.66Y-102.69
X166.69Y-113.94
X166.71Y-101.07
X166.85Y-98.07
X166.91Y-104.0
X166.94Y-105.79
X167.06Y-107.59
X167.34Y-110.01
X167.42Y-101.83
X167.47Y-98.5
X167.54Y-102.94
X167.59Y-99.32
X167.612Y-100.562
X167.75Y-112.51
X167.77Y-104.23
X167.88Y-105.81
X168.43Y-96.34
X168.7Y-115.9
X169.01Y-98.43
X169.04Y-105.89
X169.08Y-97.25
X169.1Y-99.28
X169.14Y-100.17
X169.16Y-101.02
X169.21Y-110.32
X169.34Y-108.04
X169.39Y-101.92
X169.48Y-94.19
X169.48Y-109.46
X169.98Y-99.96
X170.15Y-110.07
X170.49Y-115.84
X170.91Y-98.75
X170.95Y-99.96
X171.08Y-110.06
X171.3Y-94.21
X171.79Y-115.75
X171.81Y-99.96
X171.9Y-110.06
X172.67Y-99.95
X172.72Y-110.07
X172.98Y-95.02
X173.04Y-114.86
X173.3Y-99.51
X173.31Y-96.81
X173.31Y-112.73
X173.33Y-98.59
X173.37Y-110.57
T2
X130.38Y-112.17
X133.2Y-112.3
X136.7Y-105.3
X137.75Y-105.34
X140.21Y-106.971
X141.253Y-109.842
X142.151Y-105.956
X142.786Y-104.369
X143.421Y-102.781
X143.739Y-111.354
X147.072Y-109.131
X147.072Y-111.195
X156.14Y-96.23
X161.54Y-96.29
X164.017Y-104.921
X166.14Y-97.4
X166.67Y-99.48
X166.92Y-104.9
X167.129Y-106.778
X167.129Y-108.344
X167.129Y-109.277
X167.129Y-111.147
X167.751Y-111.77
T3
X128.816Y-103.74
X134.055Y-111.83
X143.421Y-112.154
X149.136Y-105.013
X149.136Y-107.077
X149.136Y-109.137
X149.185Y-100.883
X149.226Y-103.005
X155.473Y-102.956
X155.486Y-100.882
X155.486Y-107.077
X155.486Y-109.125
X155.496Y-105.004
X156.051Y-114.002
X159.75Y-102.956
X159.782Y-105.004
X160.43Y-96.32
X161.823Y-109.137
X161.833Y-100.965
X162.63Y-96.3
X164.136Y-97.444
X168.821Y-113.513
X169.107Y-95.836
T4
X130.2Y-98.321
X135.052Y-98.321
T5
X129.891Y-95.253
X135.362Y-95.253
T6
X129.451Y-115.164
X131.991Y-115.164
X134.531Y-115.164
X137.071Y-115.164
X139.611Y-94.844
X139.611Y-101.194
X139.611Y-115.164
X142.151Y-94.844
X142.151Y-101.194
X142.151Y-115.164
X144.691Y-94.844
X144.691Y-115.164
X147.231Y-94.844
X147.231Y-115.164
X149.771Y-94.844
X149.771Y-115.164
X152.311Y-94.844
X152.311Y-115.164
X154.851Y-94.844
X154.851Y-115.164
X157.391Y-94.844
X157.391Y-115.164
X159.931Y-94.844
X159.931Y-115.164
X162.471Y-94.844
X162.471Y-115.164
X165.011Y-94.844
X165.011Y-115.164
X167.551Y-94.844
X167.551Y-115.164
T7
X124.371Y-98.654
X124.371Y-101.175
X124.371Y-103.734
X124.371Y-106.274
X124.371Y-108.814
X124.371Y-111.354
M30
