%TF.GenerationSoftware,KiCad,Pcbnew,10.0.3*%
%TF.CreationDate,2026-06-06T09:21:17-06:00*%
%TF.ProjectId,ZED-F9P GNSS FeatherWing,5a45442d-4639-4502-9047-4e5353204665,rev?*%
%TF.SameCoordinates,Original*%
%TF.FileFunction,Legend,Bot*%
%TF.FilePolarity,Positive*%
%FSLAX46Y46*%
G04 Gerber Fmt 4.6, Leading zero omitted, Abs format (unit mm)*
G04 Created by KiCad (PCBNEW 10.0.3) date 2026-06-06 09:21:17*
%MOMM*%
%LPD*%
G01*
G04 APERTURE LIST*
%ADD10C,0.097536*%
%ADD11C,0.142240*%
%ADD12C,0.213360*%
%ADD13C,0.160020*%
%ADD14C,0.150000*%
%ADD15C,0.120000*%
%ADD16C,0.203200*%
G04 APERTURE END LIST*
D10*
X163254416Y-102437435D02*
X163181264Y-102461819D01*
X163181264Y-102461819D02*
X163059344Y-102461819D01*
X163059344Y-102461819D02*
X163010576Y-102437435D01*
X163010576Y-102437435D02*
X162986192Y-102413051D01*
X162986192Y-102413051D02*
X162961808Y-102364283D01*
X162961808Y-102364283D02*
X162961808Y-102315515D01*
X162961808Y-102315515D02*
X162986192Y-102266747D01*
X162986192Y-102266747D02*
X163010576Y-102242363D01*
X163010576Y-102242363D02*
X163059344Y-102217979D01*
X163059344Y-102217979D02*
X163156880Y-102193595D01*
X163156880Y-102193595D02*
X163205648Y-102169211D01*
X163205648Y-102169211D02*
X163230032Y-102144827D01*
X163230032Y-102144827D02*
X163254416Y-102096059D01*
X163254416Y-102096059D02*
X163254416Y-102047291D01*
X163254416Y-102047291D02*
X163230032Y-101998523D01*
X163230032Y-101998523D02*
X163205648Y-101974139D01*
X163205648Y-101974139D02*
X163156880Y-101949755D01*
X163156880Y-101949755D02*
X163034960Y-101949755D01*
X163034960Y-101949755D02*
X162961808Y-101974139D01*
X162766736Y-102315515D02*
X162522896Y-102315515D01*
X162815504Y-102461819D02*
X162644816Y-101949755D01*
X162644816Y-101949755D02*
X162474128Y-102461819D01*
X162132752Y-102193595D02*
X162303440Y-102193595D01*
X162303440Y-102461819D02*
X162303440Y-101949755D01*
X162303440Y-101949755D02*
X162059600Y-101949755D01*
X161864528Y-102193595D02*
X161693840Y-102193595D01*
X161620688Y-102461819D02*
X161864528Y-102461819D01*
X161864528Y-102461819D02*
X161864528Y-101949755D01*
X161864528Y-101949755D02*
X161620688Y-101949755D01*
X161230544Y-102193595D02*
X161157392Y-102217979D01*
X161157392Y-102217979D02*
X161133008Y-102242363D01*
X161133008Y-102242363D02*
X161108624Y-102291131D01*
X161108624Y-102291131D02*
X161108624Y-102364283D01*
X161108624Y-102364283D02*
X161133008Y-102413051D01*
X161133008Y-102413051D02*
X161157392Y-102437435D01*
X161157392Y-102437435D02*
X161206160Y-102461819D01*
X161206160Y-102461819D02*
X161401232Y-102461819D01*
X161401232Y-102461819D02*
X161401232Y-101949755D01*
X161401232Y-101949755D02*
X161230544Y-101949755D01*
X161230544Y-101949755D02*
X161181776Y-101974139D01*
X161181776Y-101974139D02*
X161157392Y-101998523D01*
X161157392Y-101998523D02*
X161133008Y-102047291D01*
X161133008Y-102047291D02*
X161133008Y-102096059D01*
X161133008Y-102096059D02*
X161157392Y-102144827D01*
X161157392Y-102144827D02*
X161181776Y-102169211D01*
X161181776Y-102169211D02*
X161230544Y-102193595D01*
X161230544Y-102193595D02*
X161401232Y-102193595D01*
X160791632Y-101949755D02*
X160694096Y-101949755D01*
X160694096Y-101949755D02*
X160645328Y-101974139D01*
X160645328Y-101974139D02*
X160596560Y-102022907D01*
X160596560Y-102022907D02*
X160572176Y-102120443D01*
X160572176Y-102120443D02*
X160572176Y-102291131D01*
X160572176Y-102291131D02*
X160596560Y-102388667D01*
X160596560Y-102388667D02*
X160645328Y-102437435D01*
X160645328Y-102437435D02*
X160694096Y-102461819D01*
X160694096Y-102461819D02*
X160791632Y-102461819D01*
X160791632Y-102461819D02*
X160840400Y-102437435D01*
X160840400Y-102437435D02*
X160889168Y-102388667D01*
X160889168Y-102388667D02*
X160913552Y-102291131D01*
X160913552Y-102291131D02*
X160913552Y-102120443D01*
X160913552Y-102120443D02*
X160889168Y-102022907D01*
X160889168Y-102022907D02*
X160840400Y-101974139D01*
X160840400Y-101974139D02*
X160791632Y-101949755D01*
X160255184Y-101949755D02*
X160157648Y-101949755D01*
X160157648Y-101949755D02*
X160108880Y-101974139D01*
X160108880Y-101974139D02*
X160060112Y-102022907D01*
X160060112Y-102022907D02*
X160035728Y-102120443D01*
X160035728Y-102120443D02*
X160035728Y-102291131D01*
X160035728Y-102291131D02*
X160060112Y-102388667D01*
X160060112Y-102388667D02*
X160108880Y-102437435D01*
X160108880Y-102437435D02*
X160157648Y-102461819D01*
X160157648Y-102461819D02*
X160255184Y-102461819D01*
X160255184Y-102461819D02*
X160303952Y-102437435D01*
X160303952Y-102437435D02*
X160352720Y-102388667D01*
X160352720Y-102388667D02*
X160377104Y-102291131D01*
X160377104Y-102291131D02*
X160377104Y-102120443D01*
X160377104Y-102120443D02*
X160352720Y-102022907D01*
X160352720Y-102022907D02*
X160303952Y-101974139D01*
X160303952Y-101974139D02*
X160255184Y-101949755D01*
X159889424Y-101949755D02*
X159596816Y-101949755D01*
X159743120Y-102461819D02*
X159743120Y-101949755D01*
D11*
X129708487Y-113696821D02*
X129999740Y-113280745D01*
X130207778Y-113696821D02*
X130207778Y-112823061D01*
X130207778Y-112823061D02*
X129874917Y-112823061D01*
X129874917Y-112823061D02*
X129791702Y-112864669D01*
X129791702Y-112864669D02*
X129750095Y-112906276D01*
X129750095Y-112906276D02*
X129708487Y-112989492D01*
X129708487Y-112989492D02*
X129708487Y-113114314D01*
X129708487Y-113114314D02*
X129750095Y-113197530D01*
X129750095Y-113197530D02*
X129791702Y-113239137D01*
X129791702Y-113239137D02*
X129874917Y-113280745D01*
X129874917Y-113280745D02*
X130207778Y-113280745D01*
X129375626Y-113655214D02*
X129250803Y-113696821D01*
X129250803Y-113696821D02*
X129042765Y-113696821D01*
X129042765Y-113696821D02*
X128959550Y-113655214D01*
X128959550Y-113655214D02*
X128917942Y-113613606D01*
X128917942Y-113613606D02*
X128876335Y-113530391D01*
X128876335Y-113530391D02*
X128876335Y-113447175D01*
X128876335Y-113447175D02*
X128917942Y-113363960D01*
X128917942Y-113363960D02*
X128959550Y-113322353D01*
X128959550Y-113322353D02*
X129042765Y-113280745D01*
X129042765Y-113280745D02*
X129209196Y-113239137D01*
X129209196Y-113239137D02*
X129292411Y-113197530D01*
X129292411Y-113197530D02*
X129334018Y-113155922D01*
X129334018Y-113155922D02*
X129375626Y-113072707D01*
X129375626Y-113072707D02*
X129375626Y-112989492D01*
X129375626Y-112989492D02*
X129334018Y-112906276D01*
X129334018Y-112906276D02*
X129292411Y-112864669D01*
X129292411Y-112864669D02*
X129209196Y-112823061D01*
X129209196Y-112823061D02*
X129001157Y-112823061D01*
X129001157Y-112823061D02*
X128876335Y-112864669D01*
X128626689Y-112823061D02*
X128127398Y-112823061D01*
X128377044Y-113696821D02*
X128377044Y-112823061D01*
X137666209Y-112929313D02*
X137749424Y-112887705D01*
X137749424Y-112887705D02*
X137874247Y-112887705D01*
X137874247Y-112887705D02*
X137999070Y-112929313D01*
X137999070Y-112929313D02*
X138082285Y-113012528D01*
X138082285Y-113012528D02*
X138123892Y-113095743D01*
X138123892Y-113095743D02*
X138165500Y-113262174D01*
X138165500Y-113262174D02*
X138165500Y-113386997D01*
X138165500Y-113386997D02*
X138123892Y-113553427D01*
X138123892Y-113553427D02*
X138082285Y-113636642D01*
X138082285Y-113636642D02*
X137999070Y-113719858D01*
X137999070Y-113719858D02*
X137874247Y-113761465D01*
X137874247Y-113761465D02*
X137791031Y-113761465D01*
X137791031Y-113761465D02*
X137666209Y-113719858D01*
X137666209Y-113719858D02*
X137624601Y-113678250D01*
X137624601Y-113678250D02*
X137624601Y-113386997D01*
X137624601Y-113386997D02*
X137791031Y-113386997D01*
X137250132Y-113761465D02*
X137250132Y-112887705D01*
X137250132Y-112887705D02*
X136750841Y-113761465D01*
X136750841Y-113761465D02*
X136750841Y-112887705D01*
X136334764Y-113761465D02*
X136334764Y-112887705D01*
X136334764Y-112887705D02*
X136126726Y-112887705D01*
X136126726Y-112887705D02*
X136001903Y-112929313D01*
X136001903Y-112929313D02*
X135918688Y-113012528D01*
X135918688Y-113012528D02*
X135877081Y-113095743D01*
X135877081Y-113095743D02*
X135835473Y-113262174D01*
X135835473Y-113262174D02*
X135835473Y-113386997D01*
X135835473Y-113386997D02*
X135877081Y-113553427D01*
X135877081Y-113553427D02*
X135918688Y-113636642D01*
X135918688Y-113636642D02*
X136001903Y-113719858D01*
X136001903Y-113719858D02*
X136126726Y-113761465D01*
X136126726Y-113761465D02*
X136334764Y-113761465D01*
X140235493Y-103290236D02*
X140110670Y-103331843D01*
X140110670Y-103331843D02*
X139902632Y-103331843D01*
X139902632Y-103331843D02*
X139819417Y-103290236D01*
X139819417Y-103290236D02*
X139777809Y-103248628D01*
X139777809Y-103248628D02*
X139736202Y-103165413D01*
X139736202Y-103165413D02*
X139736202Y-103082197D01*
X139736202Y-103082197D02*
X139777809Y-102998982D01*
X139777809Y-102998982D02*
X139819417Y-102957375D01*
X139819417Y-102957375D02*
X139902632Y-102915767D01*
X139902632Y-102915767D02*
X140069063Y-102874159D01*
X140069063Y-102874159D02*
X140152278Y-102832552D01*
X140152278Y-102832552D02*
X140193885Y-102790944D01*
X140193885Y-102790944D02*
X140235493Y-102707729D01*
X140235493Y-102707729D02*
X140235493Y-102624514D01*
X140235493Y-102624514D02*
X140193885Y-102541298D01*
X140193885Y-102541298D02*
X140152278Y-102499691D01*
X140152278Y-102499691D02*
X140069063Y-102458083D01*
X140069063Y-102458083D02*
X139861024Y-102458083D01*
X139861024Y-102458083D02*
X139736202Y-102499691D01*
X138862442Y-103248628D02*
X138904050Y-103290236D01*
X138904050Y-103290236D02*
X139028872Y-103331843D01*
X139028872Y-103331843D02*
X139112088Y-103331843D01*
X139112088Y-103331843D02*
X139236911Y-103290236D01*
X139236911Y-103290236D02*
X139320126Y-103207020D01*
X139320126Y-103207020D02*
X139361733Y-103123805D01*
X139361733Y-103123805D02*
X139403341Y-102957375D01*
X139403341Y-102957375D02*
X139403341Y-102832552D01*
X139403341Y-102832552D02*
X139361733Y-102666121D01*
X139361733Y-102666121D02*
X139320126Y-102582906D01*
X139320126Y-102582906D02*
X139236911Y-102499691D01*
X139236911Y-102499691D02*
X139112088Y-102458083D01*
X139112088Y-102458083D02*
X139028872Y-102458083D01*
X139028872Y-102458083D02*
X138904050Y-102499691D01*
X138904050Y-102499691D02*
X138862442Y-102541298D01*
X138071897Y-103331843D02*
X138487973Y-103331843D01*
X138487973Y-103331843D02*
X138487973Y-102458083D01*
X143431296Y-103290236D02*
X143306473Y-103331843D01*
X143306473Y-103331843D02*
X143098435Y-103331843D01*
X143098435Y-103331843D02*
X143015220Y-103290236D01*
X143015220Y-103290236D02*
X142973612Y-103248628D01*
X142973612Y-103248628D02*
X142932005Y-103165413D01*
X142932005Y-103165413D02*
X142932005Y-103082197D01*
X142932005Y-103082197D02*
X142973612Y-102998982D01*
X142973612Y-102998982D02*
X143015220Y-102957375D01*
X143015220Y-102957375D02*
X143098435Y-102915767D01*
X143098435Y-102915767D02*
X143264866Y-102874159D01*
X143264866Y-102874159D02*
X143348081Y-102832552D01*
X143348081Y-102832552D02*
X143389688Y-102790944D01*
X143389688Y-102790944D02*
X143431296Y-102707729D01*
X143431296Y-102707729D02*
X143431296Y-102624514D01*
X143431296Y-102624514D02*
X143389688Y-102541298D01*
X143389688Y-102541298D02*
X143348081Y-102499691D01*
X143348081Y-102499691D02*
X143264866Y-102458083D01*
X143264866Y-102458083D02*
X143056827Y-102458083D01*
X143056827Y-102458083D02*
X142932005Y-102499691D01*
X142557536Y-103331843D02*
X142557536Y-102458083D01*
X142557536Y-102458083D02*
X142349498Y-102458083D01*
X142349498Y-102458083D02*
X142224675Y-102499691D01*
X142224675Y-102499691D02*
X142141460Y-102582906D01*
X142141460Y-102582906D02*
X142099853Y-102666121D01*
X142099853Y-102666121D02*
X142058245Y-102832552D01*
X142058245Y-102832552D02*
X142058245Y-102957375D01*
X142058245Y-102957375D02*
X142099853Y-103123805D01*
X142099853Y-103123805D02*
X142141460Y-103207020D01*
X142141460Y-103207020D02*
X142224675Y-103290236D01*
X142224675Y-103290236D02*
X142349498Y-103331843D01*
X142349498Y-103331843D02*
X142557536Y-103331843D01*
X141725384Y-103082197D02*
X141309308Y-103082197D01*
X141808599Y-103331843D02*
X141517346Y-102458083D01*
X141517346Y-102458083D02*
X141226093Y-103331843D01*
X165646033Y-96994721D02*
X165521210Y-97036328D01*
X165521210Y-97036328D02*
X165313172Y-97036328D01*
X165313172Y-97036328D02*
X165229957Y-96994721D01*
X165229957Y-96994721D02*
X165188349Y-96953113D01*
X165188349Y-96953113D02*
X165146742Y-96869898D01*
X165146742Y-96869898D02*
X165146742Y-96786682D01*
X165146742Y-96786682D02*
X165188349Y-96703467D01*
X165188349Y-96703467D02*
X165229957Y-96661860D01*
X165229957Y-96661860D02*
X165313172Y-96620252D01*
X165313172Y-96620252D02*
X165479603Y-96578644D01*
X165479603Y-96578644D02*
X165562818Y-96537037D01*
X165562818Y-96537037D02*
X165604425Y-96495429D01*
X165604425Y-96495429D02*
X165646033Y-96412214D01*
X165646033Y-96412214D02*
X165646033Y-96328999D01*
X165646033Y-96328999D02*
X165604425Y-96245783D01*
X165604425Y-96245783D02*
X165562818Y-96204176D01*
X165562818Y-96204176D02*
X165479603Y-96162568D01*
X165479603Y-96162568D02*
X165271564Y-96162568D01*
X165271564Y-96162568D02*
X165146742Y-96204176D01*
X164272982Y-96953113D02*
X164314590Y-96994721D01*
X164314590Y-96994721D02*
X164439412Y-97036328D01*
X164439412Y-97036328D02*
X164522628Y-97036328D01*
X164522628Y-97036328D02*
X164647451Y-96994721D01*
X164647451Y-96994721D02*
X164730666Y-96911505D01*
X164730666Y-96911505D02*
X164772273Y-96828290D01*
X164772273Y-96828290D02*
X164813881Y-96661860D01*
X164813881Y-96661860D02*
X164813881Y-96537037D01*
X164813881Y-96537037D02*
X164772273Y-96370606D01*
X164772273Y-96370606D02*
X164730666Y-96287391D01*
X164730666Y-96287391D02*
X164647451Y-96204176D01*
X164647451Y-96204176D02*
X164522628Y-96162568D01*
X164522628Y-96162568D02*
X164439412Y-96162568D01*
X164439412Y-96162568D02*
X164314590Y-96204176D01*
X164314590Y-96204176D02*
X164272982Y-96245783D01*
X163482437Y-97036328D02*
X163898513Y-97036328D01*
X163898513Y-97036328D02*
X163898513Y-96162568D01*
X168683086Y-96994721D02*
X168558263Y-97036328D01*
X168558263Y-97036328D02*
X168350225Y-97036328D01*
X168350225Y-97036328D02*
X168267010Y-96994721D01*
X168267010Y-96994721D02*
X168225402Y-96953113D01*
X168225402Y-96953113D02*
X168183795Y-96869898D01*
X168183795Y-96869898D02*
X168183795Y-96786682D01*
X168183795Y-96786682D02*
X168225402Y-96703467D01*
X168225402Y-96703467D02*
X168267010Y-96661860D01*
X168267010Y-96661860D02*
X168350225Y-96620252D01*
X168350225Y-96620252D02*
X168516656Y-96578644D01*
X168516656Y-96578644D02*
X168599871Y-96537037D01*
X168599871Y-96537037D02*
X168641478Y-96495429D01*
X168641478Y-96495429D02*
X168683086Y-96412214D01*
X168683086Y-96412214D02*
X168683086Y-96328999D01*
X168683086Y-96328999D02*
X168641478Y-96245783D01*
X168641478Y-96245783D02*
X168599871Y-96204176D01*
X168599871Y-96204176D02*
X168516656Y-96162568D01*
X168516656Y-96162568D02*
X168308617Y-96162568D01*
X168308617Y-96162568D02*
X168183795Y-96204176D01*
X167809326Y-97036328D02*
X167809326Y-96162568D01*
X167809326Y-96162568D02*
X167601288Y-96162568D01*
X167601288Y-96162568D02*
X167476465Y-96204176D01*
X167476465Y-96204176D02*
X167393250Y-96287391D01*
X167393250Y-96287391D02*
X167351643Y-96370606D01*
X167351643Y-96370606D02*
X167310035Y-96537037D01*
X167310035Y-96537037D02*
X167310035Y-96661860D01*
X167310035Y-96661860D02*
X167351643Y-96828290D01*
X167351643Y-96828290D02*
X167393250Y-96911505D01*
X167393250Y-96911505D02*
X167476465Y-96994721D01*
X167476465Y-96994721D02*
X167601288Y-97036328D01*
X167601288Y-97036328D02*
X167809326Y-97036328D01*
X166977174Y-96786682D02*
X166561098Y-96786682D01*
X167060389Y-97036328D02*
X166769136Y-96162568D01*
X166769136Y-96162568D02*
X166477883Y-97036328D01*
D12*
X157058458Y-101444051D02*
X157173605Y-101386478D01*
X157173605Y-101386478D02*
X157346325Y-101386478D01*
X157346325Y-101386478D02*
X157519045Y-101444051D01*
X157519045Y-101444051D02*
X157634192Y-101559198D01*
X157634192Y-101559198D02*
X157691765Y-101674345D01*
X157691765Y-101674345D02*
X157749338Y-101904638D01*
X157749338Y-101904638D02*
X157749338Y-102077358D01*
X157749338Y-102077358D02*
X157691765Y-102307651D01*
X157691765Y-102307651D02*
X157634192Y-102422798D01*
X157634192Y-102422798D02*
X157519045Y-102537945D01*
X157519045Y-102537945D02*
X157346325Y-102595518D01*
X157346325Y-102595518D02*
X157231178Y-102595518D01*
X157231178Y-102595518D02*
X157058458Y-102537945D01*
X157058458Y-102537945D02*
X157000885Y-102480371D01*
X157000885Y-102480371D02*
X157000885Y-102077358D01*
X157000885Y-102077358D02*
X157231178Y-102077358D01*
X156482725Y-102595518D02*
X156482725Y-101386478D01*
X156482725Y-101386478D02*
X155791845Y-102595518D01*
X155791845Y-102595518D02*
X155791845Y-101386478D01*
X155273685Y-102537945D02*
X155100965Y-102595518D01*
X155100965Y-102595518D02*
X154813099Y-102595518D01*
X154813099Y-102595518D02*
X154697952Y-102537945D01*
X154697952Y-102537945D02*
X154640379Y-102480371D01*
X154640379Y-102480371D02*
X154582805Y-102365225D01*
X154582805Y-102365225D02*
X154582805Y-102250078D01*
X154582805Y-102250078D02*
X154640379Y-102134931D01*
X154640379Y-102134931D02*
X154697952Y-102077358D01*
X154697952Y-102077358D02*
X154813099Y-102019785D01*
X154813099Y-102019785D02*
X155043392Y-101962211D01*
X155043392Y-101962211D02*
X155158539Y-101904638D01*
X155158539Y-101904638D02*
X155216112Y-101847065D01*
X155216112Y-101847065D02*
X155273685Y-101731918D01*
X155273685Y-101731918D02*
X155273685Y-101616771D01*
X155273685Y-101616771D02*
X155216112Y-101501625D01*
X155216112Y-101501625D02*
X155158539Y-101444051D01*
X155158539Y-101444051D02*
X155043392Y-101386478D01*
X155043392Y-101386478D02*
X154755525Y-101386478D01*
X154755525Y-101386478D02*
X154582805Y-101444051D01*
X154122218Y-102537945D02*
X153949498Y-102595518D01*
X153949498Y-102595518D02*
X153661632Y-102595518D01*
X153661632Y-102595518D02*
X153546485Y-102537945D01*
X153546485Y-102537945D02*
X153488912Y-102480371D01*
X153488912Y-102480371D02*
X153431338Y-102365225D01*
X153431338Y-102365225D02*
X153431338Y-102250078D01*
X153431338Y-102250078D02*
X153488912Y-102134931D01*
X153488912Y-102134931D02*
X153546485Y-102077358D01*
X153546485Y-102077358D02*
X153661632Y-102019785D01*
X153661632Y-102019785D02*
X153891925Y-101962211D01*
X153891925Y-101962211D02*
X154007072Y-101904638D01*
X154007072Y-101904638D02*
X154064645Y-101847065D01*
X154064645Y-101847065D02*
X154122218Y-101731918D01*
X154122218Y-101731918D02*
X154122218Y-101616771D01*
X154122218Y-101616771D02*
X154064645Y-101501625D01*
X154064645Y-101501625D02*
X154007072Y-101444051D01*
X154007072Y-101444051D02*
X153891925Y-101386478D01*
X153891925Y-101386478D02*
X153604058Y-101386478D01*
X153604058Y-101386478D02*
X153431338Y-101444051D01*
X159574071Y-99263450D02*
X158768044Y-99263450D01*
X158768044Y-99263450D02*
X159574071Y-100472490D01*
X159574071Y-100472490D02*
X158768044Y-100472490D01*
X158307457Y-99839183D02*
X157904444Y-99839183D01*
X157731724Y-100472490D02*
X158307457Y-100472490D01*
X158307457Y-100472490D02*
X158307457Y-99263450D01*
X158307457Y-99263450D02*
X157731724Y-99263450D01*
X157213564Y-100472490D02*
X157213564Y-99263450D01*
X157213564Y-99263450D02*
X156925697Y-99263450D01*
X156925697Y-99263450D02*
X156752977Y-99321023D01*
X156752977Y-99321023D02*
X156637831Y-99436170D01*
X156637831Y-99436170D02*
X156580257Y-99551317D01*
X156580257Y-99551317D02*
X156522684Y-99781610D01*
X156522684Y-99781610D02*
X156522684Y-99954330D01*
X156522684Y-99954330D02*
X156580257Y-100184623D01*
X156580257Y-100184623D02*
X156637831Y-100299770D01*
X156637831Y-100299770D02*
X156752977Y-100414917D01*
X156752977Y-100414917D02*
X156925697Y-100472490D01*
X156925697Y-100472490D02*
X157213564Y-100472490D01*
X156004524Y-100011903D02*
X155083351Y-100011903D01*
X154104604Y-99839183D02*
X154507617Y-99839183D01*
X154507617Y-100472490D02*
X154507617Y-99263450D01*
X154507617Y-99263450D02*
X153931884Y-99263450D01*
X153413724Y-100472490D02*
X153183430Y-100472490D01*
X153183430Y-100472490D02*
X153068284Y-100414917D01*
X153068284Y-100414917D02*
X153010710Y-100357343D01*
X153010710Y-100357343D02*
X152895564Y-100184623D01*
X152895564Y-100184623D02*
X152837990Y-99954330D01*
X152837990Y-99954330D02*
X152837990Y-99493743D01*
X152837990Y-99493743D02*
X152895564Y-99378597D01*
X152895564Y-99378597D02*
X152953137Y-99321023D01*
X152953137Y-99321023D02*
X153068284Y-99263450D01*
X153068284Y-99263450D02*
X153298577Y-99263450D01*
X153298577Y-99263450D02*
X153413724Y-99321023D01*
X153413724Y-99321023D02*
X153471297Y-99378597D01*
X153471297Y-99378597D02*
X153528870Y-99493743D01*
X153528870Y-99493743D02*
X153528870Y-99781610D01*
X153528870Y-99781610D02*
X153471297Y-99896757D01*
X153471297Y-99896757D02*
X153413724Y-99954330D01*
X153413724Y-99954330D02*
X153298577Y-100011903D01*
X153298577Y-100011903D02*
X153068284Y-100011903D01*
X153068284Y-100011903D02*
X152953137Y-99954330D01*
X152953137Y-99954330D02*
X152895564Y-99896757D01*
X152895564Y-99896757D02*
X152837990Y-99781610D01*
X152319830Y-100472490D02*
X152319830Y-99263450D01*
X152319830Y-99263450D02*
X151859243Y-99263450D01*
X151859243Y-99263450D02*
X151744097Y-99321023D01*
X151744097Y-99321023D02*
X151686523Y-99378597D01*
X151686523Y-99378597D02*
X151628950Y-99493743D01*
X151628950Y-99493743D02*
X151628950Y-99666463D01*
X151628950Y-99666463D02*
X151686523Y-99781610D01*
X151686523Y-99781610D02*
X151744097Y-99839183D01*
X151744097Y-99839183D02*
X151859243Y-99896757D01*
X151859243Y-99896757D02*
X152319830Y-99896757D01*
X172423605Y-105469491D02*
X172423605Y-106448238D01*
X172423605Y-106448238D02*
X172481178Y-106563385D01*
X172481178Y-106563385D02*
X172538752Y-106620958D01*
X172538752Y-106620958D02*
X172653898Y-106678531D01*
X172653898Y-106678531D02*
X172826618Y-106678531D01*
X172826618Y-106678531D02*
X172941765Y-106620958D01*
X172423605Y-106217945D02*
X172538752Y-106275518D01*
X172538752Y-106275518D02*
X172769045Y-106275518D01*
X172769045Y-106275518D02*
X172884192Y-106217945D01*
X172884192Y-106217945D02*
X172941765Y-106160371D01*
X172941765Y-106160371D02*
X172999338Y-106045225D01*
X172999338Y-106045225D02*
X172999338Y-105699785D01*
X172999338Y-105699785D02*
X172941765Y-105584638D01*
X172941765Y-105584638D02*
X172884192Y-105527065D01*
X172884192Y-105527065D02*
X172769045Y-105469491D01*
X172769045Y-105469491D02*
X172538752Y-105469491D01*
X172538752Y-105469491D02*
X172423605Y-105527065D01*
X171847872Y-106275518D02*
X171847872Y-105469491D01*
X171847872Y-105066478D02*
X171905445Y-105124051D01*
X171905445Y-105124051D02*
X171847872Y-105181625D01*
X171847872Y-105181625D02*
X171790299Y-105124051D01*
X171790299Y-105124051D02*
X171847872Y-105066478D01*
X171847872Y-105066478D02*
X171847872Y-105181625D01*
X171444859Y-105469491D02*
X170984272Y-105469491D01*
X171272139Y-105066478D02*
X171272139Y-106102798D01*
X171272139Y-106102798D02*
X171214566Y-106217945D01*
X171214566Y-106217945D02*
X171099419Y-106275518D01*
X171099419Y-106275518D02*
X170984272Y-106275518D01*
X170581259Y-106275518D02*
X170581259Y-105066478D01*
X170063099Y-106275518D02*
X170063099Y-105642211D01*
X170063099Y-105642211D02*
X170120672Y-105527065D01*
X170120672Y-105527065D02*
X170235819Y-105469491D01*
X170235819Y-105469491D02*
X170408539Y-105469491D01*
X170408539Y-105469491D02*
X170523686Y-105527065D01*
X170523686Y-105527065D02*
X170581259Y-105584638D01*
X168969206Y-105469491D02*
X168969206Y-106275518D01*
X169487366Y-105469491D02*
X169487366Y-106102798D01*
X169487366Y-106102798D02*
X169429793Y-106217945D01*
X169429793Y-106217945D02*
X169314646Y-106275518D01*
X169314646Y-106275518D02*
X169141926Y-106275518D01*
X169141926Y-106275518D02*
X169026779Y-106217945D01*
X169026779Y-106217945D02*
X168969206Y-106160371D01*
X168393473Y-106275518D02*
X168393473Y-105066478D01*
X168393473Y-105527065D02*
X168278326Y-105469491D01*
X168278326Y-105469491D02*
X168048033Y-105469491D01*
X168048033Y-105469491D02*
X167932886Y-105527065D01*
X167932886Y-105527065D02*
X167875313Y-105584638D01*
X167875313Y-105584638D02*
X167817740Y-105699785D01*
X167817740Y-105699785D02*
X167817740Y-106045225D01*
X167817740Y-106045225D02*
X167875313Y-106160371D01*
X167875313Y-106160371D02*
X167932886Y-106217945D01*
X167932886Y-106217945D02*
X168048033Y-106275518D01*
X168048033Y-106275518D02*
X168278326Y-106275518D01*
X168278326Y-106275518D02*
X168393473Y-106217945D01*
X167299580Y-106160371D02*
X167242007Y-106217945D01*
X167242007Y-106217945D02*
X167299580Y-106275518D01*
X167299580Y-106275518D02*
X167357153Y-106217945D01*
X167357153Y-106217945D02*
X167299580Y-106160371D01*
X167299580Y-106160371D02*
X167299580Y-106275518D01*
X166205687Y-106217945D02*
X166320834Y-106275518D01*
X166320834Y-106275518D02*
X166551127Y-106275518D01*
X166551127Y-106275518D02*
X166666274Y-106217945D01*
X166666274Y-106217945D02*
X166723847Y-106160371D01*
X166723847Y-106160371D02*
X166781420Y-106045225D01*
X166781420Y-106045225D02*
X166781420Y-105699785D01*
X166781420Y-105699785D02*
X166723847Y-105584638D01*
X166723847Y-105584638D02*
X166666274Y-105527065D01*
X166666274Y-105527065D02*
X166551127Y-105469491D01*
X166551127Y-105469491D02*
X166320834Y-105469491D01*
X166320834Y-105469491D02*
X166205687Y-105527065D01*
X165514807Y-106275518D02*
X165629954Y-106217945D01*
X165629954Y-106217945D02*
X165687527Y-106160371D01*
X165687527Y-106160371D02*
X165745100Y-106045225D01*
X165745100Y-106045225D02*
X165745100Y-105699785D01*
X165745100Y-105699785D02*
X165687527Y-105584638D01*
X165687527Y-105584638D02*
X165629954Y-105527065D01*
X165629954Y-105527065D02*
X165514807Y-105469491D01*
X165514807Y-105469491D02*
X165342087Y-105469491D01*
X165342087Y-105469491D02*
X165226940Y-105527065D01*
X165226940Y-105527065D02*
X165169367Y-105584638D01*
X165169367Y-105584638D02*
X165111794Y-105699785D01*
X165111794Y-105699785D02*
X165111794Y-106045225D01*
X165111794Y-106045225D02*
X165169367Y-106160371D01*
X165169367Y-106160371D02*
X165226940Y-106217945D01*
X165226940Y-106217945D02*
X165342087Y-106275518D01*
X165342087Y-106275518D02*
X165514807Y-106275518D01*
X164593634Y-106275518D02*
X164593634Y-105469491D01*
X164593634Y-105584638D02*
X164536061Y-105527065D01*
X164536061Y-105527065D02*
X164420914Y-105469491D01*
X164420914Y-105469491D02*
X164248194Y-105469491D01*
X164248194Y-105469491D02*
X164133047Y-105527065D01*
X164133047Y-105527065D02*
X164075474Y-105642211D01*
X164075474Y-105642211D02*
X164075474Y-106275518D01*
X164075474Y-105642211D02*
X164017901Y-105527065D01*
X164017901Y-105527065D02*
X163902754Y-105469491D01*
X163902754Y-105469491D02*
X163730034Y-105469491D01*
X163730034Y-105469491D02*
X163614887Y-105527065D01*
X163614887Y-105527065D02*
X163557314Y-105642211D01*
X163557314Y-105642211D02*
X163557314Y-106275518D01*
X162117981Y-105008905D02*
X163154301Y-106563385D01*
X161542248Y-106275518D02*
X161657395Y-106217945D01*
X161657395Y-106217945D02*
X161714968Y-106102798D01*
X161714968Y-106102798D02*
X161714968Y-105066478D01*
X160563501Y-106275518D02*
X160563501Y-105642211D01*
X160563501Y-105642211D02*
X160621074Y-105527065D01*
X160621074Y-105527065D02*
X160736221Y-105469491D01*
X160736221Y-105469491D02*
X160966514Y-105469491D01*
X160966514Y-105469491D02*
X161081661Y-105527065D01*
X160563501Y-106217945D02*
X160678648Y-106275518D01*
X160678648Y-106275518D02*
X160966514Y-106275518D01*
X160966514Y-106275518D02*
X161081661Y-106217945D01*
X161081661Y-106217945D02*
X161139234Y-106102798D01*
X161139234Y-106102798D02*
X161139234Y-105987651D01*
X161139234Y-105987651D02*
X161081661Y-105872505D01*
X161081661Y-105872505D02*
X160966514Y-105814931D01*
X160966514Y-105814931D02*
X160678648Y-105814931D01*
X160678648Y-105814931D02*
X160563501Y-105757358D01*
X159987768Y-106275518D02*
X159987768Y-105066478D01*
X159987768Y-105527065D02*
X159872621Y-105469491D01*
X159872621Y-105469491D02*
X159642328Y-105469491D01*
X159642328Y-105469491D02*
X159527181Y-105527065D01*
X159527181Y-105527065D02*
X159469608Y-105584638D01*
X159469608Y-105584638D02*
X159412035Y-105699785D01*
X159412035Y-105699785D02*
X159412035Y-106045225D01*
X159412035Y-106045225D02*
X159469608Y-106160371D01*
X159469608Y-106160371D02*
X159527181Y-106217945D01*
X159527181Y-106217945D02*
X159642328Y-106275518D01*
X159642328Y-106275518D02*
X159872621Y-106275518D01*
X159872621Y-106275518D02*
X159987768Y-106217945D01*
X158433288Y-106217945D02*
X158548435Y-106275518D01*
X158548435Y-106275518D02*
X158778728Y-106275518D01*
X158778728Y-106275518D02*
X158893875Y-106217945D01*
X158893875Y-106217945D02*
X158951448Y-106102798D01*
X158951448Y-106102798D02*
X158951448Y-105642211D01*
X158951448Y-105642211D02*
X158893875Y-105527065D01*
X158893875Y-105527065D02*
X158778728Y-105469491D01*
X158778728Y-105469491D02*
X158548435Y-105469491D01*
X158548435Y-105469491D02*
X158433288Y-105527065D01*
X158433288Y-105527065D02*
X158375715Y-105642211D01*
X158375715Y-105642211D02*
X158375715Y-105757358D01*
X158375715Y-105757358D02*
X158951448Y-105872505D01*
X157857555Y-106275518D02*
X157857555Y-105469491D01*
X157857555Y-105699785D02*
X157799982Y-105584638D01*
X157799982Y-105584638D02*
X157742408Y-105527065D01*
X157742408Y-105527065D02*
X157627262Y-105469491D01*
X157627262Y-105469491D02*
X157512115Y-105469491D01*
X156590942Y-105469491D02*
X156590942Y-106448238D01*
X156590942Y-106448238D02*
X156648515Y-106563385D01*
X156648515Y-106563385D02*
X156706089Y-106620958D01*
X156706089Y-106620958D02*
X156821235Y-106678531D01*
X156821235Y-106678531D02*
X156993955Y-106678531D01*
X156993955Y-106678531D02*
X157109102Y-106620958D01*
X156590942Y-106217945D02*
X156706089Y-106275518D01*
X156706089Y-106275518D02*
X156936382Y-106275518D01*
X156936382Y-106275518D02*
X157051529Y-106217945D01*
X157051529Y-106217945D02*
X157109102Y-106160371D01*
X157109102Y-106160371D02*
X157166675Y-106045225D01*
X157166675Y-106045225D02*
X157166675Y-105699785D01*
X157166675Y-105699785D02*
X157109102Y-105584638D01*
X157109102Y-105584638D02*
X157051529Y-105527065D01*
X157051529Y-105527065D02*
X156936382Y-105469491D01*
X156936382Y-105469491D02*
X156706089Y-105469491D01*
X156706089Y-105469491D02*
X156590942Y-105527065D01*
X155554622Y-106217945D02*
X155669769Y-106275518D01*
X155669769Y-106275518D02*
X155900062Y-106275518D01*
X155900062Y-106275518D02*
X156015209Y-106217945D01*
X156015209Y-106217945D02*
X156072782Y-106102798D01*
X156072782Y-106102798D02*
X156072782Y-105642211D01*
X156072782Y-105642211D02*
X156015209Y-105527065D01*
X156015209Y-105527065D02*
X155900062Y-105469491D01*
X155900062Y-105469491D02*
X155669769Y-105469491D01*
X155669769Y-105469491D02*
X155554622Y-105527065D01*
X155554622Y-105527065D02*
X155497049Y-105642211D01*
X155497049Y-105642211D02*
X155497049Y-105757358D01*
X155497049Y-105757358D02*
X156072782Y-105872505D01*
X154345582Y-106275518D02*
X155036462Y-106275518D01*
X154691022Y-106275518D02*
X154691022Y-105066478D01*
X154691022Y-105066478D02*
X154806169Y-105239198D01*
X154806169Y-105239198D02*
X154921316Y-105354345D01*
X154921316Y-105354345D02*
X155036462Y-105411918D01*
X152963822Y-105008905D02*
X154000142Y-106563385D01*
X152675956Y-105066478D02*
X151869929Y-105066478D01*
X151869929Y-105066478D02*
X152675956Y-106275518D01*
X152675956Y-106275518D02*
X151869929Y-106275518D01*
X151409342Y-105642211D02*
X151006329Y-105642211D01*
X150833609Y-106275518D02*
X151409342Y-106275518D01*
X151409342Y-106275518D02*
X151409342Y-105066478D01*
X151409342Y-105066478D02*
X150833609Y-105066478D01*
X150315449Y-106275518D02*
X150315449Y-105066478D01*
X150315449Y-105066478D02*
X150027582Y-105066478D01*
X150027582Y-105066478D02*
X149854862Y-105124051D01*
X149854862Y-105124051D02*
X149739716Y-105239198D01*
X149739716Y-105239198D02*
X149682142Y-105354345D01*
X149682142Y-105354345D02*
X149624569Y-105584638D01*
X149624569Y-105584638D02*
X149624569Y-105757358D01*
X149624569Y-105757358D02*
X149682142Y-105987651D01*
X149682142Y-105987651D02*
X149739716Y-106102798D01*
X149739716Y-106102798D02*
X149854862Y-106217945D01*
X149854862Y-106217945D02*
X150027582Y-106275518D01*
X150027582Y-106275518D02*
X150315449Y-106275518D01*
X149106409Y-105814931D02*
X148185236Y-105814931D01*
X147206489Y-105642211D02*
X147609502Y-105642211D01*
X147609502Y-106275518D02*
X147609502Y-105066478D01*
X147609502Y-105066478D02*
X147033769Y-105066478D01*
X146515609Y-106275518D02*
X146285315Y-106275518D01*
X146285315Y-106275518D02*
X146170169Y-106217945D01*
X146170169Y-106217945D02*
X146112595Y-106160371D01*
X146112595Y-106160371D02*
X145997449Y-105987651D01*
X145997449Y-105987651D02*
X145939875Y-105757358D01*
X145939875Y-105757358D02*
X145939875Y-105296771D01*
X145939875Y-105296771D02*
X145997449Y-105181625D01*
X145997449Y-105181625D02*
X146055022Y-105124051D01*
X146055022Y-105124051D02*
X146170169Y-105066478D01*
X146170169Y-105066478D02*
X146400462Y-105066478D01*
X146400462Y-105066478D02*
X146515609Y-105124051D01*
X146515609Y-105124051D02*
X146573182Y-105181625D01*
X146573182Y-105181625D02*
X146630755Y-105296771D01*
X146630755Y-105296771D02*
X146630755Y-105584638D01*
X146630755Y-105584638D02*
X146573182Y-105699785D01*
X146573182Y-105699785D02*
X146515609Y-105757358D01*
X146515609Y-105757358D02*
X146400462Y-105814931D01*
X146400462Y-105814931D02*
X146170169Y-105814931D01*
X146170169Y-105814931D02*
X146055022Y-105757358D01*
X146055022Y-105757358D02*
X145997449Y-105699785D01*
X145997449Y-105699785D02*
X145939875Y-105584638D01*
X145421715Y-106275518D02*
X145421715Y-105066478D01*
X145421715Y-105066478D02*
X144961128Y-105066478D01*
X144961128Y-105066478D02*
X144845982Y-105124051D01*
X144845982Y-105124051D02*
X144788408Y-105181625D01*
X144788408Y-105181625D02*
X144730835Y-105296771D01*
X144730835Y-105296771D02*
X144730835Y-105469491D01*
X144730835Y-105469491D02*
X144788408Y-105584638D01*
X144788408Y-105584638D02*
X144845982Y-105642211D01*
X144845982Y-105642211D02*
X144961128Y-105699785D01*
X144961128Y-105699785D02*
X145421715Y-105699785D01*
X144500542Y-106390665D02*
X143579368Y-106390665D01*
X142888489Y-105642211D02*
X143291502Y-105642211D01*
X143291502Y-106275518D02*
X143291502Y-105066478D01*
X143291502Y-105066478D02*
X142715769Y-105066478D01*
X141794595Y-106217945D02*
X141909742Y-106275518D01*
X141909742Y-106275518D02*
X142140035Y-106275518D01*
X142140035Y-106275518D02*
X142255182Y-106217945D01*
X142255182Y-106217945D02*
X142312755Y-106102798D01*
X142312755Y-106102798D02*
X142312755Y-105642211D01*
X142312755Y-105642211D02*
X142255182Y-105527065D01*
X142255182Y-105527065D02*
X142140035Y-105469491D01*
X142140035Y-105469491D02*
X141909742Y-105469491D01*
X141909742Y-105469491D02*
X141794595Y-105527065D01*
X141794595Y-105527065D02*
X141737022Y-105642211D01*
X141737022Y-105642211D02*
X141737022Y-105757358D01*
X141737022Y-105757358D02*
X142312755Y-105872505D01*
X140700702Y-106275518D02*
X140700702Y-105642211D01*
X140700702Y-105642211D02*
X140758275Y-105527065D01*
X140758275Y-105527065D02*
X140873422Y-105469491D01*
X140873422Y-105469491D02*
X141103715Y-105469491D01*
X141103715Y-105469491D02*
X141218862Y-105527065D01*
X140700702Y-106217945D02*
X140815849Y-106275518D01*
X140815849Y-106275518D02*
X141103715Y-106275518D01*
X141103715Y-106275518D02*
X141218862Y-106217945D01*
X141218862Y-106217945D02*
X141276435Y-106102798D01*
X141276435Y-106102798D02*
X141276435Y-105987651D01*
X141276435Y-105987651D02*
X141218862Y-105872505D01*
X141218862Y-105872505D02*
X141103715Y-105814931D01*
X141103715Y-105814931D02*
X140815849Y-105814931D01*
X140815849Y-105814931D02*
X140700702Y-105757358D01*
X140297689Y-105469491D02*
X139837102Y-105469491D01*
X140124969Y-105066478D02*
X140124969Y-106102798D01*
X140124969Y-106102798D02*
X140067396Y-106217945D01*
X140067396Y-106217945D02*
X139952249Y-106275518D01*
X139952249Y-106275518D02*
X139837102Y-106275518D01*
X139434089Y-106275518D02*
X139434089Y-105066478D01*
X138915929Y-106275518D02*
X138915929Y-105642211D01*
X138915929Y-105642211D02*
X138973502Y-105527065D01*
X138973502Y-105527065D02*
X139088649Y-105469491D01*
X139088649Y-105469491D02*
X139261369Y-105469491D01*
X139261369Y-105469491D02*
X139376516Y-105527065D01*
X139376516Y-105527065D02*
X139434089Y-105584638D01*
X137879609Y-106217945D02*
X137994756Y-106275518D01*
X137994756Y-106275518D02*
X138225049Y-106275518D01*
X138225049Y-106275518D02*
X138340196Y-106217945D01*
X138340196Y-106217945D02*
X138397769Y-106102798D01*
X138397769Y-106102798D02*
X138397769Y-105642211D01*
X138397769Y-105642211D02*
X138340196Y-105527065D01*
X138340196Y-105527065D02*
X138225049Y-105469491D01*
X138225049Y-105469491D02*
X137994756Y-105469491D01*
X137994756Y-105469491D02*
X137879609Y-105527065D01*
X137879609Y-105527065D02*
X137822036Y-105642211D01*
X137822036Y-105642211D02*
X137822036Y-105757358D01*
X137822036Y-105757358D02*
X138397769Y-105872505D01*
X137303876Y-106275518D02*
X137303876Y-105469491D01*
X137303876Y-105699785D02*
X137246303Y-105584638D01*
X137246303Y-105584638D02*
X137188729Y-105527065D01*
X137188729Y-105527065D02*
X137073583Y-105469491D01*
X137073583Y-105469491D02*
X136958436Y-105469491D01*
X136670570Y-105066478D02*
X136382703Y-106275518D01*
X136382703Y-106275518D02*
X136152410Y-105411918D01*
X136152410Y-105411918D02*
X135922116Y-106275518D01*
X135922116Y-106275518D02*
X135634250Y-105066478D01*
X135173663Y-106275518D02*
X135173663Y-105469491D01*
X135173663Y-105066478D02*
X135231236Y-105124051D01*
X135231236Y-105124051D02*
X135173663Y-105181625D01*
X135173663Y-105181625D02*
X135116090Y-105124051D01*
X135116090Y-105124051D02*
X135173663Y-105066478D01*
X135173663Y-105066478D02*
X135173663Y-105181625D01*
X134597930Y-105469491D02*
X134597930Y-106275518D01*
X134597930Y-105584638D02*
X134540357Y-105527065D01*
X134540357Y-105527065D02*
X134425210Y-105469491D01*
X134425210Y-105469491D02*
X134252490Y-105469491D01*
X134252490Y-105469491D02*
X134137343Y-105527065D01*
X134137343Y-105527065D02*
X134079770Y-105642211D01*
X134079770Y-105642211D02*
X134079770Y-106275518D01*
X132985877Y-105469491D02*
X132985877Y-106448238D01*
X132985877Y-106448238D02*
X133043450Y-106563385D01*
X133043450Y-106563385D02*
X133101024Y-106620958D01*
X133101024Y-106620958D02*
X133216170Y-106678531D01*
X133216170Y-106678531D02*
X133388890Y-106678531D01*
X133388890Y-106678531D02*
X133504037Y-106620958D01*
X132985877Y-106217945D02*
X133101024Y-106275518D01*
X133101024Y-106275518D02*
X133331317Y-106275518D01*
X133331317Y-106275518D02*
X133446464Y-106217945D01*
X133446464Y-106217945D02*
X133504037Y-106160371D01*
X133504037Y-106160371D02*
X133561610Y-106045225D01*
X133561610Y-106045225D02*
X133561610Y-105699785D01*
X133561610Y-105699785D02*
X133504037Y-105584638D01*
X133504037Y-105584638D02*
X133446464Y-105527065D01*
X133446464Y-105527065D02*
X133331317Y-105469491D01*
X133331317Y-105469491D02*
X133101024Y-105469491D01*
X133101024Y-105469491D02*
X132985877Y-105527065D01*
X132698011Y-106390665D02*
X131776837Y-106390665D01*
X131488971Y-105066478D02*
X131488971Y-106045225D01*
X131488971Y-106045225D02*
X131431398Y-106160371D01*
X131431398Y-106160371D02*
X131373824Y-106217945D01*
X131373824Y-106217945D02*
X131258678Y-106275518D01*
X131258678Y-106275518D02*
X131028384Y-106275518D01*
X131028384Y-106275518D02*
X130913238Y-106217945D01*
X130913238Y-106217945D02*
X130855664Y-106160371D01*
X130855664Y-106160371D02*
X130798091Y-106045225D01*
X130798091Y-106045225D02*
X130798091Y-105066478D01*
X130279931Y-106217945D02*
X130107211Y-106275518D01*
X130107211Y-106275518D02*
X129819345Y-106275518D01*
X129819345Y-106275518D02*
X129704198Y-106217945D01*
X129704198Y-106217945D02*
X129646625Y-106160371D01*
X129646625Y-106160371D02*
X129589051Y-106045225D01*
X129589051Y-106045225D02*
X129589051Y-105930078D01*
X129589051Y-105930078D02*
X129646625Y-105814931D01*
X129646625Y-105814931D02*
X129704198Y-105757358D01*
X129704198Y-105757358D02*
X129819345Y-105699785D01*
X129819345Y-105699785D02*
X130049638Y-105642211D01*
X130049638Y-105642211D02*
X130164785Y-105584638D01*
X130164785Y-105584638D02*
X130222358Y-105527065D01*
X130222358Y-105527065D02*
X130279931Y-105411918D01*
X130279931Y-105411918D02*
X130279931Y-105296771D01*
X130279931Y-105296771D02*
X130222358Y-105181625D01*
X130222358Y-105181625D02*
X130164785Y-105124051D01*
X130164785Y-105124051D02*
X130049638Y-105066478D01*
X130049638Y-105066478D02*
X129761771Y-105066478D01*
X129761771Y-105066478D02*
X129589051Y-105124051D01*
X128667878Y-105642211D02*
X128495158Y-105699785D01*
X128495158Y-105699785D02*
X128437584Y-105757358D01*
X128437584Y-105757358D02*
X128380011Y-105872505D01*
X128380011Y-105872505D02*
X128380011Y-106045225D01*
X128380011Y-106045225D02*
X128437584Y-106160371D01*
X128437584Y-106160371D02*
X128495158Y-106217945D01*
X128495158Y-106217945D02*
X128610304Y-106275518D01*
X128610304Y-106275518D02*
X129070891Y-106275518D01*
X129070891Y-106275518D02*
X129070891Y-105066478D01*
X129070891Y-105066478D02*
X128667878Y-105066478D01*
X128667878Y-105066478D02*
X128552731Y-105124051D01*
X128552731Y-105124051D02*
X128495158Y-105181625D01*
X128495158Y-105181625D02*
X128437584Y-105296771D01*
X128437584Y-105296771D02*
X128437584Y-105411918D01*
X128437584Y-105411918D02*
X128495158Y-105527065D01*
X128495158Y-105527065D02*
X128552731Y-105584638D01*
X128552731Y-105584638D02*
X128667878Y-105642211D01*
X128667878Y-105642211D02*
X129070891Y-105642211D01*
D13*
X130400919Y-103060942D02*
X130400919Y-103753879D01*
X130400919Y-103753879D02*
X130360158Y-103835401D01*
X130360158Y-103835401D02*
X130319397Y-103876162D01*
X130319397Y-103876162D02*
X130237875Y-103916922D01*
X130237875Y-103916922D02*
X130074831Y-103916922D01*
X130074831Y-103916922D02*
X129993309Y-103876162D01*
X129993309Y-103876162D02*
X129952548Y-103835401D01*
X129952548Y-103835401D02*
X129911787Y-103753879D01*
X129911787Y-103753879D02*
X129911787Y-103060942D01*
X129504178Y-103916922D02*
X129504178Y-103060942D01*
X129504178Y-103060942D02*
X129015046Y-103916922D01*
X129015046Y-103916922D02*
X129015046Y-103060942D01*
X128607437Y-103916922D02*
X128607437Y-103060942D01*
X128118305Y-103916922D02*
X128485154Y-103427791D01*
X128118305Y-103060942D02*
X128607437Y-103550074D01*
X127832979Y-103060942D02*
X127303086Y-103060942D01*
X127303086Y-103060942D02*
X127588413Y-103387030D01*
X127588413Y-103387030D02*
X127466130Y-103387030D01*
X127466130Y-103387030D02*
X127384608Y-103427791D01*
X127384608Y-103427791D02*
X127343847Y-103468552D01*
X127343847Y-103468552D02*
X127303086Y-103550074D01*
X127303086Y-103550074D02*
X127303086Y-103753879D01*
X127303086Y-103753879D02*
X127343847Y-103835401D01*
X127343847Y-103835401D02*
X127384608Y-103876162D01*
X127384608Y-103876162D02*
X127466130Y-103916922D01*
X127466130Y-103916922D02*
X127710696Y-103916922D01*
X127710696Y-103916922D02*
X127792218Y-103876162D01*
X127792218Y-103876162D02*
X127832979Y-103835401D01*
X127058521Y-103060942D02*
X126773194Y-103916922D01*
X126773194Y-103916922D02*
X126487867Y-103060942D01*
X126284063Y-103060942D02*
X125754170Y-103060942D01*
X125754170Y-103060942D02*
X126039497Y-103387030D01*
X126039497Y-103387030D02*
X125917214Y-103387030D01*
X125917214Y-103387030D02*
X125835692Y-103427791D01*
X125835692Y-103427791D02*
X125794931Y-103468552D01*
X125794931Y-103468552D02*
X125754170Y-103550074D01*
X125754170Y-103550074D02*
X125754170Y-103753879D01*
X125754170Y-103753879D02*
X125794931Y-103835401D01*
X125794931Y-103835401D02*
X125835692Y-103876162D01*
X125835692Y-103876162D02*
X125917214Y-103916922D01*
X125917214Y-103916922D02*
X126161780Y-103916922D01*
X126161780Y-103916922D02*
X126243302Y-103876162D01*
X126243302Y-103876162D02*
X126284063Y-103835401D01*
X127763202Y-108440942D02*
X127274070Y-108440942D01*
X127518636Y-109296922D02*
X127518636Y-108440942D01*
X127070266Y-108440942D02*
X126499612Y-109296922D01*
X126499612Y-108440942D02*
X127070266Y-109296922D01*
X126214286Y-108522464D02*
X126173525Y-108481703D01*
X126173525Y-108481703D02*
X126092003Y-108440942D01*
X126092003Y-108440942D02*
X125888198Y-108440942D01*
X125888198Y-108440942D02*
X125806676Y-108481703D01*
X125806676Y-108481703D02*
X125765915Y-108522464D01*
X125765915Y-108522464D02*
X125725154Y-108603986D01*
X125725154Y-108603986D02*
X125725154Y-108685508D01*
X125725154Y-108685508D02*
X125765915Y-108807791D01*
X125765915Y-108807791D02*
X126255047Y-109296922D01*
X126255047Y-109296922D02*
X125725154Y-109296922D01*
D14*
X136514761Y-108864819D02*
X136514761Y-109674342D01*
X136514761Y-109674342D02*
X136467142Y-109769580D01*
X136467142Y-109769580D02*
X136419523Y-109817200D01*
X136419523Y-109817200D02*
X136324285Y-109864819D01*
X136324285Y-109864819D02*
X136133809Y-109864819D01*
X136133809Y-109864819D02*
X136038571Y-109817200D01*
X136038571Y-109817200D02*
X135990952Y-109769580D01*
X135990952Y-109769580D02*
X135943333Y-109674342D01*
X135943333Y-109674342D02*
X135943333Y-108864819D01*
X135467142Y-109864819D02*
X135467142Y-108864819D01*
X135467142Y-108864819D02*
X134895714Y-109864819D01*
X134895714Y-109864819D02*
X134895714Y-108864819D01*
X134419523Y-109864819D02*
X134419523Y-108864819D01*
X133848095Y-109864819D02*
X134276666Y-109293390D01*
X133848095Y-108864819D02*
X134419523Y-109436247D01*
X133514761Y-108864819D02*
X132895714Y-108864819D01*
X132895714Y-108864819D02*
X133229047Y-109245771D01*
X133229047Y-109245771D02*
X133086190Y-109245771D01*
X133086190Y-109245771D02*
X132990952Y-109293390D01*
X132990952Y-109293390D02*
X132943333Y-109341009D01*
X132943333Y-109341009D02*
X132895714Y-109436247D01*
X132895714Y-109436247D02*
X132895714Y-109674342D01*
X132895714Y-109674342D02*
X132943333Y-109769580D01*
X132943333Y-109769580D02*
X132990952Y-109817200D01*
X132990952Y-109817200D02*
X133086190Y-109864819D01*
X133086190Y-109864819D02*
X133371904Y-109864819D01*
X133371904Y-109864819D02*
X133467142Y-109817200D01*
X133467142Y-109817200D02*
X133514761Y-109769580D01*
X132467142Y-109769580D02*
X132419523Y-109817200D01*
X132419523Y-109817200D02*
X132467142Y-109864819D01*
X132467142Y-109864819D02*
X132514761Y-109817200D01*
X132514761Y-109817200D02*
X132467142Y-109769580D01*
X132467142Y-109769580D02*
X132467142Y-109864819D01*
X132086190Y-108864819D02*
X131467143Y-108864819D01*
X131467143Y-108864819D02*
X131800476Y-109245771D01*
X131800476Y-109245771D02*
X131657619Y-109245771D01*
X131657619Y-109245771D02*
X131562381Y-109293390D01*
X131562381Y-109293390D02*
X131514762Y-109341009D01*
X131514762Y-109341009D02*
X131467143Y-109436247D01*
X131467143Y-109436247D02*
X131467143Y-109674342D01*
X131467143Y-109674342D02*
X131514762Y-109769580D01*
X131514762Y-109769580D02*
X131562381Y-109817200D01*
X131562381Y-109817200D02*
X131657619Y-109864819D01*
X131657619Y-109864819D02*
X131943333Y-109864819D01*
X131943333Y-109864819D02*
X132038571Y-109817200D01*
X132038571Y-109817200D02*
X132086190Y-109769580D01*
X131181428Y-108864819D02*
X130848095Y-109864819D01*
X130848095Y-109864819D02*
X130514762Y-108864819D01*
X129990952Y-108864819D02*
X129895714Y-108864819D01*
X129895714Y-108864819D02*
X129800476Y-108912438D01*
X129800476Y-108912438D02*
X129752857Y-108960057D01*
X129752857Y-108960057D02*
X129705238Y-109055295D01*
X129705238Y-109055295D02*
X129657619Y-109245771D01*
X129657619Y-109245771D02*
X129657619Y-109483866D01*
X129657619Y-109483866D02*
X129705238Y-109674342D01*
X129705238Y-109674342D02*
X129752857Y-109769580D01*
X129752857Y-109769580D02*
X129800476Y-109817200D01*
X129800476Y-109817200D02*
X129895714Y-109864819D01*
X129895714Y-109864819D02*
X129990952Y-109864819D01*
X129990952Y-109864819D02*
X130086190Y-109817200D01*
X130086190Y-109817200D02*
X130133809Y-109769580D01*
X130133809Y-109769580D02*
X130181428Y-109674342D01*
X130181428Y-109674342D02*
X130229047Y-109483866D01*
X130229047Y-109483866D02*
X130229047Y-109245771D01*
X130229047Y-109245771D02*
X130181428Y-109055295D01*
X130181428Y-109055295D02*
X130133809Y-108960057D01*
X130133809Y-108960057D02*
X130086190Y-108912438D01*
X130086190Y-108912438D02*
X129990952Y-108864819D01*
X143504669Y-110734648D02*
X142504669Y-110734648D01*
X143504669Y-111210838D02*
X142504669Y-111210838D01*
X142504669Y-111210838D02*
X143504669Y-111782266D01*
X143504669Y-111782266D02*
X142504669Y-111782266D01*
X142504669Y-112115600D02*
X142504669Y-112687028D01*
X143504669Y-112401314D02*
X142504669Y-112401314D01*
X142504669Y-113210838D02*
X142504669Y-113306076D01*
X142504669Y-113306076D02*
X142552288Y-113401314D01*
X142552288Y-113401314D02*
X142599907Y-113448933D01*
X142599907Y-113448933D02*
X142695145Y-113496552D01*
X142695145Y-113496552D02*
X142885621Y-113544171D01*
X142885621Y-113544171D02*
X143123716Y-113544171D01*
X143123716Y-113544171D02*
X143314192Y-113496552D01*
X143314192Y-113496552D02*
X143409430Y-113448933D01*
X143409430Y-113448933D02*
X143457050Y-113401314D01*
X143457050Y-113401314D02*
X143504669Y-113306076D01*
X143504669Y-113306076D02*
X143504669Y-113210838D01*
X143504669Y-113210838D02*
X143457050Y-113115600D01*
X143457050Y-113115600D02*
X143409430Y-113067981D01*
X143409430Y-113067981D02*
X143314192Y-113020362D01*
X143314192Y-113020362D02*
X143123716Y-112972743D01*
X143123716Y-112972743D02*
X142885621Y-112972743D01*
X142885621Y-112972743D02*
X142695145Y-113020362D01*
X142695145Y-113020362D02*
X142599907Y-113067981D01*
X142599907Y-113067981D02*
X142552288Y-113115600D01*
X142552288Y-113115600D02*
X142504669Y-113210838D01*
X138535800Y-96669433D02*
X138583419Y-96812290D01*
X138583419Y-96812290D02*
X138583419Y-97050385D01*
X138583419Y-97050385D02*
X138535800Y-97145623D01*
X138535800Y-97145623D02*
X138488180Y-97193242D01*
X138488180Y-97193242D02*
X138392942Y-97240861D01*
X138392942Y-97240861D02*
X138297704Y-97240861D01*
X138297704Y-97240861D02*
X138202466Y-97193242D01*
X138202466Y-97193242D02*
X138154847Y-97145623D01*
X138154847Y-97145623D02*
X138107228Y-97050385D01*
X138107228Y-97050385D02*
X138059609Y-96859909D01*
X138059609Y-96859909D02*
X138011990Y-96764671D01*
X138011990Y-96764671D02*
X137964371Y-96717052D01*
X137964371Y-96717052D02*
X137869133Y-96669433D01*
X137869133Y-96669433D02*
X137773895Y-96669433D01*
X137773895Y-96669433D02*
X137678657Y-96717052D01*
X137678657Y-96717052D02*
X137631038Y-96764671D01*
X137631038Y-96764671D02*
X137583419Y-96859909D01*
X137583419Y-96859909D02*
X137583419Y-97098004D01*
X137583419Y-97098004D02*
X137631038Y-97240861D01*
X138488180Y-98240861D02*
X138535800Y-98193242D01*
X138535800Y-98193242D02*
X138583419Y-98050385D01*
X138583419Y-98050385D02*
X138583419Y-97955147D01*
X138583419Y-97955147D02*
X138535800Y-97812290D01*
X138535800Y-97812290D02*
X138440561Y-97717052D01*
X138440561Y-97717052D02*
X138345323Y-97669433D01*
X138345323Y-97669433D02*
X138154847Y-97621814D01*
X138154847Y-97621814D02*
X138011990Y-97621814D01*
X138011990Y-97621814D02*
X137821514Y-97669433D01*
X137821514Y-97669433D02*
X137726276Y-97717052D01*
X137726276Y-97717052D02*
X137631038Y-97812290D01*
X137631038Y-97812290D02*
X137583419Y-97955147D01*
X137583419Y-97955147D02*
X137583419Y-98050385D01*
X137583419Y-98050385D02*
X137631038Y-98193242D01*
X137631038Y-98193242D02*
X137678657Y-98240861D01*
X138583419Y-99145623D02*
X138583419Y-98669433D01*
X138583419Y-98669433D02*
X137583419Y-98669433D01*
X137583419Y-99669433D02*
X137583419Y-99764671D01*
X137583419Y-99764671D02*
X137631038Y-99859909D01*
X137631038Y-99859909D02*
X137678657Y-99907528D01*
X137678657Y-99907528D02*
X137773895Y-99955147D01*
X137773895Y-99955147D02*
X137964371Y-100002766D01*
X137964371Y-100002766D02*
X138202466Y-100002766D01*
X138202466Y-100002766D02*
X138392942Y-99955147D01*
X138392942Y-99955147D02*
X138488180Y-99907528D01*
X138488180Y-99907528D02*
X138535800Y-99859909D01*
X138535800Y-99859909D02*
X138583419Y-99764671D01*
X138583419Y-99764671D02*
X138583419Y-99669433D01*
X138583419Y-99669433D02*
X138535800Y-99574195D01*
X138535800Y-99574195D02*
X138488180Y-99526576D01*
X138488180Y-99526576D02*
X138392942Y-99478957D01*
X138392942Y-99478957D02*
X138202466Y-99431338D01*
X138202466Y-99431338D02*
X137964371Y-99431338D01*
X137964371Y-99431338D02*
X137773895Y-99478957D01*
X137773895Y-99478957D02*
X137678657Y-99526576D01*
X137678657Y-99526576D02*
X137631038Y-99574195D01*
X137631038Y-99574195D02*
X137583419Y-99669433D01*
X162924819Y-107891905D02*
X162924819Y-108463333D01*
X163924819Y-108177619D02*
X162924819Y-108177619D01*
X162924819Y-108701429D02*
X163924819Y-109368095D01*
X162924819Y-109368095D02*
X163924819Y-108701429D01*
X162924819Y-109939524D02*
X162924819Y-110034762D01*
X162924819Y-110034762D02*
X162972438Y-110130000D01*
X162972438Y-110130000D02*
X163020057Y-110177619D01*
X163020057Y-110177619D02*
X163115295Y-110225238D01*
X163115295Y-110225238D02*
X163305771Y-110272857D01*
X163305771Y-110272857D02*
X163543866Y-110272857D01*
X163543866Y-110272857D02*
X163734342Y-110225238D01*
X163734342Y-110225238D02*
X163829580Y-110177619D01*
X163829580Y-110177619D02*
X163877200Y-110130000D01*
X163877200Y-110130000D02*
X163924819Y-110034762D01*
X163924819Y-110034762D02*
X163924819Y-109939524D01*
X163924819Y-109939524D02*
X163877200Y-109844286D01*
X163877200Y-109844286D02*
X163829580Y-109796667D01*
X163829580Y-109796667D02*
X163734342Y-109749048D01*
X163734342Y-109749048D02*
X163543866Y-109701429D01*
X163543866Y-109701429D02*
X163305771Y-109701429D01*
X163305771Y-109701429D02*
X163115295Y-109749048D01*
X163115295Y-109749048D02*
X163020057Y-109796667D01*
X163020057Y-109796667D02*
X162972438Y-109844286D01*
X162972438Y-109844286D02*
X162924819Y-109939524D01*
D13*
X127291787Y-106676922D02*
X127577114Y-106269313D01*
X127780919Y-106676922D02*
X127780919Y-105820942D01*
X127780919Y-105820942D02*
X127454831Y-105820942D01*
X127454831Y-105820942D02*
X127373309Y-105861703D01*
X127373309Y-105861703D02*
X127332548Y-105902464D01*
X127332548Y-105902464D02*
X127291787Y-105983986D01*
X127291787Y-105983986D02*
X127291787Y-106106269D01*
X127291787Y-106106269D02*
X127332548Y-106187791D01*
X127332548Y-106187791D02*
X127373309Y-106228552D01*
X127373309Y-106228552D02*
X127454831Y-106269313D01*
X127454831Y-106269313D02*
X127780919Y-106269313D01*
X127006461Y-105820942D02*
X126435807Y-106676922D01*
X126435807Y-105820942D02*
X127006461Y-106676922D01*
X126150481Y-105902464D02*
X126109720Y-105861703D01*
X126109720Y-105861703D02*
X126028198Y-105820942D01*
X126028198Y-105820942D02*
X125824393Y-105820942D01*
X125824393Y-105820942D02*
X125742871Y-105861703D01*
X125742871Y-105861703D02*
X125702110Y-105902464D01*
X125702110Y-105902464D02*
X125661349Y-105983986D01*
X125661349Y-105983986D02*
X125661349Y-106065508D01*
X125661349Y-106065508D02*
X125702110Y-106187791D01*
X125702110Y-106187791D02*
X126191242Y-106676922D01*
X126191242Y-106676922D02*
X125661349Y-106676922D01*
D14*
X144877200Y-96579524D02*
X144924819Y-96722381D01*
X144924819Y-96722381D02*
X144924819Y-96960476D01*
X144924819Y-96960476D02*
X144877200Y-97055714D01*
X144877200Y-97055714D02*
X144829580Y-97103333D01*
X144829580Y-97103333D02*
X144734342Y-97150952D01*
X144734342Y-97150952D02*
X144639104Y-97150952D01*
X144639104Y-97150952D02*
X144543866Y-97103333D01*
X144543866Y-97103333D02*
X144496247Y-97055714D01*
X144496247Y-97055714D02*
X144448628Y-96960476D01*
X144448628Y-96960476D02*
X144401009Y-96770000D01*
X144401009Y-96770000D02*
X144353390Y-96674762D01*
X144353390Y-96674762D02*
X144305771Y-96627143D01*
X144305771Y-96627143D02*
X144210533Y-96579524D01*
X144210533Y-96579524D02*
X144115295Y-96579524D01*
X144115295Y-96579524D02*
X144020057Y-96627143D01*
X144020057Y-96627143D02*
X143972438Y-96674762D01*
X143972438Y-96674762D02*
X143924819Y-96770000D01*
X143924819Y-96770000D02*
X143924819Y-97008095D01*
X143924819Y-97008095D02*
X143972438Y-97150952D01*
X144924819Y-97579524D02*
X143924819Y-97579524D01*
X143924819Y-97579524D02*
X143924819Y-97817619D01*
X143924819Y-97817619D02*
X143972438Y-97960476D01*
X143972438Y-97960476D02*
X144067676Y-98055714D01*
X144067676Y-98055714D02*
X144162914Y-98103333D01*
X144162914Y-98103333D02*
X144353390Y-98150952D01*
X144353390Y-98150952D02*
X144496247Y-98150952D01*
X144496247Y-98150952D02*
X144686723Y-98103333D01*
X144686723Y-98103333D02*
X144781961Y-98055714D01*
X144781961Y-98055714D02*
X144877200Y-97960476D01*
X144877200Y-97960476D02*
X144924819Y-97817619D01*
X144924819Y-97817619D02*
X144924819Y-97579524D01*
X144639104Y-98531905D02*
X144639104Y-99008095D01*
X144924819Y-98436667D02*
X143924819Y-98770000D01*
X143924819Y-98770000D02*
X144924819Y-99103333D01*
X143924819Y-99627143D02*
X143924819Y-99722381D01*
X143924819Y-99722381D02*
X143972438Y-99817619D01*
X143972438Y-99817619D02*
X144020057Y-99865238D01*
X144020057Y-99865238D02*
X144115295Y-99912857D01*
X144115295Y-99912857D02*
X144305771Y-99960476D01*
X144305771Y-99960476D02*
X144543866Y-99960476D01*
X144543866Y-99960476D02*
X144734342Y-99912857D01*
X144734342Y-99912857D02*
X144829580Y-99865238D01*
X144829580Y-99865238D02*
X144877200Y-99817619D01*
X144877200Y-99817619D02*
X144924819Y-99722381D01*
X144924819Y-99722381D02*
X144924819Y-99627143D01*
X144924819Y-99627143D02*
X144877200Y-99531905D01*
X144877200Y-99531905D02*
X144829580Y-99484286D01*
X144829580Y-99484286D02*
X144734342Y-99436667D01*
X144734342Y-99436667D02*
X144543866Y-99389048D01*
X144543866Y-99389048D02*
X144305771Y-99389048D01*
X144305771Y-99389048D02*
X144115295Y-99436667D01*
X144115295Y-99436667D02*
X144020057Y-99484286D01*
X144020057Y-99484286D02*
X143972438Y-99531905D01*
X143972438Y-99531905D02*
X143924819Y-99627143D01*
D13*
X125921703Y-98217451D02*
X125880942Y-98135929D01*
X125880942Y-98135929D02*
X125880942Y-98013646D01*
X125880942Y-98013646D02*
X125921703Y-97891363D01*
X125921703Y-97891363D02*
X126003225Y-97809841D01*
X126003225Y-97809841D02*
X126084747Y-97769080D01*
X126084747Y-97769080D02*
X126247791Y-97728319D01*
X126247791Y-97728319D02*
X126370074Y-97728319D01*
X126370074Y-97728319D02*
X126533118Y-97769080D01*
X126533118Y-97769080D02*
X126614640Y-97809841D01*
X126614640Y-97809841D02*
X126696162Y-97891363D01*
X126696162Y-97891363D02*
X126736922Y-98013646D01*
X126736922Y-98013646D02*
X126736922Y-98095168D01*
X126736922Y-98095168D02*
X126696162Y-98217451D01*
X126696162Y-98217451D02*
X126655401Y-98258212D01*
X126655401Y-98258212D02*
X126370074Y-98258212D01*
X126370074Y-98258212D02*
X126370074Y-98095168D01*
X126736922Y-98625060D02*
X125880942Y-98625060D01*
X125880942Y-98625060D02*
X126736922Y-99114192D01*
X126736922Y-99114192D02*
X125880942Y-99114192D01*
X126736922Y-99521801D02*
X125880942Y-99521801D01*
X125880942Y-99521801D02*
X125880942Y-99725606D01*
X125880942Y-99725606D02*
X125921703Y-99847889D01*
X125921703Y-99847889D02*
X126003225Y-99929411D01*
X126003225Y-99929411D02*
X126084747Y-99970172D01*
X126084747Y-99970172D02*
X126247791Y-100010933D01*
X126247791Y-100010933D02*
X126370074Y-100010933D01*
X126370074Y-100010933D02*
X126533118Y-99970172D01*
X126533118Y-99970172D02*
X126614640Y-99929411D01*
X126614640Y-99929411D02*
X126696162Y-99847889D01*
X126696162Y-99847889D02*
X126736922Y-99725606D01*
X126736922Y-99725606D02*
X126736922Y-99521801D01*
X125880942Y-100540825D02*
X125880942Y-100622347D01*
X125880942Y-100622347D02*
X125921703Y-100703869D01*
X125921703Y-100703869D02*
X125962464Y-100744630D01*
X125962464Y-100744630D02*
X126043986Y-100785391D01*
X126043986Y-100785391D02*
X126207030Y-100826152D01*
X126207030Y-100826152D02*
X126410835Y-100826152D01*
X126410835Y-100826152D02*
X126573879Y-100785391D01*
X126573879Y-100785391D02*
X126655401Y-100744630D01*
X126655401Y-100744630D02*
X126696162Y-100703869D01*
X126696162Y-100703869D02*
X126736922Y-100622347D01*
X126736922Y-100622347D02*
X126736922Y-100540825D01*
X126736922Y-100540825D02*
X126696162Y-100459303D01*
X126696162Y-100459303D02*
X126655401Y-100418542D01*
X126655401Y-100418542D02*
X126573879Y-100377781D01*
X126573879Y-100377781D02*
X126410835Y-100337020D01*
X126410835Y-100337020D02*
X126207030Y-100337020D01*
X126207030Y-100337020D02*
X126043986Y-100377781D01*
X126043986Y-100377781D02*
X125962464Y-100418542D01*
X125962464Y-100418542D02*
X125921703Y-100459303D01*
X125921703Y-100459303D02*
X125880942Y-100540825D01*
D14*
X166264819Y-108397142D02*
X165788628Y-108063809D01*
X166264819Y-107825714D02*
X165264819Y-107825714D01*
X165264819Y-107825714D02*
X165264819Y-108206666D01*
X165264819Y-108206666D02*
X165312438Y-108301904D01*
X165312438Y-108301904D02*
X165360057Y-108349523D01*
X165360057Y-108349523D02*
X165455295Y-108397142D01*
X165455295Y-108397142D02*
X165598152Y-108397142D01*
X165598152Y-108397142D02*
X165693390Y-108349523D01*
X165693390Y-108349523D02*
X165741009Y-108301904D01*
X165741009Y-108301904D02*
X165788628Y-108206666D01*
X165788628Y-108206666D02*
X165788628Y-107825714D01*
X165264819Y-108730476D02*
X166264819Y-109397142D01*
X165264819Y-109397142D02*
X166264819Y-108730476D01*
X165264819Y-109968571D02*
X165264819Y-110063809D01*
X165264819Y-110063809D02*
X165312438Y-110159047D01*
X165312438Y-110159047D02*
X165360057Y-110206666D01*
X165360057Y-110206666D02*
X165455295Y-110254285D01*
X165455295Y-110254285D02*
X165645771Y-110301904D01*
X165645771Y-110301904D02*
X165883866Y-110301904D01*
X165883866Y-110301904D02*
X166074342Y-110254285D01*
X166074342Y-110254285D02*
X166169580Y-110206666D01*
X166169580Y-110206666D02*
X166217200Y-110159047D01*
X166217200Y-110159047D02*
X166264819Y-110063809D01*
X166264819Y-110063809D02*
X166264819Y-109968571D01*
X166264819Y-109968571D02*
X166217200Y-109873333D01*
X166217200Y-109873333D02*
X166169580Y-109825714D01*
X166169580Y-109825714D02*
X166074342Y-109778095D01*
X166074342Y-109778095D02*
X165883866Y-109730476D01*
X165883866Y-109730476D02*
X165645771Y-109730476D01*
X165645771Y-109730476D02*
X165455295Y-109778095D01*
X165455295Y-109778095D02*
X165360057Y-109825714D01*
X165360057Y-109825714D02*
X165312438Y-109873333D01*
X165312438Y-109873333D02*
X165264819Y-109968571D01*
%TO.C,UNK3.3V0*%
D15*
X130832350Y-111129850D02*
X130832350Y-112529850D01*
X131532350Y-113229850D02*
X132132350Y-113229850D01*
X132132350Y-110429850D02*
X131532350Y-110429850D01*
X132832350Y-112529850D02*
X132832350Y-111129850D01*
X130832350Y-111129850D02*
G75*
G02*
X131532350Y-110429850I700000J0D01*
G01*
X131532350Y-113229850D02*
G75*
G02*
X130832350Y-112529850I-1J699999D01*
G01*
X132132350Y-110429850D02*
G75*
G02*
X132832350Y-111129850I0J-700000D01*
G01*
X132832350Y-112529850D02*
G75*
G02*
X132132350Y-113229850I-699999J-1D01*
G01*
%TO.C,INT0*%
X143849850Y-111415600D02*
X143849850Y-112815600D01*
X144549850Y-113515600D02*
X145149850Y-113515600D01*
X145149850Y-110715600D02*
X144549850Y-110715600D01*
X145849850Y-112815600D02*
X145849850Y-111415600D01*
X143849850Y-111415600D02*
G75*
G02*
X144549850Y-110715600I699999J1D01*
G01*
X144549850Y-113515600D02*
G75*
G02*
X143849850Y-112815600I0J700000D01*
G01*
X145149850Y-110715600D02*
G75*
G02*
X145849850Y-111415600I1J-699999D01*
G01*
X145849850Y-112815600D02*
G75*
G02*
X145149850Y-113515600I-700000J0D01*
G01*
%TO.C,SCL0*%
X138928600Y-97636100D02*
X138928600Y-99036100D01*
X139628600Y-99736100D02*
X140228600Y-99736100D01*
X140228600Y-96936100D02*
X139628600Y-96936100D01*
X140928600Y-99036100D02*
X140928600Y-97636100D01*
X138928600Y-97636100D02*
G75*
G02*
X139628600Y-96936100I699999J1D01*
G01*
X139628600Y-99736100D02*
G75*
G02*
X138928600Y-99036100I0J700000D01*
G01*
X140228600Y-96936100D02*
G75*
G02*
X140928600Y-97636100I1J-699999D01*
G01*
X140928600Y-99036100D02*
G75*
G02*
X140228600Y-99736100I-700000J0D01*
G01*
%TO.C,TX0*%
X162423600Y-111415600D02*
X162423600Y-112815600D01*
X163123600Y-113515600D02*
X163723600Y-113515600D01*
X163723600Y-110715600D02*
X163123600Y-110715600D01*
X164423600Y-112815600D02*
X164423600Y-111415600D01*
X162423600Y-111415600D02*
G75*
G02*
X163123600Y-110715600I699999J1D01*
G01*
X163123600Y-113515600D02*
G75*
G02*
X162423600Y-112815600I0J700000D01*
G01*
X163723600Y-110715600D02*
G75*
G02*
X164423600Y-111415600I1J-699999D01*
G01*
X164423600Y-112815600D02*
G75*
G02*
X163723600Y-113515600I-700000J0D01*
G01*
%TO.C,TP1*%
D16*
X163471100Y-103733600D02*
G75*
G02*
X161471100Y-103733600I-1000000J0D01*
G01*
X161471100Y-103733600D02*
G75*
G02*
X163471100Y-103733600I1000000J0D01*
G01*
%TO.C,SDA0*%
D15*
X141468600Y-97636100D02*
X141468600Y-99036100D01*
X142168600Y-99736100D02*
X142768600Y-99736100D01*
X142768600Y-96936100D02*
X142168600Y-96936100D01*
X143468600Y-99036100D02*
X143468600Y-97636100D01*
X141468600Y-97636100D02*
G75*
G02*
X142168600Y-96936100I699999J1D01*
G01*
X142168600Y-99736100D02*
G75*
G02*
X141468600Y-99036100I0J700000D01*
G01*
X142768600Y-96936100D02*
G75*
G02*
X143468600Y-97636100I1J-699999D01*
G01*
X143468600Y-99036100D02*
G75*
G02*
X142768600Y-99736100I-700000J0D01*
G01*
%TO.C,RX0*%
X164804850Y-111415600D02*
X164804850Y-112815600D01*
X165504850Y-113515600D02*
X166104850Y-113515600D01*
X166104850Y-110715600D02*
X165504850Y-110715600D01*
X166804850Y-112815600D02*
X166804850Y-111415600D01*
X164804850Y-111415600D02*
G75*
G02*
X165504850Y-110715600I699999J1D01*
G01*
X165504850Y-113515600D02*
G75*
G02*
X164804850Y-112815600I0J700000D01*
G01*
X166104850Y-110715600D02*
G75*
G02*
X166804850Y-111415600I1J-699999D01*
G01*
X166804850Y-112815600D02*
G75*
G02*
X166104850Y-113515600I-700000J0D01*
G01*
%TD*%
M02*
